<?xml version="1.0" encoding="UTF-8" standalone="no"?>
<!-- Created with Inkscape (http://www.inkscape.org/) -->

<svg
   xmlns:dc="http://purl.org/dc/elements/1.1/"
   xmlns:cc="http://creativecommons.org/ns#"
   xmlns:rdf="http://www.w3.org/1999/02/22-rdf-syntax-ns#"
   xmlns:svg="http://www.w3.org/2000/svg"
   xmlns="http://www.w3.org/2000/svg"
   xmlns:sodipodi="http://sodipodi.sourceforge.net/DTD/sodipodi-0.dtd"
   xmlns:inkscape="http://www.inkscape.org/namespaces/inkscape"
   width="180"
   height="380"
   viewBox="0 0 47.625002 100.54167"
   version="1.1"
   id="svg8"
   inkscape:version="0.92.4 (5da689c313, 2019-01-14)"
   sodipodi:docname="MyModule2.svg">
  <defs
     id="defs2">
    <inkscape:path-effect
       effect="powerstroke"
       id="path-effect154"
       is_visible="true"
       offset_points="1.1951773e-06,0.13228654"
       sort_points="true"
       interpolator_type="CubicBezierJohan"
       interpolator_beta="0.2"
       start_linecap_type="zerowidth"
       linejoin_type="extrp_arc"
       miter_limit="4"
       end_linecap_type="zerowidth" />
    <inkscape:path-effect
       effect="bspline"
       id="path-effect152"
       is_visible="true"
       weight="33.333333"
       steps="2"
       helper_size="0"
       apply_no_weight="true"
       apply_with_weight="true"
       only_selected="false" />
    <inkscape:path-effect
       effect="powerstroke"
       id="path-effect148"
       is_visible="true"
       offset_points="0.072744184,0.046311487"
       sort_points="true"
       interpolator_type="CubicBezierJohan"
       interpolator_beta="0.2"
       start_linecap_type="zerowidth"
       linejoin_type="extrp_arc"
       miter_limit="4"
       end_linecap_type="zerowidth" />
    <inkscape:path-effect
       effect="powerstroke"
       id="path-effect6405"
       is_visible="true"
       offset_points="0,0.13229166"
       sort_points="true"
       interpolator_type="CubicBezierJohan"
       interpolator_beta="0.2"
       start_linecap_type="zerowidth"
       linejoin_type="extrp_arc"
       miter_limit="4"
       end_linecap_type="zerowidth" />
    <inkscape:path-effect
       effect="bspline"
       id="path-effect152-5"
       is_visible="true"
       weight="33.333333"
       steps="2"
       helper_size="0"
       apply_no_weight="true"
       apply_with_weight="true"
       only_selected="false" />
    <inkscape:path-effect
       effect="powerstroke"
       id="path-effect154-5"
       is_visible="true"
       offset_points="0,0.13229166"
       sort_points="true"
       interpolator_type="CubicBezierJohan"
       interpolator_beta="0.2"
       start_linecap_type="zerowidth"
       linejoin_type="extrp_arc"
       miter_limit="4"
       end_linecap_type="zerowidth" />
    <inkscape:path-effect
       effect="powerstroke"
       id="path-effect148-3"
       is_visible="true"
       offset_points="0.072744184,0.046311487"
       sort_points="true"
       interpolator_type="CubicBezierJohan"
       interpolator_beta="0.2"
       start_linecap_type="zerowidth"
       linejoin_type="extrp_arc"
       miter_limit="4"
       end_linecap_type="zerowidth" />
  </defs>
  <sodipodi:namedview
     id="base"
     pagecolor="#ffffff"
     bordercolor="#666666"
     borderopacity="1.0"
     inkscape:pageopacity="0.0"
     inkscape:pageshadow="2"
     inkscape:zoom="1.979899"
     inkscape:cx="110.76421"
     inkscape:cy="175.66412"
     inkscape:document-units="mm"
     inkscape:current-layer="layer1"
     showgrid="false"
     units="px"
     inkscape:snap-bbox="true"
     inkscape:snap-page="true"
     inkscape:bbox-nodes="true"
     inkscape:snap-bbox-edge-midpoints="true"
     inkscape:window-width="1920"
     inkscape:window-height="1001"
     inkscape:window-x="-9"
     inkscape:window-y="-9"
     inkscape:window-maximized="1" />
  <metadata
     id="metadata5">
    <rdf:RDF>
      <cc:Work
         rdf:about="">
        <dc:format>image/svg+xml</dc:format>
        <dc:type
           rdf:resource="http://purl.org/dc/dcmitype/StillImage" />
        <dc:title></dc:title>
      </cc:Work>
    </rdf:RDF>
  </metadata>
  <g
     inkscape:label="Layer 1"
     inkscape:groupmode="layer"
     id="layer1"
     transform="translate(0,-196.45832)">
    <path
       style="opacity:1;vector-effect:none;fill:#f2f2f2;fill-opacity:1;fill-rule:evenodd;stroke:none;stroke-width:0.68740779;stroke-linecap:butt;stroke-linejoin:round;stroke-miterlimit:4;stroke-dasharray:none;stroke-dashoffset:0;stroke-opacity:1;paint-order:normal"
       d="M 0,196.45831 H 47.625 V 296.99999 H 0 Z"
       id="rect817"
       inkscape:connector-curvature="0"
       inkscape:export-filename="C:\Users\Erik\rect817.png"
       inkscape:export-xdpi="96"
       inkscape:export-ydpi="96" />
    <g
       aria-label="WAVE"
       transform="matrix(0.15484433,0,0,0.1791757,-12.881372,192.1358)"
       style="font-style:normal;font-variant:normal;font-weight:normal;font-stretch:normal;font-size:40px;line-height:1.25;font-family:Sylfaen;-inkscape-font-specification:Sylfaen;letter-spacing:0px;word-spacing:0px;fill:#000000;fill-opacity:1;stroke:none"
       id="flowRoot3805">
      <path
         d="m 187.65625,55.710797 q 0.19531,0 0.19531,0.195313 v 1.035156 q 0,0.195312 -0.19531,0.195312 l -3.04688,0.332032 q -0.11718,0 -0.15625,0.07813 -0.0391,0.07813 0,0.195312 l 7.20704,19.804688 5.07812,-13.964844 -2.08984,-5.957031 q -0.0781,-0.117188 -0.15625,-0.117188 l -3.28125,-0.371094 q -0.15625,0 -0.15625,-0.195312 V 55.90611 q 0,-0.195313 0.19531,-0.195313 h 10.29297 q 0.19531,0 0.19531,0.195313 v 1.035156 q 0,0.195312 -0.19531,0.195312 l -3.04688,0.332032 q -0.2539,0 -0.15625,0.273437 l 6.79688,19.84375 7.1289,-19.921875 q 0.11719,-0.234375 -0.21484,-0.273437 l -2.91016,-0.253907 q -0.19531,-0.01953 -0.19531,-0.195312 V 55.90611 q 0,-0.195313 0.19531,-0.195313 h 8.71094 q 0.21485,0 0.21485,0.195313 v 1.035156 q 0,0.195312 -0.21485,0.195312 l -3.35937,0.332032 q -0.11719,0 -0.15625,0.117187 l -9.4336,25.488281 q -0.0391,0.117188 -0.15625,0.117188 h -1.09375 q -0.11718,0 -0.15625,-0.117188 l -5.8789,-16.855468 -6.28907,16.855468 q -0.0781,0.117188 -0.15625,0.117188 h -0.99609 q -0.0977,-0.01953 -0.15625,-0.117188 L 180.78125,57.62486 q -0.0391,-0.117188 -0.15625,-0.117188 l -3.28125,-0.371094 q -0.17578,0 -0.17578,-0.195312 V 55.90611 q 0,-0.195313 0.21484,-0.195313 z"
         id="path177"
         inkscape:connector-curvature="0"
         style="fill:#000000" />
      <path
         d="m 231.89453,61.101422 q -0.0781,-0.117187 -0.15625,-0.117187 -0.11719,0 -0.15625,0.117187 l -3.76953,9.570313 q -0.11719,0.273437 0.17578,0.273437 h 7.22656 q 0.3125,0 0.21485,-0.273437 z m 3.88672,21.523438 q -0.19531,0 -0.19531,-0.195313 v -1.035156 q 0,-0.214844 0.19531,-0.214844 l 3.125,-0.3125 q 0.11719,0 0.15625,-0.07813 0.0391,-0.07813 0,-0.195312 l -2.96875,-7.851563 q -0.0781,-0.117187 -0.15625,-0.117187 h -8.71094 q -0.0977,0.01953 -0.15625,0.117187 l -3.16406,7.929688 q -0.0977,0.253906 0.19531,0.273437 l 3.00781,0.234375 q 0.19532,0.01953 0.19532,0.214844 v 1.035156 q 0,0.195313 -0.19532,0.195313 h -8.65234 q -0.19531,0 -0.19531,-0.195313 v -1.035156 q 0,-0.214844 0.19531,-0.214844 l 3.28125,-0.3125 q 0.0977,-0.01953 0.15625,-0.117187 l 10.17578,-25.605469 q 0.0781,-0.117188 0.15625,-0.117188 h 0.9961 q 0.0977,0.01953 0.15625,0.117188 l 9.35546,25.566406 q 0.0391,0.117188 0.17579,0.117188 l 3.18359,0.351562 q 0.17578,0 0.17578,0.214844 v 1.035156 q 0,0.195313 -0.21484,0.195313 z"
         id="path179"
         inkscape:connector-curvature="0"
         style="fill:#000000" />
      <path
         d="m 257.57812,55.710797 q 0.19532,0 0.19532,0.195313 v 1.035156 q 0,0.195312 -0.19532,0.195312 l -3.125,0.332032 q -0.11718,0 -0.15625,0.07813 -0.0391,0.07813 0,0.195312 l 7.40235,19.804688 7.63672,-19.882813 q 0.0976,-0.253906 -0.19532,-0.273437 l -3.00781,-0.253907 q -0.19531,-0.01953 -0.19531,-0.195312 V 55.90611 q 0,-0.195313 0.19531,-0.195313 h 8.69141 q 0.19531,0 0.19531,0.195313 v 1.035156 q 0,0.195312 -0.19531,0.195312 l -3.28125,0.332032 q -0.0977,0.01953 -0.15625,0.117187 l -9.96094,25.488281 q -0.0391,0.117188 -0.17578,0.117188 h -1.03516 q -0.11718,0 -0.15625,-0.117188 L 250.625,57.62486 q -0.0391,-0.117188 -0.15625,-0.117188 l -3.20313,-0.371094 q -0.17578,0 -0.17578,-0.195312 V 55.90611 q 0,-0.195313 0.21485,-0.195313 z"
         id="path181"
         inkscape:connector-curvature="0"
         style="fill:#000000" />
      <path
         d="m 296.01562,55.710797 q 0.19532,0 0.19532,0.195313 v 6.269531 q 0,0.214844 -0.19532,0.214844 h -1.48437 q -0.19531,0 -0.19531,-0.15625 l -0.80078,-4.53125 q 0,-0.15625 -0.19532,-0.15625 h -9.16015 q -0.19532,0 -0.19532,0.195312 v 9.882813 q 0,0.195312 0.19532,0.195312 h 5.50781 q 0.21484,0 0.21484,-0.15625 l 0.39063,-3.242187 q 0,-0.15625 0.19531,-0.15625 h 1.09375 q 0.19531,0 0.19531,0.195312 v 8.691406 q 0,0.195313 -0.19531,0.195313 h -1.09375 q -0.19531,0 -0.19531,-0.15625 l -0.39063,-3.4375 q 0,-0.175781 -0.21484,-0.175781 h -5.50781 q -0.19532,0 -0.19532,0.214843 V 80.59361 q 0,0.195312 0.19532,0.195312 h 9.70703 q 0.21484,0 0.21484,-0.15625 l 0.80078,-4.453125 q 0,-0.15625 0.19532,-0.15625 h 1.48437 q 0.19531,0 0.19531,0.195313 v 6.210937 q 0,0.195313 -0.19531,0.195313 h -19.6875 q -0.19531,0 -0.19531,-0.195313 v -1.035156 q 0,-0.214844 0.19531,-0.214844 l 3.39844,-0.3125 q 0.19531,0 0.19531,-0.195312 V 57.585797 q -0.0781,-0.117187 -0.19531,-0.117187 l -3.39844,-0.332032 q -0.19531,0 -0.19531,-0.195312 V 55.90611 q 0,-0.195313 0.19531,-0.195313 z"
         id="path183"
         inkscape:connector-curvature="0"
         style="fill:#000000" />
    </g>
    <rect
       style="fill:#000000;fill-opacity:0;stroke-width:0;stroke-miterlimit:4;stroke-dasharray:none"
       id="rect3816"
       width="3.4745038"
       height="62.674702"
       x="-25.843212"
       y="220.96181" />
    <rect
       style="fill:#000000;fill-opacity:0;stroke-width:0;stroke-miterlimit:4;stroke-dasharray:none"
       id="rect3818"
       width="2.4054255"
       height="28.731474"
       x="-21.700525"
       y="237.66615" />
    <rect
       style="opacity:1;fill:#000000;fill-opacity:1;stroke-width:0;stroke-miterlimit:4;stroke-dasharray:none"
       id="rect3824"
       width="1.3229166"
       height="47.444862"
       x="-29.104174"
       y="212.54686" />
    <rect
       style="opacity:1;fill:#000000;fill-opacity:1;stroke-width:0;stroke-miterlimit:4;stroke-dasharray:none"
       id="rect3824-6"
       width="13.229167"
       height="0.26458332"
       x="-29.104174"
       y="217.62498" />
    <circle
       style="opacity:1;fill:#000000;fill-opacity:1;stroke-width:0;stroke-miterlimit:4;stroke-dasharray:none"
       id="path4654"
       cx="-28.442713"
       cy="212.8602"
       r="1.3229166" />
    <rect
       style="opacity:1;fill:#000000;fill-opacity:1;stroke-width:0;stroke-miterlimit:4;stroke-dasharray:none"
       id="rect3824-6-3"
       width="13.229167"
       height="0.26458332"
       x="-29.104174"
       y="235.88124" />
    <path
       sodipodi:type="star"
       style="opacity:1;fill:#000000;fill-opacity:1;stroke:none;stroke-width:0;stroke-miterlimit:4;stroke-dasharray:none"
       id="path4697"
       sodipodi:sides="3"
       sodipodi:cx="11.939996"
       sodipodi:cy="262.1633"
       sodipodi:r1="1.3229165"
       sodipodi:r2="0.66145825"
       sodipodi:arg1="0"
       sodipodi:arg2="1.0471976"
       inkscape:flatsided="true"
       inkscape:rounded="0"
       inkscape:randomized="0"
       d="m 13.262912,262.1633 -1.984374,1.14568 v -2.29136 z"
       transform="matrix(0,3.7302215,-6.2373427,0,1613.242,217.88687)"
       inkscape:transform-center-y="1.2336869"
       inkscape:transform-center-x="3.6956466e-06" />
    <path
       sodipodi:type="star"
       style="opacity:1;fill:#000000;fill-opacity:1;stroke:none;stroke-width:0;stroke-miterlimit:4;stroke-dasharray:none"
       id="path4697-0"
       sodipodi:sides="3"
       sodipodi:cx="11.939996"
       sodipodi:cy="262.1633"
       sodipodi:r1="1.3229165"
       sodipodi:r2="0.66145825"
       sodipodi:arg1="0"
       sodipodi:arg2="1.0471976"
       inkscape:flatsided="true"
       inkscape:rounded="0"
       inkscape:randomized="0"
       d="m 13.262912,262.1633 -1.984374,1.14568 v -2.29136 z"
       transform="matrix(0,2.9837237,-5.0826391,0,1310.5211,226.30627)"
       inkscape:transform-center-y="0.9867968"
       inkscape:transform-center-x="-2.5137176e-06" />
    <rect
       style="opacity:1;fill:#000000;fill-opacity:1;stroke-width:0;stroke-miterlimit:4;stroke-dasharray:none"
       id="rect3824-8"
       width="2.1166666"
       height="14.52753"
       x="-23.018747"
       y="265.87915" />
    <rect
       style="opacity:1;fill:#000000;fill-opacity:1;stroke-width:0;stroke-miterlimit:4;stroke-dasharray:none"
       id="rect3824-6-3-7"
       width="13.229167"
       height="0.26458332"
       x="-27.780579"
       y="280.22604" />
    <rect
       style="opacity:1;fill:#000000;fill-opacity:1;stroke:none;stroke-width:0;stroke-miterlimit:4;stroke-dasharray:none"
       id="rect6178"
       width="5.8653464"
       height="7.7485118"
       x="-17.629845"
       y="277.67578" />
    <rect
       style="opacity:1;fill:#000000;fill-opacity:1;stroke:none;stroke-width:0;stroke-miterlimit:4;stroke-dasharray:none"
       id="rect6178-2"
       width="5.8653469"
       height="7.7485123"
       x="-32.790306"
       y="277.73676" />
    <rect
       style="opacity:1;fill:#000000;fill-opacity:1;stroke:none;stroke-width:0;stroke-miterlimit:4;stroke-dasharray:none"
       id="rect6178-3"
       width="5.6648946"
       height="7.7485123"
       x="10.583333"
       y="267.28528" />
    <rect
       style="opacity:1;fill:#000000;fill-opacity:1;stroke:none;stroke-width:0;stroke-miterlimit:4;stroke-dasharray:none"
       id="rect6201"
       width="9.880147"
       height="1.0022533"
       x="-27.446831"
       y="259.21475" />
    <g
       aria-label="AN."
       transform="matrix(0.05371816,0,0,0.04093142,12.624395,264.65952)"
       style="font-style:normal;font-weight:normal;font-size:40px;line-height:1.25;font-family:sans-serif;letter-spacing:0px;word-spacing:0px;fill:#000000;fill-opacity:1;stroke:none"
       id="flowRoot6203">
      <path
         d="m 114.93945,216.62305 -5.35156,14.51172 h 10.72266 z m -2.22656,-3.88672 h 4.47266 l 11.11328,29.16015 h -4.10156 l -2.65625,-7.48046 h -13.14454 l -2.65625,7.48046 h -4.16015 z"
         id="path250"
         inkscape:connector-curvature="0"
         style="fill:#000000" />
      <path
         d="m 132.53711,212.73633 h 5.3125 l 12.92969,24.39453 v -24.39453 h 3.82812 v 29.16015 h -5.3125 l -12.92969,-24.39453 v 24.39453 h -3.82812 z"
         id="path252"
         inkscape:connector-curvature="0"
         style="fill:#000000" />
      <path
         d="m 162.81055,236.93555 h 4.12109 v 4.96093 h -4.12109 z"
         id="path254"
         inkscape:connector-curvature="0"
         style="fill:#000000" />
    </g>
    <g
       aria-label="DGT."
       transform="matrix(0.05371816,0,0,0.04093142,12.357741,258.9931)"
       style="font-style:normal;font-weight:normal;font-size:40px;line-height:1.25;font-family:sans-serif;letter-spacing:0px;word-spacing:0px;fill:#000000;fill-opacity:1;stroke:none"
       id="flowRoot6203-6">
      <path
         d="m 109.13867,215.97852 v 22.67578 h 4.76563 q 6.03515,0 8.82812,-2.73438 2.8125,-2.73437 2.8125,-8.63281 0,-5.85938 -2.8125,-8.57422 -2.79297,-2.73437 -8.82812,-2.73437 z m -3.94531,-3.24219 h 8.10547 q 8.47656,0 12.4414,3.53515 3.96485,3.51563 3.96485,11.01563 0,7.53906 -3.98438,11.07422 -3.98437,3.53515 -12.42187,3.53515 h -8.10547 z"
         id="path230"
         inkscape:connector-curvature="0"
         style="fill:#000000" />
      <path
         d="m 155.85742,237.73633 v -7.83203 h -6.44531 v -3.24219 h 10.35156 v 12.51953 q -2.28515,1.62109 -5.03906,2.46094 -2.75391,0.82031 -5.87891,0.82031 -6.83593,0 -10.70312,-3.98437 -3.84766,-4.00391 -3.84766,-11.13282 0,-7.14843 3.84766,-11.13281 3.86719,-4.00391 10.70312,-4.00391 2.85157,0 5.41016,0.70313 2.57812,0.70312 4.74609,2.07031 v 4.19922 q -2.1875,-1.85547 -4.64843,-2.79297 -2.46094,-0.9375 -5.17579,-0.9375 -5.35156,0 -8.04687,2.98828 -2.67578,2.98828 -2.67578,8.90625 0,5.89844 2.67578,8.88672 2.69531,2.98828 8.04687,2.98828 2.08985,0 3.73047,-0.35156 1.64063,-0.37109 2.94922,-1.13281 z"
         id="path232"
         inkscape:connector-curvature="0"
         style="fill:#000000" />
      <path
         d="m 161.54102,212.73633 h 24.66796 v 3.32031 h -10.35156 v 25.83984 h -3.96484 v -25.83984 h -10.35156 z"
         id="path234"
         inkscape:connector-curvature="0"
         style="fill:#000000" />
      <path
         d="m 185.62305,236.93555 h 4.12109 v 4.96093 h -4.12109 z"
         id="path236"
         inkscape:connector-curvature="0"
         style="fill:#000000" />
    </g>
    <g
       aria-label="DIST."
       transform="matrix(0.05371816,0,0,0.04093142,5.0150984,255.99966)"
       style="font-style:normal;font-weight:normal;font-size:40px;line-height:1.25;font-family:sans-serif;letter-spacing:0px;word-spacing:0px;fill:#000000;fill-opacity:1;stroke:none"
       id="flowRoot6203-6-2">
      <path
         d="m 109.13867,215.97852 v 22.67578 h 4.76563 q 6.03515,0 8.82812,-2.73438 2.8125,-2.73437 2.8125,-8.63281 0,-5.85938 -2.8125,-8.57422 -2.79297,-2.73437 -8.82812,-2.73437 z m -3.94531,-3.24219 h 8.10547 q 8.47656,0 12.4414,3.53515 3.96485,3.51563 3.96485,11.01563 0,7.53906 -3.98438,11.07422 -3.98437,3.53515 -12.42187,3.53515 h -8.10547 z"
         id="path239"
         inkscape:connector-curvature="0"
         style="fill:#000000" />
      <path
         d="m 135.97461,212.73633 h 3.94531 v 29.16015 h -3.94531 z"
         id="path241"
         inkscape:connector-curvature="0"
         style="fill:#000000" />
      <path
         d="m 165.25195,213.69336 v 3.84766 q -2.24609,-1.07422 -4.23828,-1.60157 -1.99219,-0.52734 -3.84765,-0.52734 -3.22266,0 -4.98047,1.25 -1.73828,1.25 -1.73828,3.55469 0,1.93359 1.15234,2.92968 1.17187,0.97657 4.41406,1.58204 l 2.38281,0.48828 q 4.41407,0.83984 6.50391,2.96875 2.10938,2.10937 2.10938,5.66406 0,4.23828 -2.85157,6.42578 -2.83203,2.1875 -8.32031,2.1875 -2.07031,0 -4.41406,-0.46875 -2.32422,-0.46875 -4.82422,-1.38672 v -4.0625 q 2.40234,1.34766 4.70703,2.03125 2.30469,0.6836 4.53125,0.6836 3.37891,0 5.21484,-1.32813 1.83594,-1.32812 1.83594,-3.78906 0,-2.14844 -1.32812,-3.35938 -1.3086,-1.21093 -4.31641,-1.8164 l -2.40234,-0.46875 q -4.41407,-0.87891 -6.38672,-2.75391 -1.97266,-1.875 -1.97266,-5.21484 0,-3.86719 2.71485,-6.09375 2.73437,-2.22657 7.51953,-2.22657 2.05078,0 4.17968,0.3711 2.12891,0.37109 4.35547,1.11328 z"
         id="path243"
         inkscape:connector-curvature="0"
         style="fill:#000000" />
      <path
         d="m 169.11914,212.73633 h 24.66797 v 3.32031 h -10.35156 v 25.83984 h -3.96485 v -25.83984 h -10.35156 z"
         id="path245"
         inkscape:connector-curvature="0"
         style="fill:#000000" />
      <path
         d="m 193.20117,236.93555 h 4.1211 v 4.96093 h -4.1211 z"
         id="path247"
         inkscape:connector-curvature="0"
         style="fill:#000000" />
    </g>
    <g
       aria-label="CV"
       transform="matrix(0.05371816,0,0,0.0851025,-20.881997,194.26268)"
       style="font-style:normal;font-weight:normal;font-size:40px;line-height:1.25;font-family:sans-serif;letter-spacing:0px;word-spacing:0px;fill:#000000;fill-opacity:1;stroke:none"
       id="flowRoot6203-6-2-8">
      <path
         d="m 127.0293,214.98242 v 4.16016 q -1.99219,-1.85547 -4.25782,-2.77344 -2.24609,-0.91797 -4.78515,-0.91797 -5,0 -7.65625,3.06641 -2.65625,3.04687 -2.65625,8.82812 0,5.76172 2.65625,8.82813 2.65625,3.04687 7.65625,3.04687 2.53906,0 4.78515,-0.91797 2.26563,-0.91796 4.25782,-2.77343 v 4.12109 q -2.07032,1.40625 -4.39453,2.10938 -2.30469,0.70312 -4.88282,0.70312 -6.62109,0 -10.42968,-4.04297 -3.8086,-4.0625 -3.8086,-11.07422 0,-7.03125 3.8086,-11.07422 3.80859,-4.0625 10.42968,-4.0625 2.61719,0 4.92188,0.70313 2.32422,0.68359 4.35547,2.07031 z"
         id="path225"
         inkscape:connector-curvature="0"
         style="fill:#000000" />
      <path
         d="m 140.68164,241.89648 -11.13281,-29.16015 h 4.12109 l 9.23828,24.55078 9.25782,-24.55078 h 4.10156 l -11.11328,29.16015 z"
         id="path227"
         inkscape:connector-curvature="0"
         style="fill:#000000" />
    </g>
    <g
       aria-label="CV"
       transform="matrix(0.05015426,0,0,0.08745426,33.172932,217.58724)"
       style="font-style:normal;font-weight:normal;font-size:40px;line-height:1.25;font-family:sans-serif;letter-spacing:0px;word-spacing:0px;fill:#000000;fill-opacity:1;stroke:none"
       id="flowRoot6203-6-2-8-7">
      <path
         d="m 127.0293,214.98242 v 4.16016 q -1.99219,-1.85547 -4.25782,-2.77344 -2.24609,-0.91797 -4.78515,-0.91797 -5,0 -7.65625,3.06641 -2.65625,3.04687 -2.65625,8.82812 0,5.76172 2.65625,8.82813 2.65625,3.04687 7.65625,3.04687 2.53906,0 4.78515,-0.91797 2.26563,-0.91796 4.25782,-2.77343 v 4.12109 q -2.07032,1.40625 -4.39453,2.10938 -2.30469,0.70312 -4.88282,0.70312 -6.62109,0 -10.42968,-4.04297 -3.8086,-4.0625 -3.8086,-11.07422 0,-7.03125 3.8086,-11.07422 3.80859,-4.0625 10.42968,-4.0625 2.61719,0 4.92188,0.70313 2.32422,0.68359 4.35547,2.07031 z"
         id="path220"
         inkscape:connector-curvature="0"
         style="fill:#000000" />
      <path
         d="m 140.68164,241.89648 -11.13281,-29.16015 h 4.12109 l 9.23828,24.55078 9.25782,-24.55078 h 4.10156 l -11.11328,29.16015 z"
         id="path222"
         inkscape:connector-curvature="0"
         style="fill:#000000" />
    </g>
    <g
       aria-label="OUT"
       transform="matrix(0.05371816,0,0,0.0851025,31.481103,261.81371)"
       style="font-style:normal;font-weight:normal;font-size:40px;line-height:1.25;font-family:sans-serif;letter-spacing:0px;word-spacing:0px;fill:#000000;fill-opacity:1;stroke:none"
       id="flowRoot6203-6-2-8-72">
      <path
         d="m 117.0293,215.41211 q -4.29688,0 -6.83594,3.20312 -2.51953,3.20313 -2.51953,8.73047 0,5.50782 2.51953,8.71094 2.53906,3.20313 6.83594,3.20313 4.29687,0 6.79687,-3.20313 2.51953,-3.20312 2.51953,-8.71094 0,-5.52734 -2.51953,-8.73047 -2.5,-3.20312 -6.79687,-3.20312 z m 0,-3.20313 q 6.13281,0 9.80468,4.1211 3.67188,4.10156 3.67188,11.01562 0,6.89453 -3.67188,11.01563 -3.67187,4.10156 -9.80468,4.10156 -6.15235,0 -9.84375,-4.10156 -3.67188,-4.10156 -3.67188,-11.01563 0,-6.91406 3.67188,-11.01562 3.6914,-4.1211 9.84375,-4.1211 z"
         id="path270"
         inkscape:connector-curvature="0"
         style="fill:#000000" />
      <path
         d="m 136.22852,212.73633 h 3.96484 v 17.71484 q 0,4.6875 1.69922,6.75781 1.69922,2.05079 5.50781,2.05079 3.78906,0 5.48828,-2.05079 1.69922,-2.07031 1.69922,-6.75781 v -17.71484 h 3.96484 v 18.20312 q 0,5.70313 -2.83203,8.61328 -2.8125,2.91016 -8.32031,2.91016 -5.52734,0 -8.35937,-2.91016 -2.8125,-2.91015 -2.8125,-8.61328 z"
         id="path272"
         inkscape:connector-curvature="0"
         style="fill:#000000" />
      <path
         d="m 161.93164,212.73633 h 24.66797 v 3.32031 h -10.35156 v 25.83984 h -3.96485 v -25.83984 h -10.35156 z"
         id="path274"
         inkscape:connector-curvature="0"
         style="fill:#000000" />
    </g>
    <g
       aria-label="1V/OCT"
       transform="matrix(0.05371816,0,0,0.0851025,3.5844425,261.5461)"
       style="font-style:normal;font-weight:normal;font-size:40px;line-height:1.25;font-family:sans-serif;letter-spacing:0px;word-spacing:0px;fill:#000000;fill-opacity:1;stroke:none"
       id="flowRoot6203-6-2-8-72-8">
      <path
         d="m 106.22852,238.57617 h 6.44531 v -22.24609 l -7.01172,1.40625 v -3.59375 l 6.97266,-1.40625 h 3.94531 v 25.83984 h 6.44531 v 3.32031 h -16.79687 z"
         id="path257"
         inkscape:connector-curvature="0"
         style="fill:#000000" />
      <path
         d="m 138.18164,241.89648 -11.13281,-29.16015 h 4.12109 l 9.23828,24.55078 9.25782,-24.55078 h 4.10156 l -11.11328,29.16015 z"
         id="path259"
         inkscape:connector-curvature="0"
         style="fill:#000000" />
      <path
         d="m 164.23633,212.73633 h 3.32031 l -10.15625,32.87109 h -3.32031 z"
         id="path261"
         inkscape:connector-curvature="0"
         style="fill:#000000" />
      <path
         d="m 183.35742,215.41211 q -4.29687,0 -6.83594,3.20312 -2.51953,3.20313 -2.51953,8.73047 0,5.50782 2.51953,8.71094 2.53907,3.20313 6.83594,3.20313 4.29688,0 6.79688,-3.20313 2.51953,-3.20312 2.51953,-8.71094 0,-5.52734 -2.51953,-8.73047 -2.5,-3.20312 -6.79688,-3.20312 z m 0,-3.20313 q 6.13281,0 9.80469,4.1211 3.67187,4.10156 3.67187,11.01562 0,6.89453 -3.67187,11.01563 -3.67188,4.10156 -9.80469,4.10156 -6.15234,0 -9.84375,-4.10156 -3.67187,-4.10156 -3.67187,-11.01563 0,-6.91406 3.67187,-11.01562 3.69141,-4.1211 9.84375,-4.1211 z"
         id="path263"
         inkscape:connector-curvature="0"
         style="fill:#000000" />
      <path
         d="m 224.8418,214.98242 v 4.16016 q -1.99219,-1.85547 -4.25782,-2.77344 -2.24609,-0.91797 -4.78515,-0.91797 -5,0 -7.65625,3.06641 -2.65625,3.04687 -2.65625,8.82812 0,5.76172 2.65625,8.82813 2.65625,3.04687 7.65625,3.04687 2.53906,0 4.78515,-0.91797 2.26563,-0.91796 4.25782,-2.77343 v 4.12109 q -2.07032,1.40625 -4.39453,2.10938 -2.30469,0.70312 -4.88282,0.70312 -6.62109,0 -10.42968,-4.04297 -3.8086,-4.0625 -3.8086,-11.07422 0,-7.03125 3.8086,-11.07422 3.80859,-4.0625 10.42968,-4.0625 2.61719,0 4.92188,0.70313 2.32422,0.68359 4.35547,2.07031 z"
         id="path265"
         inkscape:connector-curvature="0"
         style="fill:#000000" />
      <path
         d="m 226.93164,212.73633 h 24.66797 v 3.32031 h -10.35156 v 25.83984 h -3.96485 v -25.83984 h -10.35156 z"
         id="path267"
         inkscape:connector-curvature="0"
         style="fill:#000000" />
    </g>
    <g
       aria-label="SHAPE"
       transform="matrix(0.04308029,-0.03007147,0.0417195,0.05723649,3.2904554,210.67073)"
       style="font-style:normal;font-weight:normal;font-size:40px;line-height:1.25;font-family:sans-serif;letter-spacing:0px;word-spacing:0px;fill:#000000;fill-opacity:1;stroke:none"
       id="flowRoot6203-6-2-8-6">
      <path
         d="m 122.67383,213.69336 v 3.84766 q -2.2461,-1.07422 -4.23828,-1.60157 -1.99219,-0.52734 -3.84766,-0.52734 -3.22266,0 -4.98047,1.25 -1.73828,1.25 -1.73828,3.55469 0,1.93359 1.15234,2.92968 1.17188,0.97657 4.41407,1.58204 l 2.38281,0.48828 q 4.41406,0.83984 6.50391,2.96875 2.10937,2.10937 2.10937,5.66406 0,4.23828 -2.85156,6.42578 -2.83203,2.1875 -8.32031,2.1875 -2.07032,0 -4.41407,-0.46875 -2.32422,-0.46875 -4.82422,-1.38672 v -4.0625 q 2.40235,1.34766 4.70704,2.03125 2.30468,0.6836 4.53125,0.6836 3.3789,0 5.21484,-1.32813 1.83594,-1.32812 1.83594,-3.78906 0,-2.14844 -1.32813,-3.35938 -1.30859,-1.21093 -4.3164,-1.8164 l -2.40235,-0.46875 q -4.41406,-0.87891 -6.38672,-2.75391 -1.97265,-1.875 -1.97265,-5.21484 0,-3.86719 2.71484,-6.09375 2.73438,-2.22657 7.51953,-2.22657 2.05078,0 4.17969,0.3711 2.12891,0.37109 4.35547,1.11328 z"
         id="path186"
         inkscape:connector-curvature="0"
         style="fill:#000000" />
      <path
         d="m 130.58398,212.73633 h 3.94532 v 11.95312 h 14.33593 v -11.95312 h 3.94532 v 29.16015 h -3.94532 V 228.00977 H 134.5293 v 13.88671 h -3.94532 z"
         id="path188"
         inkscape:connector-curvature="0"
         style="fill:#000000" />
      <path
         d="m 170.4082,216.62305 -5.35156,14.51172 h 10.72266 z m -2.22656,-3.88672 h 4.47266 l 11.11328,29.16015 h -4.10156 l -2.65625,-7.48046 h -13.14454 l -2.65625,7.48046 h -4.16015 z"
         id="path190"
         inkscape:connector-curvature="0"
         style="fill:#000000" />
      <path
         d="m 191.95117,215.97852 v 10.95703 h 4.96094 q 2.75391,0 4.25781,-1.42578 1.50391,-1.42579 1.50391,-4.0625 0,-2.61719 -1.50391,-4.04297 -1.5039,-1.42578 -4.25781,-1.42578 z m -3.94531,-3.24219 h 8.90625 q 4.90234,0 7.40234,2.22656 2.51953,2.20703 2.51953,6.48438 0,4.3164 -2.51953,6.52343 -2.5,2.20703 -7.40234,2.20703 h -4.96094 v 11.71875 h -3.94531 z"
         id="path192"
         inkscape:connector-curvature="0"
         style="fill:#000000" />
      <path
         d="m 212.14648,212.73633 h 18.4375 v 3.32031 H 216.0918 v 8.63281 h 13.88672 v 3.32032 H 216.0918 v 10.5664 h 14.84375 v 3.32031 h -18.78907 z"
         id="path194"
         inkscape:connector-curvature="0"
         style="fill:#000000" />
    </g>
    <g
       aria-label="DIST. AMOUNT"
       transform="matrix(0.04192771,-0.00835888,0.0228545,0.06273859,8.4719256,232.34268)"
       style="font-style:normal;font-weight:normal;font-size:40px;line-height:1.25;font-family:sans-serif;letter-spacing:0px;word-spacing:0px;fill:#000000;fill-opacity:1;stroke:none"
       id="flowRoot6203-6-2-8-6-5">
      <path
         d="m 109.13867,215.97852 v 22.67578 h 4.76563 q 6.03515,0 8.82812,-2.73438 2.8125,-2.73437 2.8125,-8.63281 0,-5.85938 -2.8125,-8.57422 -2.79297,-2.73437 -8.82812,-2.73437 z m -3.94531,-3.24219 h 8.10547 q 8.47656,0 12.4414,3.53515 3.96485,3.51563 3.96485,11.01563 0,7.53906 -3.98438,11.07422 -3.98437,3.53515 -12.42187,3.53515 h -8.10547 z"
         id="path197"
         inkscape:connector-curvature="0"
         style="fill:#000000" />
      <path
         d="m 135.97461,212.73633 h 3.94531 v 29.16015 h -3.94531 z"
         id="path199"
         inkscape:connector-curvature="0"
         style="fill:#000000" />
      <path
         d="m 165.25195,213.69336 v 3.84766 q -2.24609,-1.07422 -4.23828,-1.60157 -1.99219,-0.52734 -3.84765,-0.52734 -3.22266,0 -4.98047,1.25 -1.73828,1.25 -1.73828,3.55469 0,1.93359 1.15234,2.92968 1.17187,0.97657 4.41406,1.58204 l 2.38281,0.48828 q 4.41407,0.83984 6.50391,2.96875 2.10938,2.10937 2.10938,5.66406 0,4.23828 -2.85157,6.42578 -2.83203,2.1875 -8.32031,2.1875 -2.07031,0 -4.41406,-0.46875 -2.32422,-0.46875 -4.82422,-1.38672 v -4.0625 q 2.40234,1.34766 4.70703,2.03125 2.30469,0.6836 4.53125,0.6836 3.37891,0 5.21484,-1.32813 1.83594,-1.32812 1.83594,-3.78906 0,-2.14844 -1.32812,-3.35938 -1.3086,-1.21093 -4.31641,-1.8164 l -2.40234,-0.46875 q -4.41407,-0.87891 -6.38672,-2.75391 -1.97266,-1.875 -1.97266,-5.21484 0,-3.86719 2.71485,-6.09375 2.73437,-2.22657 7.51953,-2.22657 2.05078,0 4.17968,0.3711 2.12891,0.37109 4.35547,1.11328 z"
         id="path201"
         inkscape:connector-curvature="0"
         style="fill:#000000" />
      <path
         d="m 169.11914,212.73633 h 24.66797 v 3.32031 h -10.35156 v 25.83984 h -3.96485 v -25.83984 h -10.35156 z"
         id="path203"
         inkscape:connector-curvature="0"
         style="fill:#000000" />
      <path
         d="m 193.20117,236.93555 h 4.1211 v 4.96093 h -4.1211 z"
         id="path205"
         inkscape:connector-curvature="0"
         style="fill:#000000" />
      <path
         d="m 228.06445,216.62305 -5.35156,14.51172 h 10.72266 z m -2.22656,-3.88672 h 4.47266 l 11.11328,29.16015 h -4.10156 l -2.65625,-7.48046 h -13.14454 l -2.65625,7.48046 h -4.16015 z"
         id="path207"
         inkscape:connector-curvature="0"
         style="fill:#000000" />
      <path
         d="m 245.66211,212.73633 h 5.87891 l 7.4414,19.84375 7.48047,-19.84375 h 5.87891 v 29.16015 h -3.84766 v -25.60546 l -7.51953,20 h -3.96484 l -7.51954,-20 v 25.60546 h -3.82812 z"
         id="path209"
         inkscape:connector-curvature="0"
         style="fill:#000000" />
      <path
         d="m 292.0293,215.41211 q -4.29688,0 -6.83594,3.20312 -2.51953,3.20313 -2.51953,8.73047 0,5.50782 2.51953,8.71094 2.53906,3.20313 6.83594,3.20313 4.29687,0 6.79687,-3.20313 2.51953,-3.20312 2.51953,-8.71094 0,-5.52734 -2.51953,-8.73047 -2.5,-3.20312 -6.79687,-3.20312 z m 0,-3.20313 q 6.13281,0 9.80468,4.1211 3.67188,4.10156 3.67188,11.01562 0,6.89453 -3.67188,11.01563 -3.67187,4.10156 -9.80468,4.10156 -6.15235,0 -9.84375,-4.10156 -3.67188,-4.10156 -3.67188,-11.01563 0,-6.91406 3.67188,-11.01562 3.6914,-4.1211 9.84375,-4.1211 z"
         id="path211"
         inkscape:connector-curvature="0"
         style="fill:#000000" />
      <path
         d="m 311.22852,212.73633 h 3.96484 v 17.71484 q 0,4.6875 1.69922,6.75781 1.69922,2.05079 5.50781,2.05079 3.78906,0 5.48828,-2.05079 1.69922,-2.07031 1.69922,-6.75781 v -17.71484 h 3.96484 v 18.20312 q 0,5.70313 -2.83203,8.61328 -2.8125,2.91016 -8.32031,2.91016 -5.52734,0 -8.35937,-2.91016 -2.8125,-2.91015 -2.8125,-8.61328 z"
         id="path213"
         inkscape:connector-curvature="0"
         style="fill:#000000" />
      <path
         d="m 340.97461,212.73633 h 5.3125 l 12.92969,24.39453 v -24.39453 h 3.82812 v 29.16015 h -5.3125 l -12.92969,-24.39453 v 24.39453 h -3.82812 z"
         id="path215"
         inkscape:connector-curvature="0"
         style="fill:#000000" />
      <path
         d="m 366.85352,212.73633 h 24.66796 v 3.32031 h -10.35156 v 25.83984 h -3.96484 v -25.83984 h -10.35156 z"
         id="path217"
         inkscape:connector-curvature="0"
         style="fill:#000000" />
    </g>
    <path
       style="fill:#000000;fill-rule:nonzero;stroke:none;stroke-width:0.26458332px;stroke-linecap:butt;stroke-linejoin:miter;stroke-opacity:1"
       d="M -5.0119463,241.68738 C -2.2694105,238.38481 5.958197,228.4771 8.7007329,225.17454 Z M 8.4971835,225.0055 c -2.7425358,3.30257 -10.9701433,13.21028 -13.7126792,16.51284 z"
       id="path6403"
       inkscape:connector-curvature="0"
       inkscape:path-effect="#path-effect6405"
       inkscape:original-d="m 8.5989582,225.09002 3.4281698,-4.12821 1.296533,3.27776 4.819196,0.66146 z"
       transform="translate(-24.111333,-4.0436965)" />
    <path
       style="fill:#000000;fill-rule:nonzero;stroke:none;stroke-width:0.26458332px;stroke-linecap:butt;stroke-linejoin:miter;stroke-opacity:1"
       d="m 8.8072311,224.12733 c 0.074587,-0.0113 0.3052715,6.8e-4 0.3798583,-0.0106 1.1309146,-0.171 2.7677956,-0.42086 4.6841216,-0.71427 -0.379328,0.97896 -0.80088,2.06817 -1.236722,3.1947 0,0 -0.0099,0.0255 -0.0099,0.0255 0,0 0.02438,0.0117 0.02438,0.0117 0.410392,0.19598 0.833461,0.39788 1.246165,0.59494 -1.004771,0.55584 -1.980316,1.09538 -2.861811,1.58245 -0.778437,-0.64936 -1.4506017,-1.20633 -1.903079,-1.58361 0.4524773,0.37728 1.121201,0.93838 1.902,1.59474 0.900849,-0.48586 1.890806,-1.0246 2.910142,-1.57919 1e-6,-1e-5 0.02985,-0.0163 0.02986,-0.0163 0,0 -0.03061,-0.0152 -0.03061,-0.0152 -0.41096,-0.20457 -0.832796,-0.41467 -1.242489,-0.6186 0.449594,-1.13964 0.883736,-2.2405 1.272217,-3.22677 0,0 0.02551,-0.0648 0.02551,-0.0648 0,0 -0.06903,0.0103 -0.06903,0.0103 -1.946997,0.29069 -3.610222,0.53978 -4.7546264,0.71282 -0.074587,0.0113 -0.2914236,0.0909 -0.3660105,0.10218 z"
       id="path146"
       inkscape:connector-curvature="0"
       inkscape:path-effect="#path-effect148"
       inkscape:original-d="m 8.8072311,224.12733 5.1266559,-0.77519 -1.271993,3.25573 1.271993,0.62023 -2.89728,1.58954 -1.906333,-1.58954"
       transform="matrix(-5.508007,0,0,-6.8262717,87.33128,1774.0374)"
       sodipodi:nodetypes="cccccc" />
    <path
       style="fill:#000000;fill-rule:nonzero;stroke:none;stroke-width:0.26458332px;stroke-linecap:butt;stroke-linejoin:miter;stroke-opacity:1"
       d="m 8.4099702,224.71008 c 10e-7,0 0.061564,0.11709 0.061565,0.11709 0.6460764,-0.33969 1.5236004,-0.80595 2.5489396,-1.35304 0.482519,-0.25974 1.017493,-0.54885 1.582468,-0.85475 0.07059,-0.0392 0.119909,-0.0671 0.162329,-0.0879 0.03993,-0.0195 0.07158,-0.0316 0.105635,-0.039 0.03471,-0.007 0.07554,-0.0107 0.13636,-0.01 0.06037,9.7e-4 0.136442,0.006 0.241574,0.0137 0.206866,0.0151 0.517831,0.0397 0.824273,0.0775 0.153003,0.0189 0.304129,0.0409 0.440336,0.0666 0.137092,0.0258 0.256927,0.0549 0.348162,0.0874 0.09163,0.0326 0.151557,0.0677 0.190366,0.10501 0.01942,0.0187 0.03389,0.0382 0.04446,0.0589 0.01067,0.0209 0.01776,0.0437 0.02154,0.0692 0.0078,0.0522 0.0014,0.11389 -0.01528,0.18791 -0.01692,0.0749 -0.04388,0.15985 -0.07429,0.25481 -0.06472,0.2021 -0.138778,0.43245 -0.150482,0.63837 -0.0061,0.1073 0.0051,0.20489 0.04201,0.28568 0.01907,0.0418 0.0448,0.0786 0.07789,0.10966 0.03397,0.0319 0.07533,0.0575 0.124462,0.0764 0.05049,0.0194 0.109221,0.0318 0.173852,0.0388 0.0669,0.007 0.140709,0.009 0.219131,0.006 0.166124,-0.006 0.35644,-0.0326 0.550494,-0.0677 0.434753,-0.0786 1.00275,-0.22576 1.368379,-0.31819 -0.369942,0.0935 -0.930076,0.23597 -1.369667,0.31086 -0.194357,0.0331 -0.384331,0.0569 -0.549641,0.0605 -0.078,0.002 -0.150911,-0.001 -0.216522,-0.01 -0.06347,-0.008 -0.119963,-0.0217 -0.167549,-0.0416 -0.04615,-0.0193 -0.08381,-0.0445 -0.113924,-0.0748 -0.0293,-0.0295 -0.05154,-0.064 -0.06759,-0.10286 -0.0311,-0.0753 -0.03885,-0.16692 -0.0296,-0.26986 0.01782,-0.19819 0.09627,-0.4211 0.168416,-0.62111 0.03347,-0.0928 0.06511,-0.17968 0.08652,-0.257 0.02104,-0.076 0.03392,-0.14824 0.02836,-0.21548 -0.0028,-0.0336 -0.01018,-0.0663 -0.02362,-0.0979 -0.01338,-0.0314 -0.0324,-0.0608 -0.05765,-0.0883 -0.04986,-0.0542 -0.122764,-0.0996 -0.221543,-0.13917 -0.09798,-0.0392 -0.223611,-0.0736 -0.362707,-0.10381 -0.138887,-0.0302 -0.292247,-0.0566 -0.446457,-0.0796 -0.30847,-0.046 -0.622126,-0.0788 -0.827867,-0.10163 -0.10333,-0.0115 -0.183153,-0.0208 -0.247763,-0.0258 -0.06588,-0.005 -0.120164,-0.006 -0.172571,2.5e-4 -0.05394,0.007 -0.102059,0.0206 -0.154127,0.0415 -0.05146,0.0206 -0.10948,0.049 -0.179501,0.0838 -0.572266,0.29203 -1.113692,0.56887 -1.601195,0.81913 -1.0319244,0.53457 -1.9134675,0.99318 -2.5595439,1.33287 -10e-7,0 0.06156,0.11709 0.061559,0.11709 z"
       id="path150-7"
       inkscape:connector-curvature="0"
       inkscape:path-effect="#path-effect152;#path-effect154"
       inkscape:original-d="m 8.4099702,224.71008 c 0.9078095,-0.4773 1.8161198,-0.95486 2.7232518,-1.43181 0.56912,-0.29923 1.138419,-0.59855 1.707231,-0.89762 2.65e-4,-1.4e-4 2.65e-4,-1.4e-4 0,0 0.831057,0.0763 1.661235,0.1526 2.491465,0.2291 -0.07164,0.21116 -0.143599,0.42261 -0.215721,0.6339 -0.187645,0.55194 -0.37584,1.10487 -0.564114,1.65738 0.960807,-0.24296 1.921775,-0.48589 2.882068,-0.72859"
       transform="matrix(1,0,0,1.9594699,-35.607664,-198.05567)"
       sodipodi:nodetypes="cczcsccc" />
    <path
       style="fill:#000000;fill-rule:nonzero;stroke:none;stroke-width:0.26458332px;stroke-linecap:butt;stroke-linejoin:miter;stroke-opacity:1"
       d="m 8.8072527,224.12733 c 0.074587,-0.0113 0.3052702,6.8e-4 0.3798568,-0.0106 1.1309095,-0.171 2.7677845,-0.42086 4.6841015,-0.71427 -0.379328,0.97896 -0.80088,2.06817 -1.236722,3.1947 0,0 -0.0099,0.0255 -0.0099,0.0255 0,0 0.02438,0.0117 0.02438,0.0117 0.410392,0.19598 0.833461,0.39788 1.246165,0.59494 -1.004771,0.55584 -1.980316,1.09538 -2.861811,1.58245 -0.778437,-0.64936 -1.4506017,-1.20633 -1.903079,-1.58361 0.4524773,0.37728 1.121201,0.93838 1.902,1.59474 0.900849,-0.48586 1.890806,-1.0246 2.910142,-1.57919 0,0 0.02986,-0.0163 0.02986,-0.0163 0,0 -0.03061,-0.0152 -0.03061,-0.0152 -0.41096,-0.20457 -0.832796,-0.41467 -1.242489,-0.6186 0.449594,-1.13964 0.883736,-2.2405 1.272217,-3.22677 0,0 0.02551,-0.0648 0.02551,-0.0648 0,0 -0.06903,0.0103 -0.06903,0.0103 -1.946989,0.29069 -3.610207,0.53978 -4.7546064,0.71282 -0.074587,0.0113 -0.2914223,0.0909 -0.3660089,0.10218 z"
       id="path146-2"
       inkscape:connector-curvature="0"
       inkscape:path-effect="#path-effect148-3"
       inkscape:original-d="m 8.8072527,224.12733 5.1266343,-0.77519 -1.271993,3.25573 1.271993,0.62023 -2.89728,1.58954 -1.906333,-1.58954"
       transform="matrix(5.5080069,0,0,6.8262717,-38.139378,-1277.3484)"
       sodipodi:nodetypes="cccccc" />
    <g
       aria-label="CV"
       transform="matrix(0.05015426,0,0,0.08745426,33.172932,199.06641)"
       style="font-style:normal;font-weight:normal;font-size:40px;line-height:1.25;font-family:sans-serif;letter-spacing:0px;word-spacing:0px;fill:#000000;fill-opacity:1;stroke:none"
       id="flowRoot6203-6-2-8-7-3">
      <path
         d="m 127.0293,214.98242 v 4.16016 q -1.99219,-1.85547 -4.25782,-2.77344 -2.24609,-0.91797 -4.78515,-0.91797 -5,0 -7.65625,3.06641 -2.65625,3.04687 -2.65625,8.82812 0,5.76172 2.65625,8.82813 2.65625,3.04687 7.65625,3.04687 2.53906,0 4.78515,-0.91797 2.26563,-0.91796 4.25782,-2.77343 v 4.12109 q -2.07032,1.40625 -4.39453,2.10938 -2.30469,0.70312 -4.88282,0.70312 -6.62109,0 -10.42968,-4.04297 -3.8086,-4.0625 -3.8086,-11.07422 0,-7.03125 3.8086,-11.07422 3.80859,-4.0625 10.42968,-4.0625 2.61719,0 4.92188,0.70313 2.32422,0.68359 4.35547,2.07031 z"
         id="path220-7"
         inkscape:connector-curvature="0"
         style="fill:#000000" />
      <path
         d="m 140.68164,241.89648 -11.13281,-29.16015 h 4.12109 l 9.23828,24.55078 9.25782,-24.55078 h 4.10156 l -11.11328,29.16015 z"
         id="path222-1"
         inkscape:connector-curvature="0"
         style="fill:#000000" />
    </g>
    <rect
       style="opacity:1;fill:#f2f2f2;fill-opacity:1;stroke:none;stroke-width:0;stroke-miterlimit:4;stroke-dasharray:none"
       id="rect6178-3-3"
       width="4.9204063"
       height="7.0870538"
       x="10.960325"
       y="267.616" />
  </g>
</svg>
