<?xml version="1.0" encoding="UTF-8" standalone="no"?>
<!-- Created with Inkscape (http://www.inkscape.org/) -->

<svg
   xmlns:dc="http://purl.org/dc/elements/1.1/"
   xmlns:cc="http://creativecommons.org/ns#"
   xmlns:rdf="http://www.w3.org/1999/02/22-rdf-syntax-ns#"
   xmlns:svg="http://www.w3.org/2000/svg"
   xmlns="http://www.w3.org/2000/svg"
   xmlns:sodipodi="http://sodipodi.sourceforge.net/DTD/sodipodi-0.dtd"
   xmlns:inkscape="http://www.inkscape.org/namespaces/inkscape"
   width="150"
   height="379.99997"
   viewBox="0 0 39.687501 100.54166"
   version="1.1"
   id="svg11003"
   inkscape:version="0.92.3 (2405546, 2018-03-11)"
   sodipodi:docname="Wave.svg">
  <defs
     id="defs10997">
    <inkscape:path-effect
       effect="powerstroke"
       id="path-effect5239"
       is_visible="true"
       offset_points="0,0.13229166"
       sort_points="true"
       interpolator_type="CubicBezierJohan"
       interpolator_beta="0.2"
       start_linecap_type="zerowidth"
       linejoin_type="extrp_arc"
       miter_limit="4"
       end_linecap_type="zerowidth" />
  </defs>
  <sodipodi:namedview
     id="base"
     pagecolor="#ffffff"
     bordercolor="#666666"
     borderopacity="1.0"
     inkscape:pageopacity="0.0"
     inkscape:pageshadow="2"
     inkscape:zoom="6.85"
     inkscape:cx="44.996413"
     inkscape:cy="336.13739"
     inkscape:document-units="mm"
     inkscape:current-layer="layer1"
     showgrid="false"
     fit-margin-top="0"
     fit-margin-left="0"
     fit-margin-right="0"
     fit-margin-bottom="0"
     inkscape:window-width="1920"
     inkscape:window-height="1025"
     inkscape:window-x="0"
     inkscape:window-y="27"
     inkscape:window-maximized="1"
     units="px"
     showguides="false" />
  <metadata
     id="metadata11000">
    <rdf:RDF>
      <cc:Work
         rdf:about="">
        <dc:format>image/svg+xml</dc:format>
        <dc:type
           rdf:resource="http://purl.org/dc/dcmitype/StillImage" />
        <dc:title />
      </cc:Work>
    </rdf:RDF>
  </metadata>
  <g
     inkscape:label="Layer 1"
     inkscape:groupmode="layer"
     id="layer1"
     transform="translate(-64.792954,-75.127975)">
    <path
       inkscape:connector-curvature="0"
       id="path33429"
       d="M 64.792954,75.273537 H 104.48045 V 175.66963 H 64.792954 Z m 0,0"
       style="fill:#e6e6e6;fill-opacity:1;fill-rule:nonzero;stroke:none;stroke-width:0.27632579" />
    <path
       style="fill:#000000;fill-opacity:1;stroke:none;stroke-width:0.27602378"
       d="m 80.932471,109.19653 c 0,0.0949 0.07332,0.1682 0.168202,0.1682 0.09488,0 0.168202,-0.0733 0.168202,-0.1682 v -0.62968 h 0.836697 c 0.08195,0 0.150951,-0.069 0.150951,-0.15527 0,-0.0863 -0.06901,-0.15526 -0.150951,-0.15526 h -0.836697 v -0.52619 h 0.957458 c 0.08626,0 0.155263,-0.069 0.155263,-0.15526 0,-0.0863 -0.06901,-0.15527 -0.155263,-0.15527 h -1.12566 c -0.09488,0 -0.168202,0.0733 -0.168202,0.17252 z m 0,0"
       id="path4739"
       inkscape:connector-curvature="0" />
    <path
       style="fill:#000000;fill-opacity:1;stroke:none;stroke-width:0.27602378"
       d="m 82.752293,109.19653 c 0,0.0949 0.07332,0.1682 0.168202,0.1682 0.09488,0 0.168202,-0.0733 0.168202,-0.1682 v -0.51755 h 0.431287 l 0.46579,0.59949 c 0.03882,0.0517 0.09057,0.0863 0.168202,0.0863 0.08194,0 0.159576,-0.0647 0.159576,-0.15526 0,-0.0517 -0.02156,-0.0906 -0.05175,-0.12939 l -0.370907,-0.4701 c 0.258772,-0.0776 0.439913,-0.26741 0.439913,-0.57362 v -0.009 c 0,-0.16821 -0.06038,-0.31054 -0.159577,-0.41405 -0.125073,-0.12076 -0.314839,-0.19408 -0.560673,-0.19408 h -0.690059 c -0.09488,0 -0.168202,0.0733 -0.168202,0.17252 z m 0.336404,-0.81945 v -0.64695 h 0.49598 c 0.250147,0 0.401097,0.11214 0.401097,0.31917 v 0.004 c 0,0.19839 -0.155263,0.32346 -0.396784,0.32346 z m 0,0"
       id="path4735"
       inkscape:connector-curvature="0" />
    <path
       style="fill:#000000;fill-opacity:1;stroke:none;stroke-width:0.27602378"
       d="m 84.96611,109.35179 h 1.138598 c 0.08195,0 0.15095,-0.0647 0.15095,-0.15095 0,-0.0819 -0.06901,-0.15095 -0.15095,-0.15095 h -0.970396 v -0.52186 h 0.832384 c 0.08195,0 0.150951,-0.0647 0.150951,-0.14664 0,-0.0863 -0.06901,-0.15526 -0.150951,-0.15526 h -0.832384 v -0.50462 h 0.957457 c 0.08195,0 0.150951,-0.0647 0.150951,-0.15095 0,-0.082 -0.06901,-0.15096 -0.150951,-0.15096 H 84.96611 c -0.09488,0 -0.168202,0.0733 -0.168202,0.17252 v 1.58716 c 0,0.0992 0.07332,0.17251 0.168202,0.17251 z m 0,0"
       id="path4731"
       inkscape:connector-curvature="0" />
    <path
       style="fill:#000000;fill-opacity:1;stroke:none;stroke-width:0.27602378"
       d="m 87.549347,109.38629 c 0.22427,0 0.426975,-0.069 0.590864,-0.18545 l 0.138012,0.12507 c 0.03019,0.0302 0.06901,0.0517 0.116447,0.0517 0.09057,0 0.159576,-0.0776 0.159576,-0.16389 0,-0.0561 -0.02156,-0.0992 -0.06038,-0.13369 l -0.125073,-0.0992 c 0.125073,-0.16821 0.194079,-0.37522 0.194079,-0.59519 v -0.004 c 0,-0.54343 -0.414035,-0.99628 -1.004899,-0.99628 -0.595176,0 -1.013525,0.45717 -1.013525,1.00059 v 0.004 c 0,0.54344 0.414036,0.99628 1.004899,0.99628 z m 0.0992,-0.60811 0.241521,0.2027 c -0.09488,0.0561 -0.207018,0.0906 -0.332091,0.0906 -0.383845,0 -0.659869,-0.31052 -0.659869,-0.68574 v -0.004 c 0,-0.37522 0.267398,-0.68144 0.651243,-0.68144 0.383846,0 0.65987,0.31053 0.65987,0.68575 v 0.004 c 0,0.13801 -0.0345,0.26309 -0.09488,0.3666 l -0.250154,-0.22428 c -0.03882,-0.0345 -0.06901,-0.0518 -0.116447,-0.0518 -0.09057,0 -0.159577,0.0776 -0.159577,0.16389 0,0.0604 0.02156,0.0992 0.06038,0.1337 z m 0,0"
       id="path4727"
       inkscape:connector-curvature="0" />
    <path
       inkscape:connector-curvature="0"
       id="path33539"
       d="m 84.999618,171.39019 c 0,0.1736 -0.140166,0.31377 -0.313761,0.31377 -0.173594,0 -0.313762,-0.14017 -0.313762,-0.31377 0,-0.17251 0.140168,-0.31376 0.313762,-0.31376 0.173595,0 0.313761,0.14125 0.313761,0.31376"
       style="fill:#000000;fill-opacity:1;fill-rule:nonzero;stroke:none;stroke-width:0.27602378" />
    <path
       style="fill:#000000;fill-opacity:1;stroke:none;stroke-width:0.27602378"
       d="m 72.911507,158.25181 h 0.01294 c 0.06038,0 0.103509,-0.0345 0.125074,-0.0906 l 0.444225,-1.0394 c 0.0043,-0.0129 0.0086,-0.0302 0.0086,-0.0474 0,-0.0561 -0.04744,-0.10351 -0.107821,-0.10351 -0.05175,0 -0.09057,0.0345 -0.107822,0.069 l -0.366599,0.91432 -0.362281,-0.9057 c -0.01725,-0.0474 -0.05607,-0.0776 -0.112134,-0.0776 -0.06469,0 -0.112135,0.0474 -0.112135,0.10782 0,0.0173 0.0043,0.0345 0.01294,0.0517 l 0.439912,1.03078 c 0.02156,0.0561 0.06469,0.0906 0.125074,0.0906 z m 0,0"
       id="path4723"
       inkscape:connector-curvature="0" />
    <path
       style="fill:#000000;fill-opacity:1;stroke:none;stroke-width:0.27602378"
       d="m 73.491054,158.38982 c 0,0.0474 0.03882,0.0819 0.08626,0.0819 0.0345,0 0.06038,-0.0173 0.07763,-0.0474 l 0.733188,-1.50519 c 0.0043,-0.009 0.0086,-0.0259 0.0086,-0.0431 0,-0.0431 -0.0345,-0.082 -0.08195,-0.082 -0.0345,0 -0.06469,0.0173 -0.07763,0.0517 l -0.737505,1.50089 c -0.0043,0.0129 -0.0086,0.0259 -0.0086,0.0431 z m 0,0"
       id="path4719"
       inkscape:connector-curvature="0" />
    <path
       style="fill:#000000;fill-opacity:1;stroke:none;stroke-width:0.27602378"
       d="m 75.153118,158.25612 c 0.388159,0 0.65987,-0.29758 0.65987,-0.65124 0,-0.35366 -0.267398,-0.64693 -0.655557,-0.64693 -0.383846,0 -0.655556,0.29327 -0.655556,0.64693 v 0.004 c 0,0.35365 0.267398,0.64693 0.651243,0.64693 z m 0.0043,-0.2027 c -0.250146,0 -0.426974,-0.20271 -0.426974,-0.44854 0,-0.24584 0.176828,-0.44423 0.422662,-0.44423 0.250146,0 0.426974,0.20271 0.426974,0.44423 v 0.004 c 0,0.24583 -0.172515,0.44422 -0.422662,0.44422 z m 0,0"
       id="path4715"
       inkscape:connector-curvature="0" />
    <path
       style="fill:#000000;fill-opacity:1;stroke:none;stroke-width:0.27602378"
       d="m 76.71419,158.25612 c 0.202705,0 0.336404,-0.0647 0.452852,-0.1682 0.02156,-0.0172 0.03882,-0.0474 0.03882,-0.0776 0,-0.0561 -0.05175,-0.10351 -0.107822,-0.10351 -0.02588,0 -0.04744,0.009 -0.06469,0.0259 -0.09057,0.0776 -0.18114,0.12076 -0.314839,0.12076 -0.237208,0 -0.414036,-0.2027 -0.414036,-0.44854 0,-0.24583 0.176828,-0.44422 0.414036,-0.44422 0.12076,0 0.215643,0.0431 0.301901,0.11213 0.01294,0.0129 0.0345,0.0216 0.06469,0.0216 0.06038,0 0.112135,-0.0474 0.112135,-0.10782 0,-0.0388 -0.02156,-0.069 -0.04313,-0.0863 -0.112135,-0.0863 -0.237209,-0.14233 -0.431288,-0.14233 -0.379532,0 -0.646931,0.29328 -0.646931,0.64693 v 0.004 c 0,0.36228 0.271711,0.64693 0.638305,0.64693 z m 0,0"
       id="path4711"
       inkscape:connector-curvature="0" />
    <path
       style="fill:#000000;fill-opacity:1;stroke:none;stroke-width:0.27602378"
       d="m 77.828278,158.13536 c 0,0.0604 0.05175,0.10782 0.112135,0.10782 0.06038,0 0.112134,-0.0474 0.112134,-0.10782 v -0.95314 h 0.306214 c 0.05607,0 0.0992,-0.0474 0.0992,-0.0992 0,-0.0561 -0.04313,-0.10351 -0.0992,-0.10351 h -0.836697 c -0.05607,0 -0.0992,0.0474 -0.0992,0.10351 0,0.0517 0.04313,0.0992 0.0992,0.0992 h 0.306214 z m 0,0"
       id="path4707"
       inkscape:connector-curvature="0" />
    <path
       style="fill:#000000;fill-opacity:1;stroke:none;stroke-width:0.27602378"
       d="m 83.446054,144.60558 c 0,0.0604 0.0518,0.10782 0.11213,0.10782 0.0604,0 0.11213,-0.0474 0.11213,-0.10782 v -0.41403 h 0.53911 c 0.0561,0 0.10352,-0.0431 0.10352,-0.0992 0,-0.0561 -0.0474,-0.0992 -0.10352,-0.0992 h -0.53911 v -0.34503 h 0.62106 c 0.0561,0 0.0992,-0.0431 0.0992,-0.0992 0,-0.0561 -0.0431,-0.0992 -0.0992,-0.0992 h -0.73319 c -0.0604,0 -0.11213,0.0474 -0.11213,0.11213 z m 0,0"
       id="path4703"
       inkscape:connector-curvature="0" />
    <path
       style="fill:#000000;fill-opacity:1;stroke:none;stroke-width:0.27602378"
       d="m 84.660694,144.60558 c 0,0.0604 0.0474,0.10782 0.10782,0.10782 0.0647,0 0.11214,-0.0474 0.11214,-0.10782 v -0.75044 l 0.3019,0.45717 c 0.0259,0.0345 0.0561,0.0561 0.0949,0.0561 0.0388,0 0.069,-0.0216 0.0906,-0.0561 l 0.30622,-0.46148 v 0.75475 c 0,0.0561 0.0517,0.10782 0.11213,0.10782 0.0604,0 0.11213,-0.0474 0.11213,-0.10782 v -1.05234 c 0,-0.0604 -0.0517,-0.11213 -0.11213,-0.11213 h -0.0259 c -0.0431,0 -0.0733,0.0216 -0.0992,0.0561 l -0.37953,0.59949 -0.38385,-0.59518 c -0.0216,-0.0345 -0.0517,-0.0604 -0.0992,-0.0604 h -0.0259 c -0.0604,0 -0.11214,0.0518 -0.11214,0.11214 z m 0,0"
       id="path4699"
       inkscape:connector-curvature="0" />
    <path
       style="fill:#000000;fill-opacity:1;stroke:none;stroke-width:0.27602378"
       d="m 73.031814,113.09003 c 0,0.0776 0.06038,0.13801 0.138012,0.13801 0.07332,0 0.133699,-0.0604 0.133699,-0.13801 v -0.5046 h 0.668495 c 0.06901,0 0.12076,-0.0561 0.12076,-0.12508 0,-0.0647 -0.05175,-0.12076 -0.12076,-0.12076 h -0.668495 v -0.42266 h 0.767691 c 0.06901,0 0.12076,-0.0561 0.12076,-0.12507 0,-0.069 -0.05175,-0.12076 -0.12076,-0.12076 h -0.90139 c -0.07763,0 -0.138012,0.0561 -0.138012,0.1337 z m 0,0"
       id="path4647"
       inkscape:connector-curvature="0" />
    <path
       style="fill:#000000;fill-opacity:1;stroke:none;stroke-width:0.27602378"
       d="m 74.519721,113.09003 c 0,0.0776 0.05607,0.13801 0.133699,0.13801 0.07763,0 0.138012,-0.0604 0.138012,-0.13801 v -1.29817 c 0,-0.0733 -0.06038,-0.1337 -0.138012,-0.1337 -0.07763,0 -0.133699,0.0604 -0.133699,0.1337 z m 0,0"
       id="path4643"
       inkscape:connector-curvature="0" />
    <path
       style="fill:#000000;fill-opacity:1;stroke:none;stroke-width:0.27602378"
       d="m 75.256565,113.09435 c 0,0.0733 0.06038,0.13369 0.133699,0.13369 0.07332,0 0.133699,-0.0604 0.133699,-0.13369 v -0.97903 l 0.793568,1.02647 c 0.03882,0.0474 0.07763,0.0819 0.142325,0.0819 h 0.01294 c 0.07332,0 0.129386,-0.0604 0.129386,-0.1337 v -1.29817 c 0,-0.0733 -0.05607,-0.1337 -0.133698,-0.1337 -0.07332,0 -0.133699,0.0604 -0.133699,0.1337 v 0.94883 l -0.772007,-1.00059 c -0.0345,-0.0474 -0.07332,-0.0776 -0.142324,-0.0776 h -0.02588 c -0.07763,0 -0.138012,0.0604 -0.138012,0.1337 z m 0,0"
       id="path4639"
       inkscape:connector-curvature="0" />
    <path
       style="fill:#000000;fill-opacity:1;stroke:none;stroke-width:0.27602378"
       d="m 77.203527,113.21511 h 0.910016 c 0.06469,0 0.120761,-0.0517 0.120761,-0.12076 0,-0.069 -0.05607,-0.12076 -0.120761,-0.12076 h -0.776317 v -0.41835 h 0.664183 c 0.06901,0 0.12076,-0.0518 0.12076,-0.11645 0,-0.069 -0.05175,-0.12507 -0.12076,-0.12507 h -0.664183 v -0.4011 h 0.763379 c 0.06901,0 0.12076,-0.0517 0.12076,-0.12076 0,-0.069 -0.05175,-0.12076 -0.12076,-0.12076 h -0.897078 c -0.07763,0 -0.138012,0.0561 -0.138012,0.1337 v 1.27229 c 0,0.0776 0.06038,0.13802 0.138012,0.13802 z m 0,0"
       id="path4635"
       inkscape:connector-curvature="0" />
    <path
       style="fill:#000000;fill-opacity:1;stroke:none;stroke-width:0.27602378"
       d="m 90.457471,113.07706 c 0,0.0776 0.06038,0.13801 0.138012,0.13801 0.07332,0 0.133699,-0.0604 0.133699,-0.13801 v -0.50461 h 0.668495 c 0.06901,0 0.12076,-0.0561 0.12076,-0.12507 0,-0.0647 -0.05175,-0.12076 -0.12076,-0.12076 h -0.668495 v -0.42266 h 0.767691 c 0.06901,0 0.12076,-0.0561 0.12076,-0.12507 0,-0.069 -0.05175,-0.12077 -0.12076,-0.12077 h -0.90139 c -0.07763,0 -0.138012,0.0561 -0.138012,0.1337 z m 0,0"
       id="path4631"
       inkscape:connector-curvature="0" />
    <path
       style="fill:#000000;fill-opacity:1;stroke:none;stroke-width:0.27602378"
       d="m 91.935634,113.08137 c 0,0.0733 0.05607,0.1337 0.133699,0.1337 0.07332,0 0.133699,-0.0604 0.133699,-0.1337 v -0.92727 l 0.37522,0.56499 c 0.03019,0.0431 0.06469,0.069 0.112134,0.069 0.05175,0 0.08626,-0.0259 0.116448,-0.069 l 0.37522,-0.5693 v 0.92727 c 0,0.0733 0.06469,0.13801 0.138012,0.13801 0.07763,0 0.133699,-0.0604 0.133699,-0.13801 v -1.29386 c 0,-0.0733 -0.05607,-0.1337 -0.133699,-0.1337 h -0.03019 c -0.05607,0 -0.09488,0.0216 -0.125073,0.069 l -0.470104,0.73318 -0.46579,-0.73318 c -0.02588,-0.0388 -0.06901,-0.069 -0.129386,-0.069 h -0.02588 c -0.07763,0 -0.138012,0.0604 -0.138012,0.13369 z m 0,0"
       id="path4627"
       inkscape:connector-curvature="0" />
    <path
       style="fill:#000000;fill-opacity:1;stroke:none;stroke-width:0.27602378"
       d="m 95.230735,113.22801 c 0.250147,0 0.418349,-0.0776 0.564986,-0.20702 0.02156,-0.0216 0.04313,-0.0561 0.04313,-0.0992 0,-0.0647 -0.06038,-0.12507 -0.129386,-0.12507 -0.0345,0 -0.06038,0.0129 -0.08194,0.0302 -0.112134,0.0949 -0.224269,0.15095 -0.383845,0.15095 -0.297588,0 -0.513232,-0.24584 -0.513232,-0.54774 v -0.004 c 0,-0.3019 0.215644,-0.54773 0.513232,-0.54773 0.146638,0 0.258772,0.0561 0.366594,0.14232 0.01725,0.0129 0.04313,0.0259 0.08194,0.0259 0.07332,0 0.133699,-0.0604 0.133699,-0.13369 0,-0.0474 -0.02156,-0.0863 -0.05175,-0.10783 -0.133699,-0.1035 -0.293275,-0.17683 -0.530483,-0.17683 -0.470103,0 -0.797881,0.36229 -0.797881,0.8022 v 0.004 c 0,0.44422 0.336404,0.79357 0.784942,0.79357 z m 0,0"
       id="path4623"
       inkscape:connector-curvature="0" />
    <path
       style="fill:#000000;fill-opacity:1;stroke:none;stroke-width:0.27602378"
       d="m 96.806542,113.2237 h 0.01294 c 0.07763,0 0.129386,-0.0431 0.159576,-0.10782 l 0.543422,-1.28093 c 0.0043,-0.0172 0.01294,-0.0388 0.01294,-0.0604 0,-0.0733 -0.06038,-0.12939 -0.133699,-0.12939 -0.06469,0 -0.116447,0.0431 -0.133699,0.0906 l -0.452851,1.12135 -0.444226,-1.11272 c -0.02156,-0.0604 -0.06901,-0.0992 -0.138012,-0.0992 -0.07763,0 -0.138012,0.0604 -0.138012,0.1337 0,0.0216 0.0086,0.0431 0.01725,0.0647 l 0.539109,1.27229 c 0.03019,0.0647 0.07763,0.10783 0.155264,0.10783 z m 0,0"
       id="path4619"
       inkscape:connector-curvature="0" />
    <path
       inkscape:connector-curvature="0"
       id="path36593"
       d="m 97.768482,156.82886 c 0,-0.43021 -0.3515,-0.78279 -0.781707,-0.78279 h -6.011061 c -0.43021,0 -0.782785,0.35258 -0.782785,0.78279 v 9.5239 c 0,0.43021 0.352575,0.78279 0.782785,0.78279 h 6.011061 c 0.430207,0 0.781707,-0.35258 0.781707,-0.78279 z m 0,0"
       style="fill:#008000;fill-opacity:1;fill-rule:nonzero;stroke:none;stroke-width:0.27602378" />
    <path
       inkscape:connector-curvature="0"
       id="path36605"
       d="m 88.508072,156.82886 c 0,-0.43021 -0.352578,-0.78279 -0.782785,-0.78279 H 81.71422 c -0.430207,0 -0.781708,0.35258 -0.781708,0.78279 v 9.5239 c 0,0.43021 0.351501,0.78279 0.781708,0.78279 h 6.011067 c 0.430207,0 0.782785,-0.35258 0.782785,-0.78279 z m 0,0"
       style="fill:#008000;fill-opacity:1;fill-rule:nonzero;stroke:none;stroke-width:0.27602378" />
    <path
       style="fill:#000000;fill-opacity:1;stroke:none;stroke-width:0.27602378"
       d="m 91.235252,144.63698 c 0.26739,0 0.44854,-0.13801 0.44854,-0.37522 v -0.004 c 0,-0.20701 -0.1337,-0.3019 -0.4011,-0.36659 -0.241527,-0.0561 -0.297587,-0.0992 -0.297587,-0.19839 0,-0.0863 0.0733,-0.15095 0.2027,-0.15095 0.0992,0 0.194077,0.0302 0.288967,0.0949 0.0173,0.0129 0.0345,0.0172 0.0561,0.0172 0.0604,0 0.10782,-0.0474 0.10782,-0.10351 0,-0.0431 -0.0259,-0.0733 -0.0517,-0.0863 -0.11214,-0.0776 -0.23721,-0.11645 -0.396787,-0.11645 -0.25015,0 -0.42697,0.14664 -0.42697,0.36229 v 0.004 c 0,0.23289 0.14663,0.31052 0.41403,0.37521 0.237207,0.0517 0.284647,0.10351 0.284647,0.18977 v 0.004 c 0,0.0949 -0.0863,0.15958 -0.21995,0.15958 -0.138017,0 -0.250147,-0.0474 -0.353657,-0.12939 -0.0129,-0.0129 -0.0345,-0.0216 -0.0647,-0.0216 -0.0561,0 -0.10351,0.0474 -0.10351,0.10351 0,0.0345 0.0173,0.0647 0.0431,0.0863 0.13801,0.10351 0.3019,0.15527 0.470107,0.15527 z m 0,0"
       id="path4503"
       inkscape:connector-curvature="0" />
    <path
       style="fill:#ffffff;fill-opacity:1;stroke:none;stroke-width:0.27602378"
       d="m 91.583982,157.97791 c 0,0.0604 0.04744,0.10351 0.103509,0.10351 0.04744,0 0.08626,-0.0259 0.103509,-0.069 l 0.103509,-0.24152 h 0.612428 l 0.103509,0.2329 c 0.01725,0.0474 0.05175,0.0776 0.107822,0.0776 0.05607,0 0.103509,-0.0474 0.103509,-0.10351 0,-0.0173 -0.0043,-0.0345 -0.01294,-0.0474 l -0.465791,-1.04373 c -0.02588,-0.0517 -0.06901,-0.0863 -0.133699,-0.0863 h -0.0086 c -0.06469,0 -0.107822,0.0345 -0.133699,0.0863 l -0.46579,1.04372 c -0.0086,0.0172 -0.01725,0.0345 -0.01725,0.0474 z m 0.396784,-0.40541 0.219957,-0.50461 0.219956,0.50461 z m 0,0"
       id="path4487"
       inkscape:connector-curvature="0" />
    <path
       style="fill:#ffffff;fill-opacity:1;stroke:none;stroke-width:0.27602378"
       d="m 93.093723,157.9736 c 0,0.0604 0.05175,0.10782 0.112135,0.10782 0.06038,0 0.107822,-0.0474 0.107822,-0.10782 v -0.79789 l 0.64693,0.83671 c 0.03019,0.0388 0.06038,0.069 0.112135,0.069 h 0.0086 c 0.06038,0 0.107822,-0.0517 0.107822,-0.11214 v -1.05234 c 0,-0.0604 -0.04744,-0.10783 -0.107822,-0.10783 -0.06038,0 -0.107822,0.0474 -0.107822,0.10783 v 0.772 l -0.629683,-0.81513 c -0.03019,-0.0388 -0.06038,-0.0647 -0.112135,-0.0647 h -0.02588 c -0.06038,0 -0.112135,0.0517 -0.112135,0.11214 z m 0,0"
       id="path4483"
       inkscape:connector-curvature="0" />
    <path
       style="fill:#ffffff;fill-opacity:1;stroke:none;stroke-width:0.27602378"
       d="m 94.576591,157.96066 c 0,0.0647 0.05175,0.11214 0.112135,0.11214 h 0.677123 c 0.0561,0 0.10351,-0.0431 0.10351,-0.0992 0,-0.0561 -0.0474,-0.10351 -0.10351,-0.10351 H 94.80086 v -0.95315 c 0,-0.0604 -0.05175,-0.10783 -0.112134,-0.10783 -0.06038,0 -0.112135,0.0474 -0.112135,0.10783 z m 0,0"
       id="path4479"
       inkscape:connector-curvature="0" />
    <path
       style="fill:#ffffff;fill-opacity:1;stroke:none;stroke-width:0.27602378"
       d="m 96.278598,158.09436 c 0.18545,0 0.3364,-0.0647 0.44422,-0.13801 0.0517,-0.0302 0.0776,-0.0776 0.0776,-0.13802 v -0.3364 c 0,-0.0604 -0.0474,-0.11213 -0.112127,-0.11213 h -0.34935 c -0.0517,0 -0.0992,0.0431 -0.0992,0.0992 0,0.0517 0.0474,0.0949 0.0992,0.0949 h 0.25015 v 0.23289 c -0.0776,0.0604 -0.18545,0.0949 -0.30621,0.0949 -0.254467,0 -0.426977,-0.18976 -0.426977,-0.44853 0,-0.24153 0.17683,-0.44423 0.409727,-0.44423 0.13369,0 0.22426,0.0388 0.3019,0.0992 0.0216,0.0129 0.0431,0.0259 0.069,0.0259 0.0604,0 0.11213,-0.0518 0.11213,-0.11214 0,-0.0431 -0.0259,-0.0733 -0.0474,-0.0906 -0.11213,-0.0819 -0.24152,-0.12507 -0.42697,-0.12507 -0.379537,0 -0.646941,0.29759 -0.646941,0.64693 v 0.004 c 0,0.3666 0.254464,0.64693 0.651251,0.64693 z m 0,0"
       id="path4475"
       inkscape:connector-curvature="0" />
    <path
       style="fill:#ffffff;fill-opacity:1;stroke:none;stroke-width:0.27602378"
       d="m 82.766766,158.03824 c 0,0.0647 0.05175,0.11213 0.112134,0.11213 h 0.357969 c 0.396784,0 0.668495,-0.27602 0.668495,-0.62968 0,-0.35365 -0.271711,-0.62536 -0.668495,-0.62536 H 82.8789 c -0.06038,0 -0.112134,0.0474 -0.112134,0.11213 z m 0.224269,-0.0906 v -0.85395 h 0.245834 c 0.263085,0 0.4356,0.18114 0.4356,0.42697 v 0.004 c 0,0.24584 -0.172515,0.42266 -0.4356,0.42266 z m 0,0"
       id="path4471"
       inkscape:connector-curvature="0" />
    <path
       style="fill:#ffffff;fill-opacity:1;stroke:none;stroke-width:0.27602378"
       d="m 84.229381,158.05118 c 0,0.0604 0.05175,0.10782 0.112135,0.10782 0.06038,0 0.112134,-0.0474 0.112134,-0.10782 v -1.05666 c 0,-0.0604 -0.05175,-0.10782 -0.112134,-0.10782 -0.06038,0 -0.112135,0.0474 -0.112135,0.10782 z m 0,0"
       id="path4467"
       inkscape:connector-curvature="0" />
    <path
       style="fill:#ffffff;fill-opacity:1;stroke:none;stroke-width:0.27602378"
       d="m 85.431327,158.17193 c 0.185453,0 0.336404,-0.0647 0.444225,-0.13801 0.05175,-0.0302 0.07763,-0.0776 0.07763,-0.13801 v -0.3364 c 0,-0.0604 -0.04744,-0.11214 -0.112134,-0.11214 h -0.349343 c -0.05175,0 -0.0992,0.0431 -0.0992,0.0992 0,0.0517 0.04744,0.0949 0.0992,0.0949 h 0.250146 v 0.2329 c -0.07763,0.0604 -0.185453,0.0949 -0.306214,0.0949 -0.254459,0 -0.426974,-0.18977 -0.426974,-0.44854 0,-0.24152 0.176828,-0.44422 0.409723,-0.44422 0.133699,0 0.224269,0.0388 0.301901,0.0992 0.02156,0.0129 0.04313,0.0259 0.06901,0.0259 0.06038,0 0.112135,-0.0517 0.112135,-0.11214 0,-0.0431 -0.02588,-0.0733 -0.04744,-0.0906 -0.112135,-0.0819 -0.241521,-0.12507 -0.426975,-0.12507 -0.379532,0 -0.64693,0.29759 -0.64693,0.64693 v 0.004 c 0,0.36659 0.254459,0.64693 0.651243,0.64693 z m 0,0"
       id="path4463"
       inkscape:connector-curvature="0" />
    <path
       style="fill:#ffffff;fill-opacity:1;stroke:none;stroke-width:0.27602378"
       d="m 86.31042,158.05118 c 0,0.0604 0.05175,0.10782 0.112134,0.10782 0.06038,0 0.112135,-0.0474 0.112135,-0.10782 v -1.05666 c 0,-0.0604 -0.05175,-0.10782 -0.112135,-0.10782 -0.06038,0 -0.112134,0.0474 -0.112134,0.10782 z m 0,0"
       id="path4459"
       inkscape:connector-curvature="0" />
    <path
       style="fill:#000000;fill-opacity:1;stroke:none;stroke-width:0.27484038"
       d="m 93.309636,144.54925 c 0,0.0599 0.04744,0.10262 0.103509,0.10262 0.04744,0 0.08626,-0.0257 0.103509,-0.0684 l 0.103509,-0.23945 h 0.612428 l 0.103509,0.2309 c 0.01725,0.047 0.05175,0.0769 0.107822,0.0769 0.05607,0 0.103509,-0.047 0.103509,-0.10262 0,-0.0172 -0.0043,-0.0342 -0.01294,-0.047 L 94.0687,143.4674 c -0.02588,-0.0513 -0.06901,-0.0856 -0.133699,-0.0856 h -0.0086 c -0.06469,0 -0.107822,0.0342 -0.133699,0.0856 l -0.46579,1.03479 c -0.0086,0.0171 -0.01725,0.0342 -0.01725,0.047 z m 0.396784,-0.40195 0.219957,-0.50029 0.219956,0.50029 z m 0,0"
       id="path4487-2"
       inkscape:connector-curvature="0" />
    <path
       style="fill:#000000;fill-opacity:1;stroke:none;stroke-width:0.23412639"
       d="m 91.966492,144.53833 c 0,0.0628 0.0537,0.11165 0.12274,0.11165 0.06521,0 0.118905,-0.0489 0.118905,-0.11165 v -0.42566 h 0.655891 v 0.42566 c 0,0.0628 0.0537,0.11165 0.118905,0.11165 0.06904,0 0.12274,-0.0489 0.12274,-0.11165 v -1.05019 c 0,-0.0593 -0.0537,-0.10816 -0.12274,-0.10816 -0.06521,0 -0.118905,0.0489 -0.118905,0.10816 v 0.42218 h -0.655891 v -0.42218 c 0,-0.0593 -0.0537,-0.10816 -0.118905,-0.10816 -0.06904,0 -0.12274,0.0489 -0.12274,0.10816 z m 0,0"
       id="path4571-3"
       inkscape:connector-curvature="0" />
    <path
       style="fill:#000000;fill-opacity:1;stroke:none;stroke-width:0.22988853"
       d="m 94.784529,144.53231 c 0,0.0633 0.05136,0.11255 0.117387,0.11255 0.06237,0 0.113721,-0.0492 0.113721,-0.11255 v -0.30248 h 0.260456 c 0.289801,0 0.528247,-0.14774 0.528247,-0.43263 v -0.004 c 0,-0.25324 -0.194424,-0.41855 -0.502568,-0.41855 h -0.399856 c -0.06603,0 -0.117387,0.0457 -0.117387,0.10903 z m 0.231108,-0.50296 v -0.45372 h 0.267793 c 0.172414,0 0.286134,0.0774 0.286134,0.2251 v 0.004 c 0,0.13014 -0.110051,0.2251 -0.286134,0.2251 z m 0,0"
       id="path4595-1"
       inkscape:connector-curvature="0" />
    <path
       style="fill:#000000;fill-opacity:1;stroke:none;stroke-width:0.20591603"
       d="m 96.096088,144.62581 h 0.615725 c 0.04377,0 0.08171,-0.0425 0.08171,-0.0993 0,-0.0567 -0.03794,-0.0993 -0.08171,-0.0993 H 96.18655 v -0.34411 h 0.449392 c 0.04669,0 0.08171,-0.0425 0.08171,-0.0958 0,-0.0567 -0.03501,-0.10288 -0.08171,-0.10288 H 96.18655 v -0.32991 h 0.516509 c 0.04669,0 0.08171,-0.0425 0.08171,-0.0993 0,-0.0567 -0.03501,-0.0993 -0.08171,-0.0993 h -0.606971 c -0.05253,0 -0.09338,0.0461 -0.09338,0.10997 v 1.04649 c 0,0.0638 0.04085,0.11353 0.09338,0.11353 z m 0,0"
       id="path4635-8"
       inkscape:connector-curvature="0" />
    <path
       style="fill:#000000;fill-opacity:1;stroke:none;stroke-width:0.27602378"
       d="m 76.933438,144.53627 c 0,0.0776 0.06038,0.13802 0.138011,0.13802 0.07763,0 0.138012,-0.0604 0.138012,-0.13802 v -0.87119 h 0.263085 c 0.07332,0 0.129386,-0.0561 0.129386,-0.12939 0,-0.069 -0.05607,-0.12508 -0.129386,-0.12508 h -0.806507 c -0.06901,0 -0.125073,0.0561 -0.125073,0.12508 0,0.0733 0.05607,0.12939 0.125073,0.12939 h 0.267399 z m 0,0"
       id="path4543-8"
       inkscape:connector-curvature="0" />
    <path
       style="fill:#000000;fill-opacity:1;stroke:none;stroke-width:0.27602378"
       d="m 75.83923,144.66621 c 0.267398,0 0.457164,-0.13801 0.457164,-0.38816 v -0.004 c 0,-0.21995 -0.142325,-0.31052 -0.396784,-0.37522 -0.215644,-0.0561 -0.271711,-0.0819 -0.271711,-0.1682 0,-0.0647 0.05607,-0.11213 0.163889,-0.11213 0.08626,0 0.172515,0.0302 0.263085,0.0863 0.02156,0.0129 0.04313,0.0172 0.06901,0.0172 0.07332,0 0.129386,-0.0561 0.129386,-0.12508 0,-0.0561 -0.03019,-0.0906 -0.06038,-0.11213 -0.112134,-0.069 -0.245833,-0.10782 -0.396783,-0.10782 -0.258773,0 -0.439913,0.15095 -0.439913,0.37522 v 0.004 c 0,0.25014 0.159576,0.31915 0.414035,0.38384 0.211331,0.0561 0.25446,0.0906 0.25446,0.15958 v 0.004 c 0,0.0733 -0.06901,0.12076 -0.181141,0.12076 -0.125073,0 -0.228582,-0.0431 -0.323465,-0.11645 -0.01725,-0.0129 -0.04313,-0.0216 -0.07763,-0.0216 -0.07332,0 -0.129387,0.0517 -0.129387,0.12507 0,0.0431 0.02156,0.0819 0.05175,0.10351 0.142325,0.10351 0.306214,0.15095 0.474416,0.15095 z m 0,0"
       id="path4531-8"
       inkscape:connector-curvature="0" />
    <path
       style="fill:#000000;fill-opacity:1;stroke:none;stroke-width:0.27602378"
       d="m 73.259595,144.502 c 0,0.0647 0.05175,0.11213 0.112134,0.11213 h 0.357969 c 0.396784,0 0.668495,-0.27602 0.668495,-0.62968 0,-0.35365 -0.271711,-0.62536 -0.668495,-0.62536 h -0.357969 c -0.06038,0 -0.112134,0.0474 -0.112134,0.11213 z m 0.224269,-0.0906 v -0.85395 h 0.245834 c 0.263085,0 0.4356,0.18114 0.4356,0.42697 v 0.004 c 0,0.24584 -0.172515,0.42266 -0.4356,0.42266 z m 0,0"
       id="path4471-5"
       inkscape:connector-curvature="0" />
    <path
       style="fill:#000000;fill-opacity:1;stroke:none;stroke-width:0.27602378"
       d="m 74.72221,144.51494 c 0,0.0604 0.05175,0.10782 0.112135,0.10782 0.06038,0 0.112134,-0.0474 0.112134,-0.10782 v -1.05666 c 0,-0.0604 -0.05175,-0.10782 -0.112134,-0.10782 -0.06038,0 -0.112135,0.0474 -0.112135,0.10782 z m 0,0"
       id="path4467-0"
       inkscape:connector-curvature="0" />
    <g
       aria-label="WAVE"
       transform="matrix(0,-0.15629987,0.1791757,0,58.579051,124.66778)"
       style="font-style:normal;font-variant:normal;font-weight:normal;font-stretch:normal;font-size:40px;line-height:1.25;font-family:Sylfaen;-inkscape-font-specification:Sylfaen;letter-spacing:0px;word-spacing:0px;fill:#000000;fill-opacity:1;stroke:none"
       id="flowRoot3805">
      <path
         d="m 213.65234,56.692286 -7.91015,28.007813 h -3.84766 l -5.76172,-20.46875 q -0.37109,-1.308594 -0.44922,-2.851563 h -0.0781 q -0.11719,1.445313 -0.50781,2.8125 l -5.80079,20.507813 h -3.80859 l -8.20312,-28.007813 h 3.61328 l 5.95703,21.484375 q 0.37109,1.347657 0.46875,2.8125 h 0.0977 q 0.0977,-1.035156 0.60547,-2.8125 l 6.19141,-21.484375 h 3.14453 l 5.9375,21.640625 q 0.3125,1.113282 0.46875,2.617188 h 0.0781 q 0.0781,-1.015625 0.52734,-2.695313 l 5.72266,-21.5625 z"
         style="font-style:normal;font-variant:normal;font-weight:normal;font-stretch:normal;font-family:'Microsoft PhagsPa';-inkscape-font-specification:'Microsoft PhagsPa'"
         id="path131"
         inkscape:connector-curvature="0" />
      <path
         d="m 239.47266,84.700099 h -3.63282 l -2.96875,-7.851563 h -11.875 l -2.79297,7.851563 h -3.65234 l 10.74219,-28.007813 h 3.39844 z m -7.67579,-10.800781 -4.39453,-11.933594 q -0.21484,-0.585938 -0.42968,-1.875 h -0.0781 q -0.19531,1.191406 -0.44922,1.875 l -4.35547,11.933594 z"
         style="font-style:normal;font-variant:normal;font-weight:normal;font-stretch:normal;font-family:'Microsoft PhagsPa';-inkscape-font-specification:'Microsoft PhagsPa'"
         id="path133"
         inkscape:connector-curvature="0" />
      <path
         d="m 264.39453,56.692286 -10.37109,28.007813 h -3.61328 L 240.25391,56.692286 h 3.65234 l 7.75391,22.207032 q 0.37109,1.074218 0.5664,2.480468 h 0.0781 q 0.15625,-1.171875 0.64453,-2.519531 l 7.91015,-22.167969 z"
         style="font-style:normal;font-variant:normal;font-weight:normal;font-stretch:normal;font-family:'Microsoft PhagsPa';-inkscape-font-specification:'Microsoft PhagsPa'"
         id="path135"
         inkscape:connector-curvature="0" />
      <path
         d="M 283.26172,84.700099 H 268.41797 V 56.692286 h 14.21875 v 2.96875 h -10.9375 v 9.316407 h 10.11719 v 2.949218 h -10.11719 v 9.804688 h 11.5625 z"
         style="font-style:normal;font-variant:normal;font-weight:normal;font-stretch:normal;font-family:'Microsoft PhagsPa';-inkscape-font-specification:'Microsoft PhagsPa'"
         id="path137"
         inkscape:connector-curvature="0" />
    </g>
    <text
       xml:space="preserve"
       style="font-style:normal;font-weight:normal;font-size:10.58333302px;line-height:1.25;font-family:sans-serif;letter-spacing:0px;word-spacing:0px;fill:#000000;fill-opacity:1;stroke:none;stroke-width:0.26458332"
       x="78.286705"
       y="101.78814"
       id="text5215"><tspan
         sodipodi:role="line"
         id="tspan5213"
         x="78.286705"
         y="111.15191"
         style="stroke-width:0.26458332" /></text>
    <path
       style="opacity:1;fill:#000000;fill-opacity:1;stroke-width:0;stroke-miterlimit:4;stroke-dasharray:none"
       id="path5229"
       d="m 86.733805,138.33643 c 0.08562,-0.13849 0.160181,-0.28352 0.236222,-0.42763 0.06045,-0.11982 0.121916,-0.23948 0.174325,-0.36333 0.04756,-0.0965 0.07411,-0.20076 0.101025,-0.30473 0.02328,-0.11237 0.03487,-0.22386 0.08046,-0.32964 0.09683,-0.21624 0.31095,-0.38863 0.55124,-0.39822 0.162063,0.0379 0.277861,0.15917 0.386707,0.28027 0.103985,0.11477 0.183668,0.25009 0.236166,0.39704 0.04489,0.11314 0.06274,0.23439 0.09095,0.35247 0.02772,0.11389 0.03545,0.23141 0.04077,0.34827 0.0035,0.12356 0.0032,0.24717 0.0027,0.37076 0.0075,0.13545 0.02635,0.26964 0.06379,0.39977 0.05665,0.14965 0.126071,0.18375 0.274694,0.14458 0.111274,-0.072 0.399652,-0.15811 -0.13526,0.0846 -0.02429,0.011 0.0399,-0.0362 0.05769,-0.0565 0.04507,-0.0514 0.06976,-0.0953 0.106667,-0.15321 0.08475,-0.14845 0.162544,-0.30239 0.215859,-0.4659 0.04502,-0.13816 0.07438,-0.28123 0.09968,-0.42442 0.03256,-0.15771 0.05476,-0.31725 0.08516,-0.47536 0.01248,-0.13157 0.04297,-0.25107 0.102478,-0.36772 0,0 0.345267,-0.15964 0.345267,-0.15964 v 0 c -0.06204,0.11789 -0.10053,0.22125 -0.108508,0.35809 -0.03114,0.15786 -0.05452,0.31702 -0.086,0.47485 -0.02452,0.14449 -0.05208,0.28921 -0.09647,0.42877 -0.05129,0.16741 -0.131389,0.32313 -0.214428,0.47593 -0.0358,0.0598 -0.09872,0.18354 -0.156648,0.22311 -0.164436,0.11232 -0.329191,0.22621 -0.516267,0.29099 -0.170068,0.0207 -0.240268,-0.0293 -0.305294,-0.19172 -0.03934,-0.13342 -0.05866,-0.27101 -0.0687,-0.40994 -3.22e-4,-0.12291 4.56e-4,-0.24586 -0.0029,-0.36874 -0.0042,-0.11454 -0.01059,-0.22977 -0.03715,-0.34154 -0.02766,-0.11693 -0.04495,-0.23692 -0.08863,-0.34916 -0.04846,-0.14316 -0.125652,-0.2738 -0.226454,-0.38473 -0.101141,-0.11183 -0.213243,-0.23273 -0.369166,-0.24851 -0.153727,0.0323 -0.101513,0.028 0.21883,-0.1615 0.01406,-0.008 -0.02532,0.021 -0.03662,0.0329 -0.03621,0.0384 -0.06436,0.0847 -0.0856,0.13321 -0.05167,0.10231 -0.06387,0.21054 -0.08366,0.32289 -0.02603,0.10539 -0.04974,0.21238 -0.09852,0.30971 -0.0501,0.1265 -0.115421,0.24594 -0.174805,0.36794 -0.07684,0.14285 -0.148689,0.28858 -0.233168,0.42697 0,0 -0.346392,0.15892 -0.346392,0.15892 z"
       inkscape:connector-curvature="0" />
    <path
       style="opacity:1;fill:#000000;fill-opacity:1;stroke-width:0;stroke-miterlimit:4;stroke-dasharray:none"
       id="path5231"
       d="m 97.116246,138.87145 c 0.219183,0.004 0.439383,0.011 0.653502,-0.042 0.0227,-0.0111 0.04539,-0.0221 0.06809,-0.0332 -0.133538,0.0741 -0.264475,0.1531 -0.400613,0.2223 -0.01873,0.01 0.03287,-0.0266 0.04671,-0.0424 0.0485,-0.0555 0.06805,-0.12164 0.08856,-0.19056 0.04865,-0.18366 0.09605,-0.36742 0.129164,-0.5546 0.0399,-0.19113 0.0964,-0.37882 0.15661,-0.56451 0.04784,-0.1438 0.06705,-0.29362 0.07685,-0.44411 0.0093,-0.1238 0.06336,-0.23628 0.09692,-0.35419 0.03678,-0.13378 0.01688,-0.26042 0.07715,-0.38729 0.425948,-0.42272 0.777333,-0.40547 1.294011,-0.36736 0.330594,0.0444 0.6869,0.0116 1.00138,0.14196 0.0404,0.0168 0.0775,0.0406 0.11621,0.0609 0.22984,0.20207 0.21802,0.48843 0.22971,0.77173 -0.006,0.29021 -0.0348,0.57927 -0.0536,0.86881 -0.0104,0.15787 -0.0136,0.31606 -0.015,0.47423 -5.3e-4,0.13271 -2.6e-4,0.26541 -1.4e-4,0.39812 0,0 -0.47093,0.24003 -0.47093,0.24003 v 0 c -1.8e-4,-0.13289 -5.3e-4,-0.26579 9e-5,-0.39868 0.001,-0.15971 0.005,-0.31945 0.0169,-0.47878 0.0214,-0.28855 0.0525,-0.57655 0.0606,-0.86593 -0.01,-0.25406 0.006,-0.54367 -0.20493,-0.72253 -0.339551,-0.17165 -0.728031,-0.15482 -1.098794,-0.19004 -0.190209,-0.0113 -0.37624,-0.0273 -0.564933,0.008 -0.0419,0.008 -0.157152,0.058 -0.124066,0.0311 0.02788,-0.0226 0.545486,-0.3353 0.296982,-0.18505 -0.01368,0.0163 -0.03198,0.0296 -0.04101,0.0488 -0.04522,0.0963 0.0021,0.22543 -0.04223,0.32386 -0.02922,0.11712 -0.0823,0.22556 -0.102171,0.34495 -0.0085,0.15442 -0.02543,0.30858 -0.07255,0.45672 -0.05859,0.18452 -0.11983,0.36879 -0.160589,0.55832 -0.03202,0.18828 -0.07771,0.37313 -0.125219,0.55799 -0.08595,0.35591 -0.29745,0.45829 -0.698244,0.58929 -0.21894,0.0398 -0.440388,0.0342 -0.662154,0.0345 0,0 0.427792,-0.31081 0.427792,-0.31081 z"
       inkscape:connector-curvature="0" />
    <path
       style="opacity:1;fill:#000000;fill-opacity:1;stroke-width:0;stroke-miterlimit:4;stroke-dasharray:none"
       id="path5233"
       d="m 70.015994,128.17975 c 0.05443,-0.11354 0.09741,-0.23155 0.135833,-0.35169 0.02828,-0.1094 0.07432,-0.21222 0.113301,-0.31764 0.03582,-0.11202 0.06794,-0.22525 0.0989,-0.3388 0.03297,-0.10959 0.06854,-0.21834 0.09367,-0.33022 0.0087,-0.0858 0.03441,-0.16679 0.05716,-0.2492 0.03255,-0.22937 0.298859,-0.29617 0.491492,-0.32268 0.267325,-0.0228 0.535949,-0.0216 0.803996,-0.0232 0.09753,0.0112 0.294199,-0.039 0.369593,0.0498 0.01253,0.0148 0.01884,0.0341 0.02827,0.0511 0.0058,0.0235 0.01337,0.0465 0.01732,0.0704 0.01824,0.11012 0.01543,0.22599 0.01626,0.33715 0.0022,0.3 -0.0029,-0.0137 0.0033,0.3063 0.0086,0.3345 0.04876,0.66632 0.08539,0.99834 0.02161,0.20014 0.03598,0.40098 0.0436,0.60219 0.0018,0.0503 0.0024,0.10065 0.003,0.15099 0,0 -0.237726,0.12572 -0.237726,0.12572 v 0 c 2.6e-5,-0.0504 2.4e-5,-0.10087 -9.31e-4,-0.1513 -0.0044,-0.20165 -0.01594,-0.40309 -0.03626,-0.60373 -0.03407,-0.33311 -0.0748,-0.66563 -0.08559,-1.00079 -0.0065,-0.23072 0.0082,-0.47147 -0.03891,-0.69732 -0.0074,-0.0134 -0.01213,-0.0289 -0.02235,-0.0401 -0.06269,-0.0687 -0.273617,-0.031 -0.35479,-0.0407 -0.267982,4e-4 -0.536909,-0.001 -0.80372,0.0279 -0.03225,0.006 -0.06492,0.009 -0.09675,0.0173 -0.02448,0.006 -0.09138,0.0408 -0.07174,0.0244 0.05424,-0.0451 0.118653,-0.0752 0.17798,-0.11275 -0.0098,0.01 -0.02214,0.0179 -0.02929,0.03 -0.0064,0.0109 -0.01866,0.0708 -0.02116,0.082 -0.02184,0.0824 -0.05088,0.16242 -0.05818,0.24822 -0.02447,0.11267 -0.05963,0.22232 -0.09421,0.33201 -0.03092,0.11396 -0.06273,0.22762 -0.097,0.34055 -0.03823,0.1056 -0.08626,0.20749 -0.114384,0.31687 -0.03838,0.12004 -0.08003,0.23842 -0.132633,0.35274 0,0 -0.243468,0.11597 -0.243468,0.11597 z"
       inkscape:connector-curvature="0" />
    <path
       style="opacity:1;fill:#000000;fill-opacity:1;stroke-width:0;stroke-miterlimit:4;stroke-dasharray:none"
       id="path5229-5"
       d="m 68.998771,138.52448 c 0.08562,-0.13849 0.160181,-0.28352 0.236222,-0.42763 0.06045,-0.11982 0.121916,-0.23948 0.174325,-0.36333 0.04756,-0.0965 0.07411,-0.20076 0.101025,-0.30473 0.02328,-0.11237 0.03487,-0.22386 0.08046,-0.32964 0.09683,-0.21624 0.31095,-0.38863 0.55124,-0.39822 0.162063,0.0379 0.277861,0.15917 0.386707,0.28027 0.103985,0.11477 0.183668,0.25009 0.236166,0.39704 0.04489,0.11314 0.06274,0.23439 0.09095,0.35247 0.02772,0.11389 0.03545,0.23141 0.04077,0.34827 0.0035,0.12356 0.0032,0.24717 0.0027,0.37076 0.0075,0.13545 0.02635,0.26964 0.06379,0.39977 0.05665,0.14965 0.126071,0.18375 0.274694,0.14458 0.111274,-0.072 0.399652,-0.15811 -0.13526,0.0846 -0.02429,0.011 0.0399,-0.0362 0.05769,-0.0565 0.04507,-0.0514 0.06976,-0.0953 0.106667,-0.15321 0.08475,-0.14845 0.162544,-0.30239 0.215859,-0.4659 0.04502,-0.13816 0.07438,-0.28123 0.09968,-0.42442 0.03256,-0.15771 0.05476,-0.31725 0.08516,-0.47536 0.01248,-0.13157 0.04297,-0.25107 0.102478,-0.36772 0,0 0.345267,-0.15964 0.345267,-0.15964 v 0 c -0.06204,0.11789 -0.10053,0.22125 -0.108508,0.35809 -0.03114,0.15786 -0.05452,0.31702 -0.086,0.47485 -0.02452,0.14449 -0.05208,0.28921 -0.09647,0.42877 -0.05129,0.16741 -0.131389,0.32313 -0.214428,0.47593 -0.0358,0.0598 -0.09872,0.18354 -0.156648,0.22311 -0.164436,0.11232 -0.329191,0.22621 -0.516267,0.29099 -0.170068,0.0207 -0.240268,-0.0293 -0.305294,-0.19172 -0.03934,-0.13342 -0.05866,-0.27101 -0.0687,-0.40994 -3.22e-4,-0.12291 4.56e-4,-0.24586 -0.0029,-0.36874 -0.0042,-0.11454 -0.01059,-0.22977 -0.03715,-0.34154 -0.02766,-0.11693 -0.04495,-0.23692 -0.08863,-0.34916 -0.04846,-0.14316 -0.125652,-0.2738 -0.226454,-0.38473 -0.101141,-0.11183 -0.213243,-0.23273 -0.369166,-0.24851 -0.153727,0.0323 -0.101513,0.028 0.21883,-0.1615 0.01406,-0.008 -0.02532,0.021 -0.03662,0.0329 -0.03621,0.0384 -0.06436,0.0847 -0.0856,0.13321 -0.05167,0.10231 -0.06387,0.21054 -0.08366,0.32289 -0.02603,0.10539 -0.04974,0.21238 -0.09852,0.30971 -0.0501,0.1265 -0.115421,0.24594 -0.174805,0.36794 -0.07684,0.14285 -0.148689,0.28858 -0.233168,0.42697 0,0 -0.346392,0.15892 -0.346392,0.15892 z"
       inkscape:connector-curvature="0" />
    <ellipse
       id="path3957"
       cx="75.168396"
       cy="162.13811"
       rx="1.2284226"
       ry="1.1339285"
       style="stroke-width:0.26458332" />
    <path
       style="opacity:1;fill:#000000;fill-opacity:1;stroke-width:0;stroke-miterlimit:4;stroke-dasharray:none"
       id="path5235-3"
       d="m 77.676609,128.69763 c 0.004,-0.1576 0.003,-0.31524 0.003,-0.47285 0.004,-0.16995 -0.008,-0.3398 -0.0336,-0.50878 -0.0255,-0.16244 -0.0612,-0.32394 -0.0829,-0.48666 -0.0194,-0.18374 -0.0212,-0.3679 -0.0377,-0.55177 -0.0105,-0.18759 -0.0316,-0.37445 -0.0734,-0.56001 -0.005,-0.0457 -0.0759,-0.20526 10e-4,-0.23864 0.11983,-0.0518 0.2475,-0.0945 0.371247,-0.1417 0.16145,-0.0116 0.32168,0.011 0.481047,0.0259 0.11318,0.011 0.2273,0.0152 0.34147,0.0171 0.10791,-0.001 0.18541,-0.002 0.253287,0.0616 0.0688,0.1144 0.0503,0.24741 0.0513,0.36883 -0.002,0.32762 -0.005,0.65526 -0.006,0.98289 -10e-4,0.37941 -3.2e-4,0.75882 0.001,1.13824 0.0131,0.18807 -0.0127,0.37807 0.0118,0.56576 0.004,0.008 0.003,0.0194 0.0125,0.0256 0.0112,0.007 0.0863,-0.003 0.0986,-0.004 0.0438,-0.003 0.0878,-0.006 0.13172,-0.008 0.205727,-0.0108 0.274907,-0.0116 0.496587,-0.0188 0.873484,-0.0213 1.747621,-0.0238 2.621535,-0.0288 0.500437,-0.003 0.261017,-0.001 0.718237,-0.004 0,0 -0.2821,0.14043 -0.2821,0.14043 v 0 c -0.451207,-6.9e-4 -0.2146,-5.3e-4 -0.709837,-1.8e-4 -0.877214,0.003 -1.754848,0.006 -2.631235,0.0351 -0.288897,0.0124 -0.251487,0.009 -0.507057,0.0253 -0.061,0.004 -0.210797,0.0327 -0.264277,-0.0134 -0.01,-0.009 -0.01,-0.021 -0.0144,-0.0316 -0.02,-0.19014 0.011,-0.38201 6.1e-4,-0.57241 0.002,-0.37989 0.003,-0.75977 0.003,-1.13965 -4.7e-4,-0.32612 -3.4e-4,-0.65225 -0.006,-0.97836 -0.003,-0.11579 0.0113,-0.24173 -0.0476,-0.35188 -0.0575,-0.0503 -0.14916,-0.0416 -0.23436,-0.0426 -0.114437,-0.003 -0.228687,-0.008 -0.341977,-0.0203 -0.15565,-0.0152 -0.315337,-0.0388 -0.471637,-0.0153 0.0889,-0.0386 0.17653,-0.0785 0.266617,-0.11564 0.0126,-0.005 -0.0256,0.0111 -0.0337,0.0195 -0.0482,0.0501 0.0132,0.1477 0.0134,0.20167 0.0394,0.18663 0.0622,0.37423 0.0728,0.56269 0.0169,0.18349 0.0203,0.36721 0.0386,0.55063 0.0215,0.1626 0.0578,0.32388 0.0829,0.48621 0.0266,0.16976 0.0394,0.34062 0.0347,0.51137 -1.5e-4,0.15684 -6.6e-4,0.3137 0.003,0.47052 0,0 -0.333147,0.11623 -0.333147,0.11623 z"
       inkscape:connector-curvature="0" />
    <path
       id="path4014"
       d="m 79.407878,136.5914 c 0.135187,0.007 0.272337,-0.0111 0.406671,0.007 0.04619,0.003 0.09091,-0.004 0.13621,0.006 0,0 -0.270884,0.19065 -0.270884,0.19065 v 0 c -0.04477,-0.003 -0.08972,2.3e-4 -0.134399,-0.006 -0.134269,-0.012 -0.269834,-7.9e-4 -0.404464,-0.004 0,0 0.266866,-0.19389 0.266866,-0.19389 z"
       inkscape:connector-curvature="0"
       style="stroke-width:0.26458332" />
    <path
       id="path4024"
       d="m 79.846041,136.71228 c -0.0017,0.17607 -0.0012,0.35215 -0.0011,0.52823 2.19e-4,0.15561 4.77e-4,0.31122 4.24e-4,0.46683 -9e-4,0.18065 -7.15e-4,0.3613 -1.78e-4,0.54194 -2.15e-4,0.1507 3.97e-4,0.3014 2.15e-4,0.45211 1.06e-4,0.1333 1.21e-4,0.2666 3.44e-4,0.3999 -0.0067,0.1314 0.01384,0.2613 0.02766,0.39152 0.0066,0.0616 0.01051,0.12349 0.01422,0.18534 0,0 -0.292673,0.1512 -0.292673,0.1512 v 0 c -0.0032,-0.0615 -0.0067,-0.12296 -0.01292,-0.18423 -0.01355,-0.13123 -0.03621,-0.26194 -0.02967,-0.39434 2.25e-4,-0.13342 2.41e-4,-0.26684 3.44e-4,-0.40026 -1.8e-4,-0.15077 4.23e-4,-0.30155 2.15e-4,-0.45232 5.29e-4,-0.18058 7.41e-4,-0.36117 -1.77e-4,-0.54176 -4.7e-5,-0.15575 2.09e-4,-0.31151 4.23e-4,-0.46727 8e-5,-0.17571 6.09e-4,-0.35142 -0.0011,-0.52713 0,0 0.293912,-0.14976 0.293912,-0.14976 z"
       inkscape:connector-curvature="0"
       style="stroke-width:0.26458332" />
    <g
       id="g4034"
       transform="translate(0.52916667)">
      <path
         style="stroke-width:0.26458332"
         inkscape:connector-curvature="0"
         d="m 78.841004,136.56952 c -0.0019,0.15204 -4.76e-4,0.30409 -4.23e-4,0.45613 -3.18e-4,0.14867 -6.8e-5,0.29733 -4.24e-4,0.44599 0.0095,0.15787 0.02895,0.31481 0.03869,0.47269 0.0084,0.1876 0.0082,0.37542 0.0082,0.56316 0.0034,0.2161 -0.0069,0.43263 0.0057,0.64847 0.0094,0.10039 0.02043,0.20057 0.02921,0.30101 0,0 -0.291643,0.1517 -0.291643,0.1517 v 0 c -0.0082,-0.10094 -0.01894,-0.20162 -0.02813,-0.30247 -0.01324,-0.21652 -0.0012,-0.43378 -0.0056,-0.65059 -9e-4,-0.18682 -10e-4,-0.37376 -0.0094,-0.56044 -0.0093,-0.15856 -0.02721,-0.31627 -0.03924,-0.47462 -3.44e-4,-0.14852 -9.3e-5,-0.29705 -4.23e-4,-0.44557 5.4e-5,-0.1519 0.0015,-0.30381 -4.23e-4,-0.4557 0,0 0.293912,-0.14976 0.293912,-0.14976 z"
         id="path4002" />
      <path
         style="stroke-width:0.26458332"
         inkscape:connector-curvature="0"
         d="m 79.360127,139.5419 c 0.425448,0.0128 0.850054,-0.009 1.274723,-0.0314 0.489614,-0.038 0.979308,-0.0737 1.469898,-0.0962 0.224855,-0.0105 0.449935,-0.0144 0.675008,-0.0157 0.09311,-1.3e-4 0.186222,1.4e-4 0.279333,2.5e-4 0,0 -0.266155,0.19328 -0.266155,0.19328 v 0 c -0.09293,-2.6e-4 -0.185849,-5.3e-4 -0.278774,-5.3e-4 -0.222857,2.7e-4 -0.445713,0.004 -0.668408,0.0125 -0.488791,0.0204 -0.976602,0.0559 -1.464409,0.0926 -0.429007,0.0236 -0.857971,0.0437 -1.287791,0.0388 0,0 0.266575,-0.19368 0.266575,-0.19368 z"
         id="path4030" />
    </g>
  </g>
</svg>
