<?xml version="1.0" encoding="UTF-8" standalone="no"?>
<svg
   xmlns:dc="http://purl.org/dc/elements/1.1/"
   xmlns:cc="http://creativecommons.org/ns#"
   xmlns:rdf="http://www.w3.org/1999/02/22-rdf-syntax-ns#"
   xmlns:svg="http://www.w3.org/2000/svg"
   xmlns="http://www.w3.org/2000/svg"
   xmlns:sodipodi="http://sodipodi.sourceforge.net/DTD/sodipodi-0.dtd"
   xmlns:inkscape="http://www.inkscape.org/namespaces/inkscape"
   width="179.5611"
   height="380"
   viewBox="0 0 47.508872 100.54167"
   version="1.1"
   id="svg3274"
   sodipodi:docname="wipPanel.svg"
   inkscape:version="1.0 (b51213c273, 2020-08-10)">
  <defs
     id="defs3268" />
  <sodipodi:namedview
     id="base"
     pagecolor="#ffffff"
     bordercolor="#666666"
     borderopacity="1.0"
     inkscape:pageopacity="0.0"
     inkscape:pageshadow="2"
     inkscape:zoom="1.3429515"
     inkscape:cx="164.17796"
     inkscape:cy="215.91522"
     inkscape:document-units="mm"
     inkscape:current-layer="svg3274"
     inkscape:document-rotation="0"
     showgrid="false"
     inkscape:window-width="1920"
     inkscape:window-height="1016"
     inkscape:window-x="0"
     inkscape:window-y="27"
     inkscape:window-maximized="1"
     fit-margin-top="0"
     fit-margin-left="0"
     fit-margin-right="0"
     fit-margin-bottom="0" />
  <metadata
     id="metadata3271">
    <rdf:RDF>
      <cc:Work
         rdf:about="">
        <dc:format>image/svg+xml</dc:format>
        <dc:type
           rdf:resource="http://purl.org/dc/dcmitype/StillImage" />
        <dc:title />
      </cc:Work>
    </rdf:RDF>
  </metadata>
  <g
     inkscape:label="Calque 1"
     inkscape:groupmode="layer"
     id="layer1" />
  <g
     inkscape:groupmode="layer"
     inkscape:label="Components"
     id="g5654" />
  <g
     inkscape:groupmode="layer"
     inkscape:label="Knobs Group"
     id="knobs-group">
    <g
       inkscape:groupmode="layer"
       inkscape:label="knob2"
       id="g5684">
      <g
         inkscape:groupmode="layer"
         inkscape:label="Main color"
         id="g5682" />
    </g>
  </g>
  <g
     inkscape:groupmode="layer"
     inkscape:label="Knob Scales Group"
     id="knob-scales-group">
    <g
       inkscape:groupmode="layer"
       inkscape:label="knob2"
       id="g5807">
      <g
         inkscape:groupmode="layer"
         inkscape:label="Ticks"
         id="g5753" />
      <g
         inkscape:groupmode="layer"
         inkscape:label="Subticks"
         id="g5775" />
      <g
         inkscape:groupmode="layer"
         inkscape:label="Labels"
         id="g5799" />
      <g
         inkscape:groupmode="layer"
         inkscape:label="Arcs"
         id="g5805" />
    </g>
  </g>
  <g
     inkscape:groupmode="layer"
     inkscape:label="Components"
     id="g6624" />
  <g
     inkscape:groupmode="layer"
     inkscape:label="Components"
     id="g6782" />
  <g
     inkscape:groupmode="layer"
     inkscape:label="Components"
     id="g6838" />
  <g
     inkscape:label="firstPanel"
     id="g7228"
     transform="scale(0.78242542)"
     style="fill:#999999">
    <g
       inkscape:groupmode="layer"
       inkscape:label="Panel"
       id="panel"
       style="fill:#999999">
      <rect
         x="0"
         y="0"
         width="60.720001"
         height="128.5"
         rx="0"
         ry="0"
         style="fill:#999999;stroke:none;stroke-width:0mm"
         id="rect7213" />
    </g>
    <g
       inkscape:groupmode="layer"
       inkscape:label="Holes"
       id="g7226"
       style="fill:#999999">
      <g
         inkscape:label="Holes"
         style="fill:#999999;stroke:none;stroke-width:0"
         id="g7224">
        <circle
           cx="7.5"
           cy="125.5"
           r="1.6"
           id="circle7216"
           style="fill:#999999" />
        <circle
           cx="7.5"
           cy="3"
           r="1.6"
           id="circle7218"
           style="fill:#999999" />
        <circle
           cx="53.220001"
           cy="125.5"
           r="1.6"
           id="circle7220"
           style="fill:#999999" />
        <circle
           cx="53.220001"
           cy="3"
           r="1.6"
           id="circle7222"
           style="fill:#999999" />
      </g>
    </g>
  </g>
  <g
     inkscape:groupmode="layer"
     inkscape:label="Components"
     id="g7230" />
  <path
     d="M 8.8521884,18.517466 7.1924268,20.177225"
     style="stroke:#ef2929;stroke-width:0.391213"
     id="path5731" />
  <path
     d="M 7.3347498,16.041246 5.8464975,16.524785"
     style="stroke:#ef2929;stroke-width:0.0782426"
     id="path5733" />
  <path
     d="M 7.1069078,13.145958 4.7885011,12.778765"
     style="stroke:#ef2929;stroke-width:0.391213"
     id="path5735" />
  <path
     d="M 8.2182671,10.462862 6.9523008,9.5430433"
     style="stroke:#ef2929;stroke-width:0.0782426"
     id="path5737" />
  <path
     d="M 10.426666,8.5767479 9.3610014,6.4853242"
     style="stroke:#ef2929;stroke-width:0.391213"
     id="path5739" />
  <path
     d="M 13.2506,7.8987766 V 6.3339242"
     style="stroke:#ef2929;stroke-width:0.0782426"
     id="path5741" />
  <path
     d="M 16.07461,8.5767479 17.140196,6.4853242"
     style="stroke:#ef2929;stroke-width:0.391213"
     id="path5743" />
  <path
     d="M 18.282928,10.462862 19.548894,9.5430433"
     style="stroke:#ef2929;stroke-width:0.0782426"
     id="path5745" />
  <path
     d="M 19.394286,13.145958 21.71269,12.778765"
     style="stroke:#ef2929;stroke-width:0.391213"
     id="path5747" />
  <path
     d="m 19.166444,16.041246 1.48825,0.483539"
     style="stroke:#ef2929;stroke-width:0.0782426"
     id="path5749" />
  <path
     d="m 17.649007,18.517466 1.659759,1.659759"
     style="stroke:#ef2929;stroke-width:0.391213"
     id="path5751" />
  <path
     d="M 7.9135901,17.3896 7.2464928,17.798417"
     style="fill:none;stroke:#eeeeec;stroke-width:0.782426"
     id="path5755" />
  <path
     d="m 7.0105128,14.610112 -0.7799993,0.06142"
     style="fill:none;stroke:#eeeeec;stroke-width:0.782426"
     id="path5757" />
  <path
     d="M 7.4676861,11.723663 6.7448018,11.424229"
     style="fill:none;stroke:#eeeeec;stroke-width:0.782426"
     id="path5759" />
  <path
     d="M 9.1854254,9.3593306 8.6773174,8.7643729"
     style="fill:none;stroke:#eeeeec;stroke-width:0.782426"
     id="path5761" />
  <path
     d="M 11.789419,8.0325706 11.606723,7.2717389"
     style="fill:none;stroke:#eeeeec;stroke-width:0.782426"
     id="path5763" />
  <path
     d="M 14.711859,8.0325706 14.894478,7.2717389"
     style="fill:none;stroke:#eeeeec;stroke-width:0.782426"
     id="path5765" />
  <path
     d="M 17.315773,9.3593306 17.823958,8.7643729"
     style="fill:none;stroke:#eeeeec;stroke-width:0.782426"
     id="path5767" />
  <path
     d="m 19.033588,11.723663 0.722804,-0.299434"
     style="fill:none;stroke:#eeeeec;stroke-width:0.782426"
     id="path5769" />
  <path
     d="m 19.490759,14.610112 0.78,0.06142"
     style="fill:none;stroke:#eeeeec;stroke-width:0.782426"
     id="path5771" />
  <path
     d="m 18.587605,17.3896 0.667175,0.408817"
     style="fill:none;stroke:#eeeeec;stroke-width:0.782426"
     id="path5773" />
  <g
     aria-label="-1.6"
     id="text5779"
     style="font-size:1.56485px;text-align:center;text-anchor:middle;fill:#eeeeec;stroke-width:0.782426">
    <path
       d="m 2.8692708,17.311547 h 0.4118428 v 0.12531 H 2.8692708 Z"
       style="font-size:1.56485px;text-align:center;text-anchor:middle;fill:#eeeeec;stroke-width:0.782426"
       id="path975" />
    <path
       d="m 3.5523645,17.67296 h 0.2521486 v -0.870295 l -0.2743072,0.05501 v -0.140592 l 0.2727791,-0.05501 h 0.1543455 v 1.010887 h 0.2521487 v 0.129895 H 3.5523645 Z"
       style="font-size:1.56485px;text-align:center;text-anchor:middle;fill:#eeeeec;stroke-width:0.782426"
       id="path977" />
    <path
       d="M 4.5219907,17.608776 H 4.683213 v 0.194079 H 4.5219907 Z"
       style="font-size:1.56485px;text-align:center;text-anchor:middle;fill:#eeeeec;stroke-width:0.782426"
       id="path979" />
    <path
       d="m 5.3693631,17.170955 q -0.1039159,0 -0.1650428,0.07106 -0.060363,0.07106 -0.060363,0.194842 0,0.123018 0.060363,0.194842 0.061127,0.07106 0.1650428,0.07106 0.1039158,0 0.1642786,-0.07106 0.061127,-0.07182 0.061127,-0.194842 0,-0.123782 -0.061127,-0.194842 -0.060363,-0.07106 -0.1642786,-0.07106 z m 0.3063988,-0.483667 v 0.140592 q -0.058071,-0.02751 -0.1176694,-0.04202 -0.058835,-0.01452 -0.1169053,-0.01452 -0.1528174,0 -0.2338106,0.103152 -0.080229,0.103152 -0.09169,0.311747 0.045081,-0.06648 0.1130849,-0.101623 0.068004,-0.03591 0.149761,-0.03591 0.1719195,0 0.2712508,0.10468 0.1000954,0.103915 0.1000954,0.283476 0,0.17574 -0.1039158,0.281948 -0.1039158,0.106208 -0.2765994,0.106208 -0.1978986,0 -0.3025785,-0.151289 -0.1046799,-0.152053 -0.1046799,-0.440114 0,-0.270487 0.1283666,-0.430945 0.1283666,-0.161223 0.3446032,-0.161223 0.058071,0 0.1169053,0.01146 0.059599,0.01146 0.1237821,0.03438 z"
       style="font-size:1.56485px;text-align:center;text-anchor:middle;fill:#eeeeec;stroke-width:0.782426"
       id="path981" />
  </g>
  <g
     aria-label="-2.0"
     id="text5777"
     style="font-size:1.56485px;text-align:center;text-anchor:middle;fill:#eeeeec;stroke-width:0.782426">
    <path
       d="m 4.606481,21.602509 h 0.4118429 v 0.12531 H 4.606481 Z"
       style="font-size:1.56485px;text-align:center;text-anchor:middle;fill:#eeeeec;stroke-width:0.782426"
       id="path966" />
    <path
       d="m 5.3957828,21.963922 h 0.5386813 v 0.129895 H 5.2101097 v -0.129895 q 0.08787,-0.09093 0.2391592,-0.243744 0.1520533,-0.153581 0.1910217,-0.197898 0.074116,-0.08329 0.1031517,-0.140592 0.029799,-0.05807 0.029799,-0.113849 0,-0.09093 -0.064183,-0.148233 -0.063419,-0.05731 -0.1658068,-0.05731 -0.072588,0 -0.1535815,0.02521 -0.080229,0.02522 -0.1719195,0.07641 v -0.155874 q 0.093219,-0.03744 0.1742118,-0.05654 0.080993,-0.0191 0.1482328,-0.0191 0.1772682,0 0.2827122,0.08863 0.105444,0.08863 0.105444,0.236867 0,0.0703 -0.026743,0.133715 -0.025979,0.06265 -0.095511,0.148233 -0.019102,0.02216 -0.1214898,0.128366 -0.1023877,0.105444 -0.2888249,0.295702 z"
       style="font-size:1.56485px;text-align:center;text-anchor:middle;fill:#eeeeec;stroke-width:0.782426"
       id="path968" />
    <path
       d="m 6.2592009,21.899739 h 0.1612224 v 0.194078 H 6.2592009 Z"
       style="font-size:1.56485px;text-align:center;text-anchor:middle;fill:#eeeeec;stroke-width:0.782426"
       id="path970" />
    <path
       d="m 7.0874712,21.054659 q -0.1191976,0 -0.1795605,0.117669 -0.059599,0.116905 -0.059599,0.352244 0,0.234575 0.059599,0.352244 0.060363,0.116905 0.1795605,0.116905 0.1199616,0 0.1795604,-0.116905 0.060363,-0.117669 0.060363,-0.352244 0,-0.235339 -0.060363,-0.352244 -0.059599,-0.117669 -0.1795604,-0.117669 z m 0,-0.122254 q 0.1917858,0 0.2926452,0.152053 0.1016236,0.151289 0.1016236,0.440114 0,0.288061 -0.1016236,0.440114 -0.1008594,0.151289 -0.2926452,0.151289 -0.1917859,0 -0.2934094,-0.151289 -0.1008595,-0.152053 -0.1008595,-0.440114 0,-0.288825 0.1008595,-0.440114 0.1016235,-0.152053 0.2934094,-0.152053 z"
       style="font-size:1.56485px;text-align:center;text-anchor:middle;fill:#eeeeec;stroke-width:0.782426"
       id="path972" />
  </g>
  <g
     aria-label="-1.2"
     id="text5781"
     style="font-size:1.56485px;text-align:center;text-anchor:middle;fill:#eeeeec;stroke-width:0.782426">
    <path
       d="m 1.7525401,12.818982 h 0.4118428 v 0.125311 H 1.7525401 Z"
       style="font-size:1.56485px;text-align:center;text-anchor:middle;fill:#eeeeec;stroke-width:0.782426"
       id="path984" />
    <path
       d="m 2.4356338,13.180396 h 0.2521486 v -0.870295 l -0.2743072,0.05501 v -0.140592 l 0.2727791,-0.05501 h 0.1543455 v 1.010887 H 3.0927485 V 13.31029 H 2.4356338 Z"
       style="font-size:1.56485px;text-align:center;text-anchor:middle;fill:#eeeeec;stroke-width:0.782426"
       id="path986" />
    <path
       d="M 3.40526,13.116212 H 3.5664823 V 13.31029 H 3.40526 Z"
       style="font-size:1.56485px;text-align:center;text-anchor:middle;fill:#eeeeec;stroke-width:0.782426"
       id="path988" />
    <path
       d="M 4.0363958,13.180396 H 4.575077 V 13.31029 H 3.8507227 v -0.129894 q 0.08787,-0.09093 0.2391592,-0.243744 0.1520532,-0.153582 0.1910217,-0.197899 0.074116,-0.08329 0.1031517,-0.140592 0.029799,-0.05807 0.029799,-0.113849 0,-0.09093 -0.064183,-0.148232 -0.063419,-0.05731 -0.1658069,-0.05731 -0.072588,0 -0.1535814,0.02522 -0.080229,0.02521 -0.1719196,0.07641 v -0.155874 q 0.093219,-0.03744 0.1742118,-0.05654 0.080993,-0.0191 0.1482329,-0.0191 0.1772682,0 0.2827121,0.08863 0.105444,0.08863 0.105444,0.236867 0,0.0703 -0.026743,0.133715 -0.025979,0.06266 -0.095511,0.148233 -0.019102,0.02216 -0.1214898,0.128367 -0.1023876,0.105444 -0.2888248,0.295702 z"
       style="font-size:1.56485px;text-align:center;text-anchor:middle;fill:#eeeeec;stroke-width:0.782426"
       id="path990" />
  </g>
  <g
     aria-label="-0.8"
     id="text5783"
     style="font-size:1.56485px;text-align:center;text-anchor:middle;fill:#eeeeec;stroke-width:0.782426">
    <path
       d="M 4.2028946,8.8913749 H 4.6147375 V 9.0166852 H 4.2028946 Z"
       style="font-size:1.56485px;text-align:center;text-anchor:middle;fill:#eeeeec;stroke-width:0.782426"
       id="path993" />
    <path
       d="m 5.1893308,8.3435246 q -0.1191975,0 -0.1795604,0.1176694 -0.059599,0.1169053 -0.059599,0.3522441 0,0.2345746 0.059599,0.352244 0.060363,0.1169053 0.1795604,0.1169053 0.1199617,0 0.1795605,-0.1169053 0.060363,-0.1176694 0.060363,-0.352244 0,-0.2353388 -0.060363,-0.3522441 Q 5.3092925,8.3435246 5.1893308,8.3435246 Z m 0,-0.1222539 q 0.1917859,0 0.2926453,0.1520533 0.1016236,0.1512892 0.1016236,0.4401141 0,0.2880607 -0.1016236,0.440114 -0.1008594,0.1512892 -0.2926453,0.1512892 -0.1917858,0 -0.2934093,-0.1512892 Q 4.795062,9.1014988 4.795062,8.8134381 4.795062,8.5246132 4.8959215,8.373324 4.997545,8.2212707 5.1893308,8.2212707 Z"
       style="font-size:1.56485px;text-align:center;text-anchor:middle;fill:#eeeeec;stroke-width:0.782426"
       id="path995" />
    <path
       d="M 5.8556145,9.1886047 H 6.0168369 V 9.3826828 H 5.8556145 Z"
       style="font-size:1.56485px;text-align:center;text-anchor:middle;fill:#eeeeec;stroke-width:0.782426"
       id="path997" />
    <path
       d="m 6.6838848,8.8409452 q -0.1100285,0 -0.1734478,0.058835 -0.062655,0.058835 -0.062655,0.1619864 0,0.1031517 0.062655,0.1619864 0.063419,0.058835 0.1734478,0.058835 0.1100285,0 0.1734477,-0.058835 0.063419,-0.059599 0.063419,-0.1619864 0,-0.1031517 -0.063419,-0.1619864 -0.062655,-0.058835 -0.1734477,-0.058835 z M 6.5295392,8.7752337 q -0.099331,-0.024451 -0.1551096,-0.092454 -0.055014,-0.068004 -0.055014,-0.1658069 0,-0.1367715 0.097039,-0.2162366 0.097803,-0.079465 0.2674304,-0.079465 0.1703913,0 0.2674304,0.079465 0.097039,0.079465 0.097039,0.2162366 0,0.097803 -0.055778,0.1658069 -0.055014,0.068004 -0.1535815,0.092454 0.1115567,0.025979 0.1734477,0.1016236 0.062655,0.075645 0.062655,0.184909 0,0.1658069 -0.1016236,0.2544409 -0.1008595,0.088634 -0.2895889,0.088634 -0.1887295,0 -0.2903531,-0.088634 -0.1008594,-0.088634 -0.1008594,-0.2544409 0,-0.1092644 0.062655,-0.184909 0.062655,-0.075645 0.1742118,-0.1016236 z M 6.4729968,8.53149 q 0,0.088634 0.055014,0.1382997 0.055778,0.049666 0.1558738,0.049666 0.099331,0 0.1551096,-0.049666 0.056542,-0.049666 0.056542,-0.1382997 0,-0.088634 -0.056542,-0.1382997 -0.055778,-0.049666 -0.1551096,-0.049666 -0.1000954,0 -0.1558738,0.049666 -0.055014,0.049666 -0.055014,0.1382997 z"
       style="font-size:1.56485px;text-align:center;text-anchor:middle;fill:#eeeeec;stroke-width:0.782426"
       id="path999" />
  </g>
  <g
     aria-label="-0.4"
     id="text5785"
     style="font-size:1.56485px;text-align:center;text-anchor:middle;fill:#eeeeec;stroke-width:0.782426">
    <path
       d="M 7.1810617,5.3472518 H 7.5929045 V 5.472562 H 7.1810617 Z"
       style="font-size:1.56485px;text-align:center;text-anchor:middle;fill:#eeeeec;stroke-width:0.782426"
       id="path1002" />
    <path
       d="m 8.1674979,4.7994014 q -0.1191976,0 -0.1795604,0.1176694 -0.059599,0.1169053 -0.059599,0.3522441 0,0.2345747 0.059599,0.352244 0.060363,0.1169053 0.1795604,0.1169053 0.1199616,0 0.1795604,-0.1169053 0.060363,-0.1176693 0.060363,-0.352244 0,-0.2353388 -0.060363,-0.3522441 Q 8.2874595,4.7994014 8.1674979,4.7994014 Z m 0,-0.1222539 q 0.1917858,0 0.2926453,0.1520533 0.1016235,0.1512892 0.1016235,0.4401141 0,0.2880607 -0.1016235,0.440114 -0.1008595,0.1512892 -0.2926453,0.1512892 -0.1917858,0 -0.2934094,-0.1512892 -0.1008594,-0.1520533 -0.1008594,-0.440114 0,-0.2888249 0.1008594,-0.4401141 0.1016236,-0.1520533 0.2934094,-0.1520533 z"
       style="font-size:1.56485px;text-align:center;text-anchor:middle;fill:#eeeeec;stroke-width:0.782426"
       id="path1004" />
    <path
       d="m 8.8337816,5.6444816 h 0.1612223 v 0.194078 H 8.8337816 Z"
       style="font-size:1.56485px;text-align:center;text-anchor:middle;fill:#eeeeec;stroke-width:0.782426"
       id="path1006" />
    <path
       d="M 9.7560345,4.8322572 9.3663502,5.4412344 H 9.7560345 Z M 9.7155379,4.6977779 H 9.909616 v 0.7434565 h 0.16275 V 5.569601 H 9.909616 V 5.8385596 H 9.7560345 V 5.569601 H 9.2410399 V 5.4206041 Z"
       style="font-size:1.56485px;text-align:center;text-anchor:middle;fill:#eeeeec;stroke-width:0.782426"
       id="path1008" />
  </g>
  <g
     aria-label="0.0"
     id="text5787"
     style="font-size:1.56485px;text-align:center;text-anchor:middle;fill:#eeeeec;stroke-width:0.782426">
    <path
       d="m 12.502567,4.4731971 q -0.119197,0 -0.17956,0.1176694 -0.0596,0.1169053 -0.0596,0.3522441 0,0.2345747 0.0596,0.352244 0.06036,0.1169053 0.17956,0.1169053 0.119962,0 0.179561,-0.1169053 0.06036,-0.1176693 0.06036,-0.352244 0,-0.2353388 -0.06036,-0.3522441 -0.0596,-0.1176694 -0.179561,-0.1176694 z m 0,-0.1222539 q 0.191786,0 0.292646,0.1520533 0.101623,0.1512892 0.101623,0.4401141 0,0.2880607 -0.101623,0.440114 -0.10086,0.1512892 -0.292646,0.1512892 -0.191785,0 -0.293409,-0.1512892 -0.100859,-0.1520533 -0.100859,-0.440114 0,-0.2888249 0.100859,-0.4401141 0.101624,-0.1520533 0.293409,-0.1520533 z"
       style="font-size:1.56485px;text-align:center;text-anchor:middle;fill:#eeeeec;stroke-width:0.782426"
       id="path1011" />
    <path
       d="m 13.168851,5.3182773 h 0.161222 v 0.194078 h -0.161222 z"
       style="font-size:1.56485px;text-align:center;text-anchor:middle;fill:#eeeeec;stroke-width:0.782426"
       id="path1013" />
    <path
       d="m 13.997121,4.4731971 q -0.119197,0 -0.17956,0.1176694 -0.0596,0.1169053 -0.0596,0.3522441 0,0.2345747 0.0596,0.352244 0.06036,0.1169053 0.17956,0.1169053 0.119962,0 0.179561,-0.1169053 0.06036,-0.1176693 0.06036,-0.352244 0,-0.2353388 -0.06036,-0.3522441 -0.0596,-0.1176694 -0.179561,-0.1176694 z m 0,-0.1222539 q 0.191786,0 0.292646,0.1520533 0.101623,0.1512892 0.101623,0.4401141 0,0.2880607 -0.101623,0.440114 -0.10086,0.1512892 -0.292646,0.1512892 -0.191786,0 -0.293409,-0.1512892 -0.10086,-0.1520533 -0.10086,-0.440114 0,-0.2888249 0.10086,-0.4401141 0.101623,-0.1520533 0.293409,-0.1520533 z"
       style="font-size:1.56485px;text-align:center;text-anchor:middle;fill:#eeeeec;stroke-width:0.782426"
       id="path1015" />
  </g>
  <g
     aria-label="0.4"
     id="text5789"
     style="font-size:1.56485px;text-align:center;text-anchor:middle;fill:#eeeeec;stroke-width:0.782426">
    <path
       d="m 17.120358,4.7994014 q -0.119198,0 -0.179561,0.1176694 -0.0596,0.1169053 -0.0596,0.3522441 0,0.2345747 0.0596,0.352244 0.06036,0.1169053 0.179561,0.1169053 0.119961,0 0.17956,-0.1169053 0.06036,-0.1176693 0.06036,-0.352244 0,-0.2353388 -0.06036,-0.3522441 -0.0596,-0.1176694 -0.17956,-0.1176694 z m 0,-0.1222539 q 0.191785,0 0.292645,0.1520533 0.101623,0.1512892 0.101623,0.4401141 0,0.2880607 -0.101623,0.440114 -0.10086,0.1512892 -0.292645,0.1512892 -0.191786,0 -0.29341,-0.1512892 -0.100859,-0.1520533 -0.100859,-0.440114 0,-0.2888249 0.100859,-0.4401141 0.101624,-0.1520533 0.29341,-0.1520533 z"
       style="font-size:1.56485px;text-align:center;text-anchor:middle;fill:#eeeeec;stroke-width:0.782426"
       id="path1018" />
    <path
       d="m 17.786641,5.6444816 h 0.161223 v 0.194078 h -0.161223 z"
       style="font-size:1.56485px;text-align:center;text-anchor:middle;fill:#eeeeec;stroke-width:0.782426"
       id="path1020" />
    <path
       d="M 18.708894,4.8322572 18.31921,5.4412344 h 0.389684 z m -0.0405,-0.1344793 h 0.194078 v 0.7434565 h 0.16275 V 5.569601 h -0.16275 V 5.8385596 H 18.708894 V 5.569601 H 18.1939 V 5.4206041 Z"
       style="font-size:1.56485px;text-align:center;text-anchor:middle;fill:#eeeeec;stroke-width:0.782426"
       id="path1022" />
  </g>
  <g
     aria-label="0.8"
     id="text5791"
     style="font-size:1.56485px;text-align:center;text-anchor:middle;fill:#eeeeec;stroke-width:0.782426">
    <path
       d="m 20.098539,8.3435246 q -0.119197,0 -0.17956,0.1176694 -0.0596,0.1169053 -0.0596,0.3522441 0,0.2345746 0.0596,0.352244 0.06036,0.1169053 0.17956,0.1169053 0.119962,0 0.179561,-0.1169053 0.06036,-0.1176694 0.06036,-0.352244 0,-0.2353388 -0.06036,-0.3522441 -0.0596,-0.1176694 -0.179561,-0.1176694 z m 0,-0.1222539 q 0.191786,0 0.292646,0.1520533 0.101623,0.1512892 0.101623,0.4401141 0,0.2880607 -0.101623,0.440114 -0.10086,0.1512892 -0.292646,0.1512892 -0.191785,0 -0.293409,-0.1512892 -0.100859,-0.1520533 -0.100859,-0.440114 0,-0.2888249 0.100859,-0.4401141 0.101624,-0.1520533 0.293409,-0.1520533 z"
       style="font-size:1.56485px;text-align:center;text-anchor:middle;fill:#eeeeec;stroke-width:0.782426"
       id="path1025" />
    <path
       d="m 20.764823,9.1886047 h 0.161223 v 0.1940781 h -0.161223 z"
       style="font-size:1.56485px;text-align:center;text-anchor:middle;fill:#eeeeec;stroke-width:0.782426"
       id="path1027" />
    <path
       d="m 21.593093,8.8409452 q -0.110028,0 -0.173447,0.058835 -0.06265,0.058835 -0.06265,0.1619864 0,0.1031517 0.06265,0.1619864 0.06342,0.058835 0.173447,0.058835 0.110029,0 0.173448,-0.058835 0.06342,-0.059599 0.06342,-0.1619864 0,-0.1031517 -0.06342,-0.1619864 -0.06265,-0.058835 -0.173448,-0.058835 z m -0.154345,-0.065712 q -0.09933,-0.024451 -0.15511,-0.092454 -0.05501,-0.068004 -0.05501,-0.1658069 0,-0.1367715 0.09704,-0.2162366 0.0978,-0.079465 0.26743,-0.079465 0.170392,0 0.267431,0.079465 0.09704,0.079465 0.09704,0.2162366 0,0.097803 -0.05578,0.1658069 -0.05501,0.068004 -0.153581,0.092454 0.111557,0.025979 0.173448,0.1016236 0.06265,0.075645 0.06265,0.184909 0,0.1658069 -0.101624,0.2544409 -0.100859,0.088634 -0.289589,0.088634 -0.188729,0 -0.290353,-0.088634 -0.100859,-0.088634 -0.100859,-0.2544409 0,-0.1092644 0.06265,-0.184909 0.06265,-0.075645 0.174212,-0.1016236 z M 21.382205,8.53149 q 0,0.088634 0.05502,0.1382997 0.05578,0.049666 0.155873,0.049666 0.09933,0 0.15511,-0.049666 0.05654,-0.049666 0.05654,-0.1382997 0,-0.088634 -0.05654,-0.1382997 -0.05578,-0.049666 -0.15511,-0.049666 -0.100095,0 -0.155873,0.049666 -0.05502,0.049666 -0.05502,0.1382997 z"
       style="font-size:1.56485px;text-align:center;text-anchor:middle;fill:#eeeeec;stroke-width:0.782426"
       id="path1029" />
  </g>
  <g
     aria-label="1.2"
     id="text5793"
     style="font-size:1.56485px;text-align:center;text-anchor:middle;fill:#eeeeec;stroke-width:0.782426">
    <path
       d="m 22.245552,13.180396 h 0.252149 v -0.870295 l -0.274307,0.05501 v -0.140592 l 0.272779,-0.05501 h 0.154346 v 1.010887 h 0.252148 v 0.129894 h -0.657115 z"
       style="font-size:1.56485px;text-align:center;text-anchor:middle;fill:#eeeeec;stroke-width:0.782426"
       id="path1032" />
    <path
       d="m 23.215179,13.116212 h 0.161222 v 0.194078 h -0.161222 z"
       style="font-size:1.56485px;text-align:center;text-anchor:middle;fill:#eeeeec;stroke-width:0.782426"
       id="path1034" />
    <path
       d="m 23.846314,13.180396 h 0.538682 v 0.129894 h -0.724355 v -0.129894 q 0.08787,-0.09093 0.23916,-0.243744 0.152053,-0.153582 0.191021,-0.197899 0.07412,-0.08329 0.103152,-0.140592 0.0298,-0.05807 0.0298,-0.113849 0,-0.09093 -0.06418,-0.148232 -0.06342,-0.05731 -0.165807,-0.05731 -0.07259,0 -0.153581,0.02522 -0.08023,0.02521 -0.17192,0.07641 v -0.155874 q 0.09322,-0.03744 0.174212,-0.05654 0.08099,-0.0191 0.148233,-0.0191 0.177268,0 0.282712,0.08863 0.105444,0.08863 0.105444,0.236867 0,0.0703 -0.02674,0.133715 -0.02598,0.06266 -0.09551,0.148233 -0.0191,0.02216 -0.12149,0.128367 -0.102387,0.105444 -0.288825,0.295702 z"
       style="font-size:1.56485px;text-align:center;text-anchor:middle;fill:#eeeeec;stroke-width:0.782426"
       id="path1036" />
  </g>
  <g
     aria-label="1.6"
     id="text5795"
     style="font-size:1.56485px;text-align:center;text-anchor:middle;fill:#eeeeec;stroke-width:0.782426">
    <path
       d="m 21.128821,17.67296 h 0.252148 v -0.870295 l -0.274307,0.05501 v -0.140592 l 0.272779,-0.05501 h 0.154346 v 1.010887 h 0.252149 v 0.129895 h -0.657115 z"
       style="font-size:1.56485px;text-align:center;text-anchor:middle;fill:#eeeeec;stroke-width:0.782426"
       id="path1039" />
    <path
       d="m 22.098447,17.608776 h 0.161222 v 0.194079 h -0.161222 z"
       style="font-size:1.56485px;text-align:center;text-anchor:middle;fill:#eeeeec;stroke-width:0.782426"
       id="path1041" />
    <path
       d="m 22.945819,17.170955 q -0.103915,0 -0.165042,0.07106 -0.06036,0.07106 -0.06036,0.194842 0,0.123018 0.06036,0.194842 0.06113,0.07106 0.165042,0.07106 0.103916,0 0.164279,-0.07106 0.06113,-0.07182 0.06113,-0.194842 0,-0.123782 -0.06113,-0.194842 -0.06036,-0.07106 -0.164279,-0.07106 z m 0.306399,-0.483667 v 0.140592 q -0.05807,-0.02751 -0.117669,-0.04202 -0.05883,-0.01452 -0.116905,-0.01452 -0.152818,0 -0.233811,0.103152 -0.08023,0.103152 -0.09169,0.311747 0.04508,-0.06648 0.113084,-0.101623 0.068,-0.03591 0.149761,-0.03591 0.17192,0 0.271251,0.10468 0.100096,0.103915 0.100096,0.283476 0,0.17574 -0.103916,0.281948 -0.103916,0.106208 -0.2766,0.106208 -0.197898,0 -0.302578,-0.151289 -0.10468,-0.152053 -0.10468,-0.440114 0,-0.270487 0.128367,-0.430945 0.128366,-0.161223 0.344603,-0.161223 0.05807,0 0.116905,0.01146 0.0596,0.01146 0.123782,0.03438 z"
       style="font-size:1.56485px;text-align:center;text-anchor:middle;fill:#eeeeec;stroke-width:0.782426"
       id="path1043" />
  </g>
  <g
     aria-label="2.0"
     id="text5797"
     style="font-size:1.56485px;text-align:center;text-anchor:middle;fill:#eeeeec;stroke-width:0.782426">
    <path
       d="m 19.497818,21.963922 h 0.538681 v 0.129895 h -0.724354 v -0.129895 q 0.08787,-0.09093 0.239159,-0.243744 0.152053,-0.153581 0.191021,-0.197898 0.07412,-0.08329 0.103152,-0.140592 0.0298,-0.05807 0.0298,-0.113849 0,-0.09093 -0.06418,-0.148233 -0.06342,-0.05731 -0.165807,-0.05731 -0.07259,0 -0.153581,0.02521 -0.08023,0.02522 -0.17192,0.07641 v -0.155874 q 0.09322,-0.03744 0.174212,-0.05654 0.08099,-0.0191 0.148233,-0.0191 0.177268,0 0.282712,0.08863 0.105444,0.08863 0.105444,0.236867 0,0.0703 -0.02674,0.133715 -0.02598,0.06265 -0.09551,0.148233 -0.0191,0.02216 -0.121489,0.128366 -0.102388,0.105444 -0.288825,0.295702 z"
       style="font-size:1.56485px;text-align:center;text-anchor:middle;fill:#eeeeec;stroke-width:0.782426"
       id="path1046" />
    <path
       d="m 20.361236,21.899739 h 0.161222 v 0.194078 h -0.161222 z"
       style="font-size:1.56485px;text-align:center;text-anchor:middle;fill:#eeeeec;stroke-width:0.782426"
       id="path1048" />
    <path
       d="m 21.189506,21.054659 q -0.119198,0 -0.17956,0.117669 -0.0596,0.116905 -0.0596,0.352244 0,0.234575 0.0596,0.352244 0.06036,0.116905 0.17956,0.116905 0.119962,0 0.17956,-0.116905 0.06036,-0.117669 0.06036,-0.352244 0,-0.235339 -0.06036,-0.352244 -0.0596,-0.117669 -0.17956,-0.117669 z m 0,-0.122254 q 0.191786,0 0.292645,0.152053 0.101624,0.151289 0.101624,0.440114 0,0.288061 -0.101624,0.440114 -0.100859,0.151289 -0.292645,0.151289 -0.191786,0 -0.293409,-0.151289 -0.10086,-0.152053 -0.10086,-0.440114 0,-0.288825 0.10086,-0.440114 0.101623,-0.152053 0.293409,-0.152053 z"
       style="font-size:1.56485px;text-align:center;text-anchor:middle;fill:#eeeeec;stroke-width:0.782426"
       id="path1050" />
  </g>
  <path
     id="path5801"
     style="fill:none;stroke:#eeeeec;stroke-width:0.0782426"
     d="m 8.8245419,18.54511 a 6.2594032,6.2594032 0 0 1 10e-8,-8.8521331 6.2594032,6.2594032 0 0 1 8.852133,0 6.2594032,6.2594032 0 0 1 0,8.8521331" />
  <path
     id="path5803"
     style="fill:none;stroke:#eeeeec;stroke-width:0.0782426"
     d="m 8.2436194,19.126032 a 7.0809517,7.0809517 0 0 1 10e-8,-10.0139776 7.0809517,7.0809517 0 0 1 10.0139775,0 7.0809517,7.0809517 0 0 1 0,10.0139776" />
  <path
     d="M 8.8547334,39.583725 7.1949718,41.243486"
     style="stroke:#ef2929;stroke-width:0.391213"
     id="path5731-5" />
  <path
     d="M 7.3372948,37.107506 5.8490415,37.591043"
     style="stroke:#ef2929;stroke-width:0.0782426"
     id="path5733-2" />
  <path
     d="M 7.1094528,34.212218 4.7910461,33.845027"
     style="stroke:#ef2929;stroke-width:0.391213"
     id="path5735-5" />
  <path
     d="M 8.2208111,31.529124 6.9548448,30.609306"
     style="stroke:#ef2929;stroke-width:0.0782426"
     id="path5737-4" />
  <path
     d="M 10.429211,29.643012 9.3635454,27.551588"
     style="stroke:#ef2929;stroke-width:0.391213"
     id="path5739-7" />
  <path
     d="m 13.253145,28.965039 v -1.56485"
     style="stroke:#ef2929;stroke-width:0.0782426"
     id="path5741-4" />
  <path
     d="m 16.077155,29.643012 1.065586,-2.091424"
     style="stroke:#ef2929;stroke-width:0.391213"
     id="path5743-4" />
  <path
     d="m 18.285473,31.529124 1.265965,-0.919818"
     style="stroke:#ef2929;stroke-width:0.0782426"
     id="path5745-3" />
  <path
     d="m 19.396831,34.212218 2.318404,-0.367191"
     style="stroke:#ef2929;stroke-width:0.391213"
     id="path5747-0" />
  <path
     d="m 19.168988,37.107506 1.488253,0.483537"
     style="stroke:#ef2929;stroke-width:0.0782426"
     id="path5749-7" />
  <path
     d="m 17.651552,39.583725 1.659759,1.659761"
     style="stroke:#ef2929;stroke-width:0.391213"
     id="path5751-8" />
  <path
     d="M 7.9161351,38.45586 7.2490368,38.864678"
     style="fill:none;stroke:#eeeeec;stroke-width:0.782426"
     id="path5755-6" />
  <path
     d="m 7.0130578,35.676372 -0.7800003,0.06142"
     style="fill:none;stroke:#eeeeec;stroke-width:0.782426"
     id="path5757-8" />
  <path
     d="M 7.4702301,32.789927 6.7473458,32.490492"
     style="fill:none;stroke:#eeeeec;stroke-width:0.782426"
     id="path5759-8" />
  <path
     d="M 9.1879694,30.425593 8.6798614,29.830638"
     style="fill:none;stroke:#eeeeec;stroke-width:0.782426"
     id="path5761-4" />
  <path
     d="m 11.791963,29.098834 -0.182696,-0.76083"
     style="fill:none;stroke:#eeeeec;stroke-width:0.782426"
     id="path5763-3" />
  <path
     d="m 14.714404,29.098834 0.182618,-0.76083"
     style="fill:none;stroke:#eeeeec;stroke-width:0.782426"
     id="path5765-1" />
  <path
     d="m 17.318317,30.425593 0.508186,-0.594955"
     style="fill:none;stroke:#eeeeec;stroke-width:0.782426"
     id="path5767-4" />
  <path
     d="m 19.036133,32.789927 0.722803,-0.299435"
     style="fill:none;stroke:#eeeeec;stroke-width:0.782426"
     id="path5769-9" />
  <path
     d="m 19.493304,35.676372 0.78,0.06142"
     style="fill:none;stroke:#eeeeec;stroke-width:0.782426"
     id="path5771-2" />
  <path
     d="m 18.59015,38.45586 0.667174,0.408818"
     style="fill:none;stroke:#eeeeec;stroke-width:0.782426"
     id="path5773-0" />
  <g
     aria-label="-2.0"
     id="text5777-6"
     style="font-size:1.56485px;text-align:center;text-anchor:middle;fill:#eeeeec;stroke-width:0.782426">
    <path
       d="m 4.6090254,42.668753 h 0.4118429 v 0.12531 H 4.6090254 Z"
       style="font-size:1.56485px;text-align:center;text-anchor:middle;fill:#eeeeec;stroke-width:0.782426"
       id="path1055" />
    <path
       d="m 5.3983272,43.030166 h 0.5386813 v 0.129895 H 5.2126541 v -0.129895 q 0.08787,-0.09093 0.2391592,-0.243744 0.1520533,-0.153581 0.1910217,-0.197898 0.074116,-0.08329 0.1031518,-0.140592 0.029799,-0.05807 0.029799,-0.113849 0,-0.09093 -0.064183,-0.148233 -0.063419,-0.05731 -0.1658068,-0.05731 -0.072588,0 -0.1535815,0.02521 -0.080229,0.02521 -0.1719195,0.07641 v -0.155874 q 0.093219,-0.03744 0.1742118,-0.05654 0.080993,-0.0191 0.1482328,-0.0191 0.1772682,0 0.2827122,0.08863 0.105444,0.08863 0.105444,0.236867 0,0.0703 -0.026743,0.133715 -0.025979,0.06265 -0.095511,0.148233 -0.019102,0.02216 -0.1214898,0.128366 -0.1023877,0.105444 -0.2888249,0.295702 z"
       style="font-size:1.56485px;text-align:center;text-anchor:middle;fill:#eeeeec;stroke-width:0.782426"
       id="path1057" />
    <path
       d="m 6.2617453,42.965983 h 0.1612224 v 0.194078 H 6.2617453 Z"
       style="font-size:1.56485px;text-align:center;text-anchor:middle;fill:#eeeeec;stroke-width:0.782426"
       id="path1059" />
    <path
       d="m 7.0900156,42.120903 q -0.1191976,0 -0.1795605,0.117669 -0.059599,0.116905 -0.059599,0.352244 0,0.234575 0.059599,0.352244 0.060363,0.116905 0.1795605,0.116905 0.1199616,0 0.1795604,-0.116905 0.060363,-0.117669 0.060363,-0.352244 0,-0.235339 -0.060363,-0.352244 -0.059599,-0.117669 -0.1795604,-0.117669 z m 0,-0.122254 q 0.1917858,0 0.2926452,0.152053 0.1016236,0.151289 0.1016236,0.440114 0,0.288061 -0.1016236,0.440114 -0.1008594,0.151289 -0.2926452,0.151289 -0.1917859,0 -0.2934094,-0.151289 -0.1008595,-0.152053 -0.1008595,-0.440114 0,-0.288825 0.1008595,-0.440114 0.1016235,-0.152053 0.2934094,-0.152053 z"
       style="font-size:1.56485px;text-align:center;text-anchor:middle;fill:#eeeeec;stroke-width:0.782426"
       id="path1061" />
  </g>
  <g
     aria-label="-1.6"
     id="text5779-8"
     style="font-size:1.56485px;text-align:center;text-anchor:middle;fill:#eeeeec;stroke-width:0.782426">
    <path
       d="m 2.871819,38.377795 h 0.4118428 v 0.12531 H 2.871819 Z"
       style="font-size:1.56485px;text-align:center;text-anchor:middle;fill:#eeeeec;stroke-width:0.782426"
       id="path1064" />
    <path
       d="m 3.5549127,38.739208 h 0.2521487 v -0.870295 l -0.2743072,0.05501 v -0.140592 l 0.272779,-0.05501 h 0.1543455 v 1.010887 h 0.2521487 v 0.129894 H 3.5549127 Z"
       style="font-size:1.56485px;text-align:center;text-anchor:middle;fill:#eeeeec;stroke-width:0.782426"
       id="path1066" />
    <path
       d="m 4.5245389,38.675024 h 0.1612223 v 0.194078 H 4.5245389 Z"
       style="font-size:1.56485px;text-align:center;text-anchor:middle;fill:#eeeeec;stroke-width:0.782426"
       id="path1068" />
    <path
       d="m 5.3719113,38.237203 q -0.1039158,0 -0.1650428,0.07106 -0.060363,0.07106 -0.060363,0.194842 0,0.123018 0.060363,0.194842 0.061127,0.07106 0.1650428,0.07106 0.1039158,0 0.1642787,-0.07106 0.061127,-0.07182 0.061127,-0.194842 0,-0.123782 -0.061127,-0.194842 -0.060363,-0.07106 -0.1642787,-0.07106 z m 0.3063988,-0.483667 v 0.140592 q -0.058071,-0.02751 -0.1176694,-0.04203 -0.058835,-0.01452 -0.1169053,-0.01452 -0.1528173,0 -0.2338106,0.103152 -0.080229,0.103152 -0.09169,0.311747 0.045081,-0.06648 0.1130849,-0.101623 0.068004,-0.03591 0.149761,-0.03591 0.1719196,0 0.2712509,0.10468 0.1000953,0.103915 0.1000953,0.283476 0,0.17574 -0.1039158,0.281948 -0.1039158,0.106208 -0.2765994,0.106208 -0.1978985,0 -0.3025784,-0.151289 -0.1046799,-0.152054 -0.1046799,-0.440114 0,-0.270487 0.1283666,-0.430945 0.1283666,-0.161223 0.3446031,-0.161223 0.058071,0 0.1169053,0.01146 0.059599,0.01146 0.1237821,0.03438 z"
       style="font-size:1.56485px;text-align:center;text-anchor:middle;fill:#eeeeec;stroke-width:0.782426"
       id="path1070" />
  </g>
  <g
     aria-label="-1.2"
     id="text5781-9"
     style="font-size:1.56485px;text-align:center;text-anchor:middle;fill:#eeeeec;stroke-width:0.782426">
    <path
       d="m 1.7550864,33.885222 h 0.4118428 v 0.12531 H 1.7550864 Z"
       style="font-size:1.56485px;text-align:center;text-anchor:middle;fill:#eeeeec;stroke-width:0.782426"
       id="path1073" />
    <path
       d="M 2.4381801,34.246635 H 2.6903288 V 33.37634 l -0.2743072,0.05501 v -0.140592 l 0.272779,-0.05501 h 0.1543455 v 1.010887 H 3.0952948 V 34.37653 H 2.4381801 Z"
       style="font-size:1.56485px;text-align:center;text-anchor:middle;fill:#eeeeec;stroke-width:0.782426"
       id="path1075" />
    <path
       d="M 3.4078063,34.182452 H 3.5690286 V 34.37653 H 3.4078063 Z"
       style="font-size:1.56485px;text-align:center;text-anchor:middle;fill:#eeeeec;stroke-width:0.782426"
       id="path1077" />
    <path
       d="M 4.0389421,34.246635 H 4.5776233 V 34.37653 H 3.853269 v -0.129895 q 0.08787,-0.09093 0.2391592,-0.243744 0.1520533,-0.153581 0.1910217,-0.197898 0.074116,-0.08329 0.1031517,-0.140592 0.029799,-0.05807 0.029799,-0.113849 0,-0.09093 -0.064183,-0.148233 -0.063419,-0.05731 -0.1658068,-0.05731 -0.072588,0 -0.1535815,0.02522 -0.080229,0.02522 -0.1719196,0.07641 v -0.155874 q 0.093219,-0.03744 0.1742118,-0.05654 0.080993,-0.0191 0.1482329,-0.0191 0.1772682,0 0.2827122,0.08863 0.1054439,0.08863 0.1054439,0.236867 0,0.0703 -0.026743,0.133715 -0.025979,0.06265 -0.095511,0.148233 -0.019102,0.02216 -0.1214898,0.128366 -0.1023876,0.105444 -0.2888248,0.295702 z"
       style="font-size:1.56485px;text-align:center;text-anchor:middle;fill:#eeeeec;stroke-width:0.782426"
       id="path1079" />
  </g>
  <g
     aria-label="-0.8"
     id="text5783-2"
     style="font-size:1.56485px;text-align:center;text-anchor:middle;fill:#eeeeec;stroke-width:0.782426">
    <path
       d="m 4.205439,29.957621 h 0.4118429 v 0.12531 H 4.205439 Z"
       style="font-size:1.56485px;text-align:center;text-anchor:middle;fill:#eeeeec;stroke-width:0.782426"
       id="path1082" />
    <path
       d="m 5.1918752,29.409771 q -0.1191975,0 -0.1795604,0.117669 -0.059599,0.116905 -0.059599,0.352244 0,0.234575 0.059599,0.352244 0.060363,0.116905 0.1795604,0.116905 0.1199617,0 0.1795605,-0.116905 0.060363,-0.117669 0.060363,-0.352244 0,-0.235339 -0.060363,-0.352244 -0.059599,-0.117669 -0.1795605,-0.117669 z m 0,-0.122254 q 0.1917859,0 0.2926453,0.152053 0.1016236,0.151289 0.1016236,0.440114 0,0.288061 -0.1016236,0.440114 -0.1008594,0.151289 -0.2926453,0.151289 -0.1917858,0 -0.2934093,-0.151289 -0.1008595,-0.152053 -0.1008595,-0.440114 0,-0.288825 0.1008595,-0.440114 0.1016235,-0.152053 0.2934093,-0.152053 z"
       style="font-size:1.56485px;text-align:center;text-anchor:middle;fill:#eeeeec;stroke-width:0.782426"
       id="path1084" />
    <path
       d="m 5.8581589,30.254851 h 0.1612224 v 0.194078 H 5.8581589 Z"
       style="font-size:1.56485px;text-align:center;text-anchor:middle;fill:#eeeeec;stroke-width:0.782426"
       id="path1086" />
    <path
       d="m 6.6864292,29.907191 q -0.1100285,0 -0.1734478,0.05883 -0.062655,0.05884 -0.062655,0.161986 0,0.103152 0.062655,0.161987 0.063419,0.05883 0.1734478,0.05883 0.1100285,0 0.1734477,-0.05883 0.063419,-0.0596 0.063419,-0.161987 0,-0.103151 -0.063419,-0.161986 -0.062655,-0.05883 -0.1734477,-0.05883 z M 6.5320836,29.84148 q -0.099331,-0.02445 -0.1551096,-0.09246 -0.055014,-0.068 -0.055014,-0.165807 0,-0.136771 0.097039,-0.216236 0.097803,-0.07946 0.2674304,-0.07946 0.1703913,0 0.2674304,0.07946 0.097039,0.07946 0.097039,0.216236 0,0.0978 -0.055778,0.165807 -0.055014,0.068 -0.1535815,0.09246 0.1115567,0.02598 0.1734477,0.101623 0.062655,0.07564 0.062655,0.184909 0,0.165807 -0.1016236,0.254441 -0.1008595,0.08863 -0.2895889,0.08863 -0.1887295,0 -0.2903531,-0.08863 -0.1008594,-0.08863 -0.1008594,-0.254441 0,-0.109264 0.062655,-0.184909 0.062655,-0.07564 0.1742118,-0.101623 z m -0.056542,-0.243744 q 0,0.08863 0.055014,0.1383 0.055778,0.04967 0.1558738,0.04967 0.099331,0 0.1551096,-0.04967 0.056542,-0.04967 0.056542,-0.1383 0,-0.08863 -0.056542,-0.1383 -0.055778,-0.04967 -0.1551096,-0.04967 -0.1000954,0 -0.1558738,0.04967 -0.055014,0.04967 -0.055014,0.1383 z"
       style="font-size:1.56485px;text-align:center;text-anchor:middle;fill:#eeeeec;stroke-width:0.782426"
       id="path1088" />
  </g>
  <g
     aria-label="-0.4"
     id="text5785-6"
     style="font-size:1.56485px;text-align:center;text-anchor:middle;fill:#eeeeec;stroke-width:0.782426">
    <path
       d="m 7.1835985,26.41351 h 0.4118428 v 0.12531 H 7.1835985 Z"
       style="font-size:1.56485px;text-align:center;text-anchor:middle;fill:#eeeeec;stroke-width:0.782426"
       id="path1091" />
    <path
       d="m 8.1700347,25.865659 q -0.1191976,0 -0.1795604,0.11767 -0.059599,0.116905 -0.059599,0.352244 0,0.234575 0.059599,0.352244 0.060363,0.116905 0.1795604,0.116905 0.1199616,0 0.1795604,-0.116905 0.060363,-0.117669 0.060363,-0.352244 0,-0.235339 -0.060363,-0.352244 -0.059599,-0.11767 -0.1795604,-0.11767 z m 0,-0.122254 q 0.1917858,0 0.2926453,0.152054 0.1016235,0.151289 0.1016235,0.440114 0,0.288061 -0.1016235,0.440114 -0.1008595,0.151289 -0.2926453,0.151289 -0.1917858,0 -0.2934094,-0.151289 -0.1008595,-0.152053 -0.1008595,-0.440114 0,-0.288825 0.1008595,-0.440114 0.1016236,-0.152054 0.2934094,-0.152054 z"
       style="font-size:1.56485px;text-align:center;text-anchor:middle;fill:#eeeeec;stroke-width:0.782426"
       id="path1093" />
    <path
       d="m 8.8363184,26.71074 h 0.1612223 v 0.194078 H 8.8363184 Z"
       style="font-size:1.56485px;text-align:center;text-anchor:middle;fill:#eeeeec;stroke-width:0.782426"
       id="path1095" />
    <path
       d="M 9.7585713,25.898515 9.368887,26.507492 h 0.3896843 z m -0.040497,-0.134479 h 0.1940781 v 0.743456 h 0.1627502 v 0.128367 H 9.9121528 v 0.268959 H 9.7585713 V 26.635859 H 9.2435767 v -0.148997 z"
       style="font-size:1.56485px;text-align:center;text-anchor:middle;fill:#eeeeec;stroke-width:0.782426"
       id="path1097" />
  </g>
  <g
     aria-label="0.0"
     id="text5787-6"
     style="font-size:1.56485px;text-align:center;text-anchor:middle;fill:#eeeeec;stroke-width:0.782426">
    <path
       d="m 12.505106,25.539446 q -0.119198,0 -0.17956,0.117669 -0.0596,0.116905 -0.0596,0.352244 0,0.234575 0.0596,0.352244 0.06036,0.116905 0.17956,0.116905 0.119962,0 0.17956,-0.116905 0.06036,-0.117669 0.06036,-0.352244 0,-0.235339 -0.06036,-0.352244 -0.0596,-0.117669 -0.17956,-0.117669 z m 0,-0.122254 q 0.191786,0 0.292645,0.152053 0.101624,0.151289 0.101624,0.440114 0,0.288061 -0.101624,0.440114 -0.100859,0.151289 -0.292645,0.151289 -0.191786,0 -0.293409,-0.151289 -0.10086,-0.152053 -0.10086,-0.440114 0,-0.288825 0.10086,-0.440114 0.101623,-0.152053 0.293409,-0.152053 z"
       style="font-size:1.56485px;text-align:center;text-anchor:middle;fill:#eeeeec;stroke-width:0.782426"
       id="path1100" />
    <path
       d="m 13.17139,26.384526 h 0.161222 v 0.194078 H 13.17139 Z"
       style="font-size:1.56485px;text-align:center;text-anchor:middle;fill:#eeeeec;stroke-width:0.782426"
       id="path1102" />
    <path
       d="m 13.99966,25.539446 q -0.119198,0 -0.17956,0.117669 -0.0596,0.116905 -0.0596,0.352244 0,0.234575 0.0596,0.352244 0.06036,0.116905 0.17956,0.116905 0.119962,0 0.17956,-0.116905 0.06036,-0.117669 0.06036,-0.352244 0,-0.235339 -0.06036,-0.352244 -0.0596,-0.117669 -0.17956,-0.117669 z m 0,-0.122254 q 0.191786,0 0.292645,0.152053 0.101624,0.151289 0.101624,0.440114 0,0.288061 -0.101624,0.440114 -0.100859,0.151289 -0.292645,0.151289 -0.191786,0 -0.293409,-0.151289 -0.10086,-0.152053 -0.10086,-0.440114 0,-0.288825 0.10086,-0.440114 0.101623,-0.152053 0.293409,-0.152053 z"
       style="font-size:1.56485px;text-align:center;text-anchor:middle;fill:#eeeeec;stroke-width:0.782426"
       id="path1104" />
  </g>
  <g
     aria-label="0.4"
     id="text5789-4"
     style="font-size:1.56485px;text-align:center;text-anchor:middle;fill:#eeeeec;stroke-width:0.782426">
    <path
       d="m 17.1229,25.865659 q -0.119197,0 -0.17956,0.11767 -0.0596,0.116905 -0.0596,0.352244 0,0.234575 0.0596,0.352244 0.06036,0.116905 0.17956,0.116905 0.119962,0 0.179561,-0.116905 0.06036,-0.117669 0.06036,-0.352244 0,-0.235339 -0.06036,-0.352244 -0.0596,-0.11767 -0.179561,-0.11767 z m 0,-0.122254 q 0.191786,0 0.292645,0.152054 0.101624,0.151289 0.101624,0.440114 0,0.288061 -0.101624,0.440114 -0.100859,0.151289 -0.292645,0.151289 -0.191786,0 -0.293409,-0.151289 -0.10086,-0.152053 -0.10086,-0.440114 0,-0.288825 0.10086,-0.440114 0.101623,-0.152054 0.293409,-0.152054 z"
       style="font-size:1.56485px;text-align:center;text-anchor:middle;fill:#eeeeec;stroke-width:0.782426"
       id="path1107" />
    <path
       d="m 17.789184,26.71074 h 0.161222 v 0.194078 h -0.161222 z"
       style="font-size:1.56485px;text-align:center;text-anchor:middle;fill:#eeeeec;stroke-width:0.782426"
       id="path1109" />
    <path
       d="m 18.711437,25.898515 -0.389685,0.608977 h 0.389685 z m -0.0405,-0.134479 h 0.194078 v 0.743456 h 0.162751 v 0.128367 h -0.162751 v 0.268959 h -0.153581 v -0.268959 h -0.514995 v -0.148997 z"
       style="font-size:1.56485px;text-align:center;text-anchor:middle;fill:#eeeeec;stroke-width:0.782426"
       id="path1111" />
  </g>
  <g
     aria-label="0.8"
     id="text5791-9"
     style="font-size:1.56485px;text-align:center;text-anchor:middle;fill:#eeeeec;stroke-width:0.782426">
    <path
       d="m 20.10108,29.409771 q -0.119198,0 -0.17956,0.117669 -0.0596,0.116905 -0.0596,0.352244 0,0.234575 0.0596,0.352244 0.06036,0.116905 0.17956,0.116905 0.119962,0 0.17956,-0.116905 0.06036,-0.117669 0.06036,-0.352244 0,-0.235339 -0.06036,-0.352244 -0.0596,-0.117669 -0.17956,-0.117669 z m 0,-0.122254 q 0.191786,0 0.292645,0.152053 0.101624,0.151289 0.101624,0.440114 0,0.288061 -0.101624,0.440114 -0.100859,0.151289 -0.292645,0.151289 -0.191786,0 -0.293409,-0.151289 -0.10086,-0.152053 -0.10086,-0.440114 0,-0.288825 0.10086,-0.440114 0.101623,-0.152053 0.293409,-0.152053 z"
       style="font-size:1.56485px;text-align:center;text-anchor:middle;fill:#eeeeec;stroke-width:0.782426"
       id="path1114" />
    <path
       d="m 20.767364,30.254851 h 0.161222 v 0.194078 h -0.161222 z"
       style="font-size:1.56485px;text-align:center;text-anchor:middle;fill:#eeeeec;stroke-width:0.782426"
       id="path1116" />
    <path
       d="m 21.595634,29.907191 q -0.110029,0 -0.173448,0.05883 -0.06265,0.05884 -0.06265,0.161986 0,0.103152 0.06265,0.161987 0.06342,0.05883 0.173448,0.05883 0.110028,0 0.173448,-0.05883 0.06342,-0.0596 0.06342,-0.161987 0,-0.103151 -0.06342,-0.161986 -0.06265,-0.05883 -0.173448,-0.05883 z m -0.154346,-0.06571 q -0.09933,-0.02445 -0.155109,-0.09246 -0.05502,-0.068 -0.05502,-0.165807 0,-0.136771 0.09704,-0.216236 0.0978,-0.07946 0.26743,-0.07946 0.170391,0 0.26743,0.07946 0.09704,0.07946 0.09704,0.216236 0,0.0978 -0.05578,0.165807 -0.05501,0.068 -0.153581,0.09246 0.111556,0.02598 0.173447,0.101623 0.06265,0.07564 0.06265,0.184909 0,0.165807 -0.101623,0.254441 -0.10086,0.08863 -0.289589,0.08863 -0.18873,0 -0.290353,-0.08863 -0.10086,-0.08863 -0.10086,-0.254441 0,-0.109264 0.06266,-0.184909 0.06265,-0.07564 0.174211,-0.101623 z m -0.05654,-0.243744 q 0,0.08863 0.05501,0.1383 0.05578,0.04967 0.155874,0.04967 0.09933,0 0.15511,-0.04967 0.05654,-0.04967 0.05654,-0.1383 0,-0.08863 -0.05654,-0.1383 -0.05578,-0.04967 -0.15511,-0.04967 -0.100095,0 -0.155874,0.04967 -0.05501,0.04967 -0.05501,0.1383 z"
       style="font-size:1.56485px;text-align:center;text-anchor:middle;fill:#eeeeec;stroke-width:0.782426"
       id="path1118" />
  </g>
  <g
     aria-label="1.2"
     id="text5793-5"
     style="font-size:1.56485px;text-align:center;text-anchor:middle;fill:#eeeeec;stroke-width:0.782426">
    <path
       d="m 22.248089,34.246635 h 0.252149 V 33.37634 l -0.274307,0.05501 v -0.140592 l 0.272779,-0.05501 h 0.154345 v 1.010887 h 0.252149 v 0.129895 h -0.657115 z"
       style="font-size:1.56485px;text-align:center;text-anchor:middle;fill:#eeeeec;stroke-width:0.782426"
       id="path1121" />
    <path
       d="m 23.217715,34.182452 h 0.161223 v 0.194078 h -0.161223 z"
       style="font-size:1.56485px;text-align:center;text-anchor:middle;fill:#eeeeec;stroke-width:0.782426"
       id="path1123" />
    <path
       d="m 23.848851,34.246635 h 0.538682 v 0.129895 h -0.724355 v -0.129895 q 0.08787,-0.09093 0.239159,-0.243744 0.152054,-0.153581 0.191022,-0.197898 0.07412,-0.08329 0.103152,-0.140592 0.0298,-0.05807 0.0298,-0.113849 0,-0.09093 -0.06418,-0.148233 -0.06342,-0.05731 -0.165807,-0.05731 -0.07259,0 -0.153581,0.02522 -0.08023,0.02522 -0.17192,0.07641 v -0.155874 q 0.09322,-0.03744 0.174212,-0.05654 0.08099,-0.0191 0.148233,-0.0191 0.177268,0 0.282712,0.08863 0.105444,0.08863 0.105444,0.236867 0,0.0703 -0.02674,0.133715 -0.02598,0.06265 -0.09551,0.148233 -0.0191,0.02216 -0.12149,0.128366 -0.102388,0.105444 -0.288825,0.295702 z"
       style="font-size:1.56485px;text-align:center;text-anchor:middle;fill:#eeeeec;stroke-width:0.782426"
       id="path1125" />
  </g>
  <g
     aria-label="1.6"
     id="text5795-0"
     style="font-size:1.56485px;text-align:center;text-anchor:middle;fill:#eeeeec;stroke-width:0.782426">
    <path
       d="m 21.131358,38.739208 h 0.252148 v -0.870295 l -0.274307,0.05501 v -0.140592 l 0.272779,-0.05501 h 0.154346 v 1.010887 h 0.252148 v 0.129894 h -0.657114 z"
       style="font-size:1.56485px;text-align:center;text-anchor:middle;fill:#eeeeec;stroke-width:0.782426"
       id="path1128" />
    <path
       d="m 22.100984,38.675024 h 0.161222 v 0.194078 h -0.161222 z"
       style="font-size:1.56485px;text-align:center;text-anchor:middle;fill:#eeeeec;stroke-width:0.782426"
       id="path1130" />
    <path
       d="m 22.948356,38.237203 q -0.103916,0 -0.165043,0.07106 -0.06036,0.07106 -0.06036,0.194842 0,0.123018 0.06036,0.194842 0.06113,0.07106 0.165043,0.07106 0.103916,0 0.164279,-0.07106 0.06113,-0.07182 0.06113,-0.194842 0,-0.123782 -0.06113,-0.194842 -0.06036,-0.07106 -0.164279,-0.07106 z m 0.306399,-0.483667 v 0.140592 q -0.05807,-0.02751 -0.117669,-0.04203 -0.05883,-0.01452 -0.116906,-0.01452 -0.152817,0 -0.23381,0.103152 -0.08023,0.103152 -0.09169,0.311747 0.04508,-0.06648 0.113085,-0.101623 0.068,-0.03591 0.149761,-0.03591 0.17192,0 0.271251,0.10468 0.100095,0.103915 0.100095,0.283476 0,0.17574 -0.103915,0.281948 -0.103916,0.106208 -0.2766,0.106208 -0.197898,0 -0.302578,-0.151289 -0.10468,-0.152054 -0.10468,-0.440114 0,-0.270487 0.128366,-0.430945 0.128367,-0.161223 0.344604,-0.161223 0.05807,0 0.116905,0.01146 0.0596,0.01146 0.123782,0.03438 z"
       style="font-size:1.56485px;text-align:center;text-anchor:middle;fill:#eeeeec;stroke-width:0.782426"
       id="path1132" />
  </g>
  <g
     aria-label="2.0"
     id="text5797-4"
     style="font-size:1.56485px;text-align:center;text-anchor:middle;fill:#eeeeec;stroke-width:0.782426">
    <path
       d="m 19.500358,43.030166 h 0.538682 v 0.129895 h -0.724355 v -0.129895 q 0.08787,-0.09093 0.239159,-0.243744 0.152054,-0.153581 0.191022,-0.197898 0.07412,-0.08329 0.103152,-0.140592 0.0298,-0.05807 0.0298,-0.113849 0,-0.09093 -0.06418,-0.148233 -0.06342,-0.05731 -0.165807,-0.05731 -0.07259,0 -0.153581,0.02521 -0.08023,0.02521 -0.17192,0.07641 v -0.155874 q 0.09322,-0.03744 0.174212,-0.05654 0.08099,-0.0191 0.148233,-0.0191 0.177268,0 0.282712,0.08863 0.105444,0.08863 0.105444,0.236867 0,0.0703 -0.02674,0.133715 -0.02598,0.06265 -0.09551,0.148233 -0.0191,0.02216 -0.12149,0.128366 -0.102388,0.105444 -0.288825,0.295702 z"
       style="font-size:1.56485px;text-align:center;text-anchor:middle;fill:#eeeeec;stroke-width:0.782426"
       id="path1135" />
    <path
       d="m 20.363776,42.965983 h 0.161223 v 0.194078 h -0.161223 z"
       style="font-size:1.56485px;text-align:center;text-anchor:middle;fill:#eeeeec;stroke-width:0.782426"
       id="path1137" />
    <path
       d="m 21.192047,42.120903 q -0.119198,0 -0.179561,0.117669 -0.0596,0.116905 -0.0596,0.352244 0,0.234575 0.0596,0.352244 0.06036,0.116905 0.179561,0.116905 0.119961,0 0.17956,-0.116905 0.06036,-0.117669 0.06036,-0.352244 0,-0.235339 -0.06036,-0.352244 -0.0596,-0.117669 -0.17956,-0.117669 z m 0,-0.122254 q 0.191785,0 0.292645,0.152053 0.101623,0.151289 0.101623,0.440114 0,0.288061 -0.101623,0.440114 -0.10086,0.151289 -0.292645,0.151289 -0.191786,0 -0.29341,-0.151289 -0.100859,-0.152053 -0.100859,-0.440114 0,-0.288825 0.100859,-0.440114 0.101624,-0.152053 0.29341,-0.152053 z"
       style="font-size:1.56485px;text-align:center;text-anchor:middle;fill:#eeeeec;stroke-width:0.782426"
       id="path1139" />
  </g>
  <path
     id="path5801-8"
     style="fill:none;stroke:#eeeeec;stroke-width:0.0782426"
     d="m 8.8270806,39.61135 a 6.2594032,6.2594032 0 0 1 10e-8,-8.852133 6.2594032,6.2594032 0 0 1 8.8521333,0 6.2594032,6.2594032 0 0 1 0,8.852133" />
  <path
     id="path5803-7"
     style="fill:none;stroke:#eeeeec;stroke-width:0.0782426"
     d="m 8.2461581,40.192273 a 7.0809517,7.0809517 0 0 1 10e-8,-10.013978 7.0809517,7.0809517 0 0 1 10.0139778,0 7.0809517,7.0809517 0 0 1 0,10.013978" />
  <path
     d="m 9.3042324,60.215582 -1.6597623,1.65976"
     style="stroke:#ef2929;stroke-width:0.391213"
     id="path5731-5-7" />
  <path
     d="M 7.7867941,57.739362 6.2985398,58.222899"
     style="stroke:#ef2929;stroke-width:0.0782426"
     id="path5733-2-2" />
  <path
     d="M 7.5589521,54.844075 5.2405435,54.476883"
     style="stroke:#ef2929;stroke-width:0.391213"
     id="path5735-5-7" />
  <path
     d="M 8.6703104,52.160983 7.4043431,51.241161"
     style="stroke:#ef2929;stroke-width:0.0782426"
     id="path5737-4-2" />
  <path
     d="M 10.878709,50.274866 9.8130437,48.183443"
     style="stroke:#ef2929;stroke-width:0.391213"
     id="path5739-7-2" />
  <path
     d="M 13.702643,49.596895 V 48.032043"
     style="stroke:#ef2929;stroke-width:0.0782426"
     id="path5741-4-6" />
  <path
     d="m 16.526653,50.274866 1.065586,-2.091423"
     style="stroke:#ef2929;stroke-width:0.391213"
     id="path5743-4-1" />
  <path
     d="m 18.734971,52.160983 1.265964,-0.919822"
     style="stroke:#ef2929;stroke-width:0.0782426"
     id="path5745-3-0" />
  <path
     d="m 19.846329,54.844075 2.318404,-0.367192"
     style="stroke:#ef2929;stroke-width:0.391213"
     id="path5747-0-6" />
  <path
     d="m 19.618486,57.739362 1.488253,0.483537"
     style="stroke:#ef2929;stroke-width:0.0782426"
     id="path5749-7-1" />
  <path
     d="m 18.10105,60.215582 1.659759,1.65976"
     style="stroke:#ef2929;stroke-width:0.391213"
     id="path5751-8-5" />
  <path
     d="m 8.3656331,59.087716 -0.667096,0.408816"
     style="fill:none;stroke:#eeeeec;stroke-width:0.782426"
     id="path5755-6-9" />
  <path
     d="m 7.4625561,56.308226 -0.7800003,0.06142"
     style="fill:none;stroke:#eeeeec;stroke-width:0.782426"
     id="path5757-8-4" />
  <path
     d="M 7.9197291,53.421783 7.1968438,53.122346"
     style="fill:none;stroke:#eeeeec;stroke-width:0.782426"
     id="path5759-8-9" />
  <path
     d="M 9.6374677,51.057448 9.1293604,50.462493"
     style="fill:none;stroke:#eeeeec;stroke-width:0.782426"
     id="path5761-4-0" />
  <path
     d="m 12.241461,49.730689 -0.182697,-0.76083"
     style="fill:none;stroke:#eeeeec;stroke-width:0.782426"
     id="path5763-3-9" />
  <path
     d="m 15.163902,49.730689 0.182618,-0.76083"
     style="fill:none;stroke:#eeeeec;stroke-width:0.782426"
     id="path5765-1-1" />
  <path
     d="m 17.767815,51.057448 0.508186,-0.594955"
     style="fill:none;stroke:#eeeeec;stroke-width:0.782426"
     id="path5767-4-7" />
  <path
     d="m 19.485631,53.421783 0.722803,-0.299437"
     style="fill:none;stroke:#eeeeec;stroke-width:0.782426"
     id="path5769-9-7" />
  <path
     d="m 19.942802,56.308226 0.78,0.06142"
     style="fill:none;stroke:#eeeeec;stroke-width:0.782426"
     id="path5771-2-1" />
  <path
     d="m 19.039648,59.087716 0.667175,0.408816"
     style="fill:none;stroke:#eeeeec;stroke-width:0.782426"
     id="path5773-0-1" />
  <g
     aria-label="-2.0"
     id="text5777-6-5"
     style="font-size:1.56485px;text-align:center;text-anchor:middle;fill:#eeeeec;stroke-width:0.782426">
    <path
       d="m 5.0585227,63.300608 h 0.4118428 v 0.12531 H 5.0585227 Z"
       style="font-size:1.56485px;text-align:center;text-anchor:middle;fill:#eeeeec;stroke-width:0.782426"
       id="path1144" />
    <path
       d="m 5.8478244,63.662021 h 0.5386813 v 0.129895 H 5.6621513 v -0.129895 q 0.08787,-0.09093 0.2391592,-0.243744 0.1520533,-0.153581 0.1910217,-0.197898 0.074116,-0.08329 0.1031518,-0.140592 0.029799,-0.05807 0.029799,-0.113849 0,-0.09093 -0.064183,-0.148233 -0.063419,-0.05731 -0.1658069,-0.05731 -0.072588,0 -0.1535815,0.02521 -0.080229,0.02522 -0.1719195,0.07641 v -0.155874 q 0.093219,-0.03744 0.1742118,-0.05654 0.080993,-0.0191 0.1482329,-0.0191 0.1772681,0 0.2827121,0.08863 0.105444,0.08863 0.105444,0.236867 0,0.0703 -0.026743,0.133715 -0.025979,0.06265 -0.095511,0.148233 -0.019102,0.02216 -0.1214898,0.128366 -0.1023877,0.105444 -0.2888249,0.295702 z"
       style="font-size:1.56485px;text-align:center;text-anchor:middle;fill:#eeeeec;stroke-width:0.782426"
       id="path1146" />
    <path
       d="m 6.7112426,63.597838 h 0.1612223 v 0.194078 H 6.7112426 Z"
       style="font-size:1.56485px;text-align:center;text-anchor:middle;fill:#eeeeec;stroke-width:0.782426"
       id="path1148" />
    <path
       d="m 7.5395128,62.752758 q -0.1191976,0 -0.1795604,0.117669 -0.059599,0.116905 -0.059599,0.352244 0,0.234575 0.059599,0.352244 0.060363,0.116906 0.1795604,0.116906 0.1199616,0 0.1795604,-0.116906 0.060363,-0.117669 0.060363,-0.352244 0,-0.235339 -0.060363,-0.352244 -0.059599,-0.117669 -0.1795604,-0.117669 z m 0,-0.122254 q 0.1917858,0 0.2926453,0.152053 0.1016235,0.151289 0.1016235,0.440114 0,0.288061 -0.1016235,0.440114 -0.1008595,0.151289 -0.2926453,0.151289 -0.1917858,0 -0.2934094,-0.151289 -0.1008595,-0.152053 -0.1008595,-0.440114 0,-0.288825 0.1008595,-0.440114 0.1016236,-0.152053 0.2934094,-0.152053 z"
       style="font-size:1.56485px;text-align:center;text-anchor:middle;fill:#eeeeec;stroke-width:0.782426"
       id="path1150" />
  </g>
  <g
     aria-label="-1.6"
     id="text5779-8-9"
     style="font-size:1.56485px;text-align:center;text-anchor:middle;fill:#eeeeec;stroke-width:0.782426">
    <path
       d="M 3.3213171,59.009646 H 3.73316 v 0.12531 H 3.3213171 Z"
       style="font-size:1.56485px;text-align:center;text-anchor:middle;fill:#eeeeec;stroke-width:0.782426"
       id="path1153" />
    <path
       d="m 4.0044109,59.371059 h 0.2521486 v -0.870295 l -0.2743072,0.05501 v -0.140592 l 0.2727791,-0.05501 h 0.1543455 v 1.010887 h 0.2521487 v 0.129895 H 4.0044109 Z"
       style="font-size:1.56485px;text-align:center;text-anchor:middle;fill:#eeeeec;stroke-width:0.782426"
       id="path1155" />
    <path
       d="m 4.9740371,59.306876 h 0.1612223 v 0.194078 H 4.9740371 Z"
       style="font-size:1.56485px;text-align:center;text-anchor:middle;fill:#eeeeec;stroke-width:0.782426"
       id="path1157" />
    <path
       d="m 5.8214094,58.869054 q -0.1039158,0 -0.1650427,0.07106 -0.060363,0.07106 -0.060363,0.194842 0,0.123018 0.060363,0.194842 0.061127,0.07106 0.1650427,0.07106 0.1039159,0 0.1642787,-0.07106 0.061127,-0.07182 0.061127,-0.194842 0,-0.123782 -0.061127,-0.194842 -0.060363,-0.07106 -0.1642787,-0.07106 z m 0.3063989,-0.483667 v 0.140592 q -0.058071,-0.02751 -0.1176694,-0.04203 -0.058835,-0.01452 -0.1169053,-0.01452 -0.1528174,0 -0.2338106,0.103152 -0.080229,0.103152 -0.09169,0.311748 0.045081,-0.06648 0.1130849,-0.101624 0.068004,-0.03591 0.149761,-0.03591 0.1719195,0 0.2712508,0.10468 0.1000954,0.103916 0.1000954,0.283476 0,0.17574 -0.1039158,0.281948 -0.1039158,0.106208 -0.2765995,0.106208 -0.1978985,0 -0.3025784,-0.151289 -0.1046799,-0.152053 -0.1046799,-0.440114 0,-0.270487 0.1283666,-0.430945 0.1283666,-0.161222 0.3446032,-0.161222 0.058071,0 0.1169053,0.01146 0.059599,0.01146 0.1237821,0.03438 z"
       style="font-size:1.56485px;text-align:center;text-anchor:middle;fill:#eeeeec;stroke-width:0.782426"
       id="path1159" />
  </g>
  <g
     aria-label="-1.2"
     id="text5781-9-7"
     style="font-size:1.56485px;text-align:center;text-anchor:middle;fill:#eeeeec;stroke-width:0.782426">
    <path
       d="m 2.2045845,54.517069 h 0.4118429 v 0.12531 H 2.2045845 Z"
       style="font-size:1.56485px;text-align:center;text-anchor:middle;fill:#eeeeec;stroke-width:0.782426"
       id="path1162" />
    <path
       d="m 2.8876783,54.878482 h 0.2521486 v -0.870295 l -0.2743072,0.05501 V 53.92261 l 0.2727791,-0.05501 h 0.1543455 v 1.010887 H 3.544793 v 0.129895 H 2.8876783 Z"
       style="font-size:1.56485px;text-align:center;text-anchor:middle;fill:#eeeeec;stroke-width:0.782426"
       id="path1164" />
    <path
       d="m 3.8573045,54.814299 h 0.1612223 v 0.194078 H 3.8573045 Z"
       style="font-size:1.56485px;text-align:center;text-anchor:middle;fill:#eeeeec;stroke-width:0.782426"
       id="path1166" />
    <path
       d="m 4.4884403,54.878482 h 0.5386812 v 0.129895 H 4.3027671 v -0.129895 q 0.08787,-0.09093 0.2391592,-0.243743 0.1520533,-0.153582 0.1910218,-0.197899 0.074116,-0.08328 0.1031517,-0.140592 0.029799,-0.05807 0.029799,-0.113849 0,-0.09093 -0.064183,-0.148233 -0.063419,-0.05731 -0.1658069,-0.05731 -0.072588,0 -0.1535814,0.02521 -0.080229,0.02521 -0.1719196,0.07641 V 53.92261 q 0.093219,-0.03744 0.1742118,-0.05654 0.080993,-0.0191 0.1482329,-0.0191 0.1772681,0 0.2827121,0.08863 0.105444,0.08863 0.105444,0.236867 0,0.0703 -0.026743,0.133715 -0.025979,0.06265 -0.095511,0.148233 -0.019102,0.02216 -0.1214898,0.128367 -0.1023876,0.105444 -0.2888248,0.295701 z"
       style="font-size:1.56485px;text-align:center;text-anchor:middle;fill:#eeeeec;stroke-width:0.782426"
       id="path1168" />
  </g>
  <g
     aria-label="-0.8"
     id="text5783-2-7"
     style="font-size:1.56485px;text-align:center;text-anchor:middle;fill:#eeeeec;stroke-width:0.782426">
    <path
       d="m 4.6549372,50.589472 h 0.4118429 v 0.12531 H 4.6549372 Z"
       style="font-size:1.56485px;text-align:center;text-anchor:middle;fill:#eeeeec;stroke-width:0.782426"
       id="path1171" />
    <path
       d="m 5.6413734,50.041622 q -0.1191975,0 -0.1795604,0.117669 -0.059599,0.116906 -0.059599,0.352244 0,0.234575 0.059599,0.352244 0.060363,0.116906 0.1795604,0.116906 0.1199617,0 0.1795604,-0.116906 0.060363,-0.117669 0.060363,-0.352244 0,-0.235338 -0.060363,-0.352244 -0.059599,-0.117669 -0.1795604,-0.117669 z m 0,-0.122254 q 0.1917858,0 0.2926453,0.152053 0.1016236,0.151289 0.1016236,0.440114 0,0.288061 -0.1016236,0.440114 -0.1008595,0.15129 -0.2926453,0.15129 -0.1917858,0 -0.2934093,-0.15129 -0.1008595,-0.152053 -0.1008595,-0.440114 0,-0.288825 0.1008595,-0.440114 0.1016235,-0.152053 0.2934093,-0.152053 z"
       style="font-size:1.56485px;text-align:center;text-anchor:middle;fill:#eeeeec;stroke-width:0.782426"
       id="path1173" />
    <path
       d="M 6.3076571,50.886702 H 6.4688795 V 51.08078 H 6.3076571 Z"
       style="font-size:1.56485px;text-align:center;text-anchor:middle;fill:#eeeeec;stroke-width:0.782426"
       id="path1175" />
    <path
       d="m 7.1359273,50.539042 q -0.1100285,0 -0.1734477,0.05883 -0.062655,0.05884 -0.062655,0.161987 0,0.103151 0.062655,0.161986 0.063419,0.05884 0.1734477,0.05884 0.1100286,0 0.1734478,-0.05884 0.063419,-0.0596 0.063419,-0.161986 0,-0.103152 -0.063419,-0.161987 -0.062655,-0.05883 -0.1734478,-0.05883 z m -0.1543455,-0.06571 q -0.099331,-0.02445 -0.1551096,-0.09246 -0.055014,-0.068 -0.055014,-0.165806 0,-0.136772 0.097039,-0.216237 0.097803,-0.07946 0.2674304,-0.07946 0.1703914,0 0.2674305,0.07946 0.097039,0.07946 0.097039,0.216237 0,0.0978 -0.055778,0.165806 -0.055014,0.068 -0.1535815,0.09246 0.1115567,0.02598 0.1734477,0.101624 0.062655,0.07564 0.062655,0.184909 0,0.165806 -0.1016235,0.25444 -0.1008595,0.08863 -0.289589,0.08863 -0.1887294,0 -0.290353,-0.08863 -0.1008594,-0.08863 -0.1008594,-0.25444 0,-0.109265 0.062655,-0.184909 0.062655,-0.07565 0.1742118,-0.101624 z m -0.056542,-0.243744 q 0,0.08863 0.055014,0.1383 0.055778,0.04967 0.1558737,0.04967 0.099331,0 0.1551097,-0.04967 0.056542,-0.04967 0.056542,-0.1383 0,-0.08863 -0.056542,-0.1383 -0.055778,-0.04967 -0.1551097,-0.04967 -0.1000953,0 -0.1558737,0.04967 -0.055014,0.04967 -0.055014,0.1383 z"
       style="font-size:1.56485px;text-align:center;text-anchor:middle;fill:#eeeeec;stroke-width:0.782426"
       id="path1177" />
  </g>
  <g
     aria-label="-0.4"
     id="text5785-6-6"
     style="font-size:1.56485px;text-align:center;text-anchor:middle;fill:#eeeeec;stroke-width:0.782426">
    <path
       d="m 7.6330957,47.045351 h 0.4118428 v 0.125311 H 7.6330957 Z"
       style="font-size:1.56485px;text-align:center;text-anchor:middle;fill:#eeeeec;stroke-width:0.782426"
       id="path1180" />
    <path
       d="m 8.6195319,46.497501 q -0.1191976,0 -0.1795604,0.117669 -0.059599,0.116906 -0.059599,0.352244 0,0.234575 0.059599,0.352245 0.060363,0.116905 0.1795604,0.116905 0.1199616,0 0.1795604,-0.116905 0.060363,-0.11767 0.060363,-0.352245 0,-0.235338 -0.060363,-0.352244 -0.059599,-0.117669 -0.1795604,-0.117669 z m 0,-0.122254 q 0.1917858,0 0.2926453,0.152053 0.1016235,0.15129 0.1016235,0.440114 0,0.288061 -0.1016235,0.440115 -0.1008595,0.151289 -0.2926453,0.151289 -0.1917858,0 -0.2934094,-0.151289 -0.1008594,-0.152054 -0.1008594,-0.440115 0,-0.288824 0.1008594,-0.440114 0.1016236,-0.152053 0.2934094,-0.152053 z"
       style="font-size:1.56485px;text-align:center;text-anchor:middle;fill:#eeeeec;stroke-width:0.782426"
       id="path1182" />
    <path
       d="m 9.2858156,47.342581 h 0.1612223 v 0.194078 H 9.2858156 Z"
       style="font-size:1.56485px;text-align:center;text-anchor:middle;fill:#eeeeec;stroke-width:0.782426"
       id="path1184" />
    <path
       d="m 10.208069,46.530357 -0.3896848,0.608977 h 0.3896848 z m -0.0405,-0.13448 h 0.194078 v 0.743457 h 0.16275 v 0.128367 h -0.16275 v 0.268958 H 10.208069 V 47.267701 H 9.6930739 v -0.148997 z"
       style="font-size:1.56485px;text-align:center;text-anchor:middle;fill:#eeeeec;stroke-width:0.782426"
       id="path1186" />
  </g>
  <g
     aria-label="0.0"
     id="text5787-6-7"
     style="font-size:1.56485px;text-align:center;text-anchor:middle;fill:#eeeeec;stroke-width:0.782426">
    <path
       d="m 12.954606,46.171291 q -0.119197,0 -0.17956,0.117669 -0.0596,0.116906 -0.0596,0.352244 0,0.234575 0.0596,0.352245 0.06036,0.116905 0.17956,0.116905 0.119962,0 0.179561,-0.116905 0.06036,-0.11767 0.06036,-0.352245 0,-0.235338 -0.06036,-0.352244 -0.0596,-0.117669 -0.179561,-0.117669 z m 0,-0.122254 q 0.191786,0 0.292645,0.152053 0.101624,0.15129 0.101624,0.440114 0,0.288061 -0.101624,0.440115 -0.100859,0.151289 -0.292645,0.151289 -0.191786,0 -0.293409,-0.151289 -0.10086,-0.152054 -0.10086,-0.440115 0,-0.288824 0.10086,-0.440114 0.101623,-0.152053 0.293409,-0.152053 z"
       style="font-size:1.56485px;text-align:center;text-anchor:middle;fill:#eeeeec;stroke-width:0.782426"
       id="path1189" />
    <path
       d="m 13.62089,47.016371 h 0.161222 v 0.194078 H 13.62089 Z"
       style="font-size:1.56485px;text-align:center;text-anchor:middle;fill:#eeeeec;stroke-width:0.782426"
       id="path1191" />
    <path
       d="m 14.44916,46.171291 q -0.119197,0 -0.17956,0.117669 -0.0596,0.116906 -0.0596,0.352244 0,0.234575 0.0596,0.352245 0.06036,0.116905 0.17956,0.116905 0.119962,0 0.17956,-0.116905 0.06036,-0.11767 0.06036,-0.352245 0,-0.235338 -0.06036,-0.352244 -0.0596,-0.117669 -0.17956,-0.117669 z m 0,-0.122254 q 0.191786,0 0.292645,0.152053 0.101624,0.15129 0.101624,0.440114 0,0.288061 -0.101624,0.440115 -0.100859,0.151289 -0.292645,0.151289 -0.191786,0 -0.293409,-0.151289 -0.10086,-0.152054 -0.10086,-0.440115 0,-0.288824 0.10086,-0.440114 0.101623,-0.152053 0.293409,-0.152053 z"
       style="font-size:1.56485px;text-align:center;text-anchor:middle;fill:#eeeeec;stroke-width:0.782426"
       id="path1193" />
  </g>
  <g
     aria-label="0.4"
     id="text5789-4-3"
     style="font-size:1.56485px;text-align:center;text-anchor:middle;fill:#eeeeec;stroke-width:0.782426">
    <path
       d="m 17.572397,46.497501 q -0.119197,0 -0.17956,0.117669 -0.0596,0.116906 -0.0596,0.352244 0,0.234575 0.0596,0.352245 0.06036,0.116905 0.17956,0.116905 0.119962,0 0.179561,-0.116905 0.06036,-0.11767 0.06036,-0.352245 0,-0.235338 -0.06036,-0.352244 -0.0596,-0.117669 -0.179561,-0.117669 z m 0,-0.122254 q 0.191786,0 0.292646,0.152053 0.101623,0.15129 0.101623,0.440114 0,0.288061 -0.101623,0.440115 -0.10086,0.151289 -0.292646,0.151289 -0.191786,0 -0.293409,-0.151289 -0.10086,-0.152054 -0.10086,-0.440115 0,-0.288824 0.10086,-0.440114 0.101623,-0.152053 0.293409,-0.152053 z"
       style="font-size:1.56485px;text-align:center;text-anchor:middle;fill:#eeeeec;stroke-width:0.782426"
       id="path1196" />
    <path
       d="m 18.238681,47.342581 h 0.161222 v 0.194078 h -0.161222 z"
       style="font-size:1.56485px;text-align:center;text-anchor:middle;fill:#eeeeec;stroke-width:0.782426"
       id="path1198" />
    <path
       d="m 19.160934,46.530357 -0.389684,0.608977 h 0.389684 z m -0.0405,-0.13448 h 0.194078 v 0.743457 h 0.162751 v 0.128367 h -0.162751 v 0.268958 h -0.153581 v -0.268958 h -0.514995 v -0.148997 z"
       style="font-size:1.56485px;text-align:center;text-anchor:middle;fill:#eeeeec;stroke-width:0.782426"
       id="path1200" />
  </g>
  <g
     aria-label="0.8"
     id="text5791-9-6"
     style="font-size:1.56485px;text-align:center;text-anchor:middle;fill:#eeeeec;stroke-width:0.782426">
    <path
       d="m 20.550581,50.041622 q -0.119198,0 -0.17956,0.117669 -0.0596,0.116906 -0.0596,0.352244 0,0.234575 0.0596,0.352244 0.06036,0.116906 0.17956,0.116906 0.119962,0 0.17956,-0.116906 0.06036,-0.117669 0.06036,-0.352244 0,-0.235338 -0.06036,-0.352244 -0.0596,-0.117669 -0.17956,-0.117669 z m 0,-0.122254 q 0.191786,0 0.292645,0.152053 0.101624,0.151289 0.101624,0.440114 0,0.288061 -0.101624,0.440114 -0.100859,0.15129 -0.292645,0.15129 -0.191786,0 -0.293409,-0.15129 -0.10086,-0.152053 -0.10086,-0.440114 0,-0.288825 0.10086,-0.440114 0.101623,-0.152053 0.293409,-0.152053 z"
       style="font-size:1.56485px;text-align:center;text-anchor:middle;fill:#eeeeec;stroke-width:0.782426"
       id="path1203" />
    <path
       d="m 21.216865,50.886702 h 0.161222 v 0.194078 h -0.161222 z"
       style="font-size:1.56485px;text-align:center;text-anchor:middle;fill:#eeeeec;stroke-width:0.782426"
       id="path1205" />
    <path
       d="m 22.045135,50.539042 q -0.110029,0 -0.173448,0.05883 -0.06266,0.05884 -0.06266,0.161987 0,0.103151 0.06266,0.161986 0.06342,0.05884 0.173448,0.05884 0.110028,0 0.173448,-0.05884 0.06342,-0.0596 0.06342,-0.161986 0,-0.103152 -0.06342,-0.161987 -0.06265,-0.05883 -0.173448,-0.05883 z m -0.154346,-0.06571 q -0.09933,-0.02445 -0.155109,-0.09246 -0.05501,-0.068 -0.05501,-0.165806 0,-0.136772 0.09704,-0.216237 0.0978,-0.07946 0.26743,-0.07946 0.170391,0 0.26743,0.07946 0.09704,0.07946 0.09704,0.216237 0,0.0978 -0.05578,0.165806 -0.05501,0.068 -0.153581,0.09246 0.111556,0.02598 0.173447,0.101624 0.06266,0.07564 0.06266,0.184909 0,0.165806 -0.101623,0.25444 -0.10086,0.08863 -0.289589,0.08863 -0.188729,0 -0.290353,-0.08863 -0.10086,-0.08863 -0.10086,-0.25444 0,-0.109265 0.06266,-0.184909 0.06266,-0.07565 0.174211,-0.101624 z m -0.05654,-0.243744 q 0,0.08863 0.05501,0.1383 0.05578,0.04967 0.155874,0.04967 0.09933,0 0.15511,-0.04967 0.05654,-0.04967 0.05654,-0.1383 0,-0.08863 -0.05654,-0.1383 -0.05578,-0.04967 -0.15511,-0.04967 -0.100095,0 -0.155874,0.04967 -0.05501,0.04967 -0.05501,0.1383 z"
       style="font-size:1.56485px;text-align:center;text-anchor:middle;fill:#eeeeec;stroke-width:0.782426"
       id="path1207" />
  </g>
  <g
     aria-label="1.2"
     id="text5793-5-5"
     style="font-size:1.56485px;text-align:center;text-anchor:middle;fill:#eeeeec;stroke-width:0.782426">
    <path
       d="m 22.697586,54.878482 h 0.252149 v -0.870295 l -0.274307,0.05501 V 53.92261 l 0.272779,-0.05501 h 0.154346 v 1.010887 h 0.252148 v 0.129895 h -0.657115 z"
       style="font-size:1.56485px;text-align:center;text-anchor:middle;fill:#eeeeec;stroke-width:0.782426"
       id="path1210" />
    <path
       d="m 23.667213,54.814299 h 0.161222 v 0.194078 h -0.161222 z"
       style="font-size:1.56485px;text-align:center;text-anchor:middle;fill:#eeeeec;stroke-width:0.782426"
       id="path1212" />
    <path
       d="m 24.298348,54.878482 h 0.538682 v 0.129895 h -0.724355 v -0.129895 q 0.08787,-0.09093 0.23916,-0.243743 0.152053,-0.153582 0.191021,-0.197899 0.07412,-0.08328 0.103152,-0.140592 0.0298,-0.05807 0.0298,-0.113849 0,-0.09093 -0.06418,-0.148233 -0.06342,-0.05731 -0.165807,-0.05731 -0.07259,0 -0.153581,0.02521 -0.08023,0.02521 -0.17192,0.07641 V 53.92261 q 0.09322,-0.03744 0.174212,-0.05654 0.08099,-0.0191 0.148233,-0.0191 0.177268,0 0.282712,0.08863 0.105444,0.08863 0.105444,0.236867 0,0.0703 -0.02674,0.133715 -0.02598,0.06265 -0.09551,0.148233 -0.0191,0.02216 -0.12149,0.128367 -0.102387,0.105444 -0.288825,0.295701 z"
       style="font-size:1.56485px;text-align:center;text-anchor:middle;fill:#eeeeec;stroke-width:0.782426"
       id="path1214" />
  </g>
  <g
     aria-label="1.6"
     id="text5795-0-6"
     style="font-size:1.56485px;text-align:center;text-anchor:middle;fill:#eeeeec;stroke-width:0.782426">
    <path
       d="m 21.580859,59.371059 h 0.252148 v -0.870295 l -0.274307,0.05501 v -0.140592 l 0.272779,-0.05501 h 0.154346 v 1.010887 h 0.252148 v 0.129895 h -0.657114 z"
       style="font-size:1.56485px;text-align:center;text-anchor:middle;fill:#eeeeec;stroke-width:0.782426"
       id="path1217" />
    <path
       d="m 22.550485,59.306876 h 0.161222 v 0.194078 h -0.161222 z"
       style="font-size:1.56485px;text-align:center;text-anchor:middle;fill:#eeeeec;stroke-width:0.782426"
       id="path1219" />
    <path
       d="m 23.397857,58.869054 q -0.103916,0 -0.165043,0.07106 -0.06036,0.07106 -0.06036,0.194842 0,0.123018 0.06036,0.194842 0.06113,0.07106 0.165043,0.07106 0.103916,0 0.164279,-0.07106 0.06113,-0.07182 0.06113,-0.194842 0,-0.123782 -0.06113,-0.194842 -0.06036,-0.07106 -0.164279,-0.07106 z m 0.306399,-0.483667 v 0.140592 q -0.05807,-0.02751 -0.117669,-0.04203 -0.05884,-0.01452 -0.116906,-0.01452 -0.152817,0 -0.23381,0.103152 -0.08023,0.103152 -0.09169,0.311748 0.04508,-0.06648 0.113085,-0.101624 0.068,-0.03591 0.149761,-0.03591 0.17192,0 0.271251,0.10468 0.100095,0.103916 0.100095,0.283476 0,0.17574 -0.103915,0.281948 -0.103916,0.106208 -0.2766,0.106208 -0.197898,0 -0.302578,-0.151289 -0.10468,-0.152053 -0.10468,-0.440114 0,-0.270487 0.128367,-0.430945 0.128366,-0.161222 0.344603,-0.161222 0.05807,0 0.116905,0.01146 0.0596,0.01146 0.123782,0.03438 z"
       style="font-size:1.56485px;text-align:center;text-anchor:middle;fill:#eeeeec;stroke-width:0.782426"
       id="path1221" />
  </g>
  <g
     aria-label="2.0"
     id="text5797-4-3"
     style="font-size:1.56485px;text-align:center;text-anchor:middle;fill:#eeeeec;stroke-width:0.782426">
    <path
       d="m 19.949855,63.662021 h 0.538682 v 0.129895 h -0.724355 v -0.129895 q 0.08787,-0.09093 0.23916,-0.243744 0.152053,-0.153581 0.191021,-0.197898 0.07412,-0.08329 0.103152,-0.140592 0.0298,-0.05807 0.0298,-0.113849 0,-0.09093 -0.06418,-0.148233 -0.06342,-0.05731 -0.165807,-0.05731 -0.07259,0 -0.153581,0.02521 -0.08023,0.02522 -0.17192,0.07641 v -0.155874 q 0.09322,-0.03744 0.174212,-0.05654 0.08099,-0.0191 0.148233,-0.0191 0.177268,0 0.282712,0.08863 0.105444,0.08863 0.105444,0.236867 0,0.0703 -0.02674,0.133715 -0.02598,0.06265 -0.09551,0.148233 -0.0191,0.02216 -0.12149,0.128366 -0.102387,0.105444 -0.288825,0.295702 z"
       style="font-size:1.56485px;text-align:center;text-anchor:middle;fill:#eeeeec;stroke-width:0.782426"
       id="path1224" />
    <path
       d="m 20.813274,63.597838 h 0.161222 v 0.194078 h -0.161222 z"
       style="font-size:1.56485px;text-align:center;text-anchor:middle;fill:#eeeeec;stroke-width:0.782426"
       id="path1226" />
    <path
       d="m 21.641544,62.752758 q -0.119198,0 -0.179561,0.117669 -0.0596,0.116905 -0.0596,0.352244 0,0.234575 0.0596,0.352244 0.06036,0.116906 0.179561,0.116906 0.119961,0 0.17956,-0.116906 0.06036,-0.117669 0.06036,-0.352244 0,-0.235339 -0.06036,-0.352244 -0.0596,-0.117669 -0.17956,-0.117669 z m 0,-0.122254 q 0.191786,0 0.292645,0.152053 0.101624,0.151289 0.101624,0.440114 0,0.288061 -0.101624,0.440114 -0.100859,0.151289 -0.292645,0.151289 -0.191786,0 -0.29341,-0.151289 -0.100859,-0.152053 -0.100859,-0.440114 0,-0.288825 0.100859,-0.440114 0.101624,-0.152053 0.29341,-0.152053 z"
       style="font-size:1.56485px;text-align:center;text-anchor:middle;fill:#eeeeec;stroke-width:0.782426"
       id="path1228" />
  </g>
  <path
     id="path5801-8-9"
     style="fill:none;stroke:#eeeeec;stroke-width:0.0782426"
     d="m 9.2765807,60.243205 a 6.2594032,6.2594032 0 0 1 10e-8,-8.852133 6.2594032,6.2594032 0 0 1 8.8521332,0 6.2594032,6.2594032 0 0 1 0,8.852133" />
  <path
     id="path5803-7-4"
     style="fill:none;stroke:#eeeeec;stroke-width:0.0782426"
     d="m 8.6956582,60.824128 a 7.0809517,7.0809517 0 0 1 10e-8,-10.013978 7.0809517,7.0809517 0 0 1 10.0139777,0 7.0809517,7.0809517 0 0 1 0,10.013978" />
</svg>
